Varta-Light.ufo
<glyph name="exclam" format="2">
  <advance width="567"/>
  <unicode hex="0021"/>
  <outline>
    <contour>
      <point x="235" y="390" type="line"/>
      <point x="331" y="390" type="line"/>
      <point x="350" y="1199" type="line"/>
      <point x="353" y="1372" type="line"/>
      <point x="214" y="1372" type="line"/>
      <point x="217" y="1199" type="line"/>
    </contour>
    <contour>
      <point x="284" y="-25" type="curve" smooth="yes"/>
      <point x="341" y="-25"/>
      <point x="391" y="21"/>
      <point x="391" y="88" type="curve" smooth="yes"/>
      <point x="391" y="158"/>
      <point x="341" y="204"/>
      <point x="284" y="204" type="curve" smooth="yes"/>
      <point x="226" y="204"/>
      <point x="176" y="158"/>
      <point x="176" y="88" type="curve" smooth="yes"/>
      <point x="176" y="21"/>
      <point x="226" y="-25"/>
    </contour>
  </outline>
</glyph>
<glyph name="numbersign" format="2">
  <advance width="1003"/>
  <unicode hex="0023"/>
  <outline>
    <contour>
      <point x="186" y="0" type="line"/>
      <point x="281" y="0" type="line"/>
      <point x="333" y="426" type="line"/>
      <point x="618" y="426" type="line"/>
      <point x="568" y="0" type="line"/>
      <point x="662" y="0" type="line"/>
      <point x="713" y="426" type="line"/>
      <point x="900" y="426" type="line"/>
      <point x="900" y="526" type="line"/>
      <point x="725" y="526" type="line"/>
      <point x="764" y="847" type="line"/>
      <point x="941" y="847" type="line"/>
      <point x="941" y="947" type="line"/>
      <point x="775" y="947" type="line"/>
      <point x="825" y="1331" type="line"/>
      <point x="732" y="1331" type="line"/>
      <point x="681" y="947" type="line"/>
      <point x="396" y="947" type="line"/>
      <point x="444" y="1331" type="line"/>
      <point x="350" y="1331" type="line"/>
      <point x="302" y="947" type="line"/>
      <point x="114" y="947" type="line"/>
      <point x="114" y="847" type="line"/>
      <point x="290" y="847" type="line"/>
      <point x="251" y="526" type="line"/>
      <point x="73" y="526" type="line"/>
      <point x="73" y="426" type="line"/>
      <point x="239" y="426" type="line"/>
    </contour>
    <contour>
      <point x="345" y="526" type="line"/>
      <point x="385" y="847" type="line"/>
      <point x="670" y="847" type="line"/>
      <point x="631" y="526" type="line"/>
    </contour>
  </outline>
</glyph>
<glyph name="dollar" format="2">
  <advance width="1003"/>
  <unicode hex="0024"/>
  <outline>
    <contour>
      <point x="458" y="-225" type="line"/>
      <point x="564" y="-225" type="line"/>
      <point x="564" y="-20" type="line"/>
      <point x="753" y="2"/>
      <point x="880" y="133"/>
      <point x="880" y="328" type="curve" smooth="yes"/>
      <point x="880" y="779"/>
      <point x="300" y="681"/>
      <point x="300" y="1003" type="curve" smooth="yes"/>
      <point x="300" y="1129"/>
      <point x="386" y="1216"/>
      <point x="518" y="1216" type="curve" smooth="yes"/>
      <point x="636" y="1216"/>
      <point x="698" y="1183"/>
      <point x="775" y="1108" type="curve"/>
      <point x="850" y="1192" type="line"/>
      <point x="778" y="1267"/>
      <point x="695" y="1318"/>
      <point x="564" y="1330" type="curve"/>
      <point x="564" y="1533" type="line"/>
      <point x="458" y="1533" type="line"/>
      <point x="458" y="1329" type="line"/>
      <point x="284" y="1304"/>
      <point x="165" y="1175"/>
      <point x="165" y="997" type="curve" smooth="yes"/>
      <point x="165" y="591"/>
      <point x="744" y="679"/>
      <point x="744" y="318" type="curve" smooth="yes"/>
      <point x="744" y="182"/>
      <point x="661" y="90"/>
      <point x="501" y="90" type="curve" smooth="yes"/>
      <point x="369" y="90"/>
      <point x="262" y="145"/>
      <point x="178" y="218" type="curve"/>
      <point x="112" y="123" type="line"/>
      <point x="196" y="45"/>
      <point x="323" y="-11"/>
      <point x="458" y="-23" type="curve"/>
    </contour>
  </outline>
</glyph>
<glyph name="percent" format="2">
  <advance width="1672"/>
  <unicode hex="0025"/>
  <outline>
    <contour>
      <point x="412" y="-25" type="line"/>
      <point x="510" y="-25" type="line"/>
      <point x="1256" y="1370" type="line"/>
      <point x="1158" y="1370" type="line"/>
    </contour>
    <contour>
      <point x="375" y="522" type="curve" smooth="yes"/>
      <point x="555" y="522"/>
      <point x="673" y="677"/>
      <point x="673" y="948" type="curve" smooth="yes"/>
      <point x="673" y="1219"/>
      <point x="555" y="1370"/>
      <point x="375" y="1370" type="curve" smooth="yes"/>
      <point x="193" y="1370"/>
      <point x="76" y="1219"/>
      <point x="76" y="948" type="curve" smooth="yes"/>
      <point x="76" y="677"/>
      <point x="193" y="522"/>
    </contour>
    <contour>
      <point x="375" y="612" type="curve" smooth="yes"/>
      <point x="259" y="612"/>
      <point x="184" y="730"/>
      <point x="184" y="948" type="curve" smooth="yes"/>
      <point x="184" y="1169"/>
      <point x="259" y="1282"/>
      <point x="375" y="1282" type="curve" smooth="yes"/>
      <point x="488" y="1282"/>
      <point x="564" y="1169"/>
      <point x="564" y="948" type="curve" smooth="yes"/>
      <point x="564" y="730"/>
      <point x="488" y="612"/>
    </contour>
    <contour>
      <point x="1299" y="-25" type="curve" smooth="yes"/>
      <point x="1479" y="-25"/>
      <point x="1597" y="128"/>
      <point x="1597" y="401" type="curve" smooth="yes"/>
      <point x="1597" y="671"/>
      <point x="1479" y="823"/>
      <point x="1299" y="823" type="curve" smooth="yes"/>
      <point x="1117" y="823"/>
      <point x="1000" y="671"/>
      <point x="1000" y="401" type="curve" smooth="yes"/>
      <point x="1000" y="128"/>
      <point x="1117" y="-25"/>
    </contour>
    <contour>
      <point x="1299" y="65" type="curve" smooth="yes"/>
      <point x="1185" y="65"/>
      <point x="1108" y="182"/>
      <point x="1108" y="401" type="curve" smooth="yes"/>
      <point x="1108" y="620"/>
      <point x="1185" y="734"/>
      <point x="1299" y="734" type="curve" smooth="yes"/>
      <point x="1412" y="734"/>
      <point x="1488" y="620"/>
      <point x="1488" y="401" type="curve" smooth="yes"/>
      <point x="1488" y="182"/>
      <point x="1412" y="65"/>
    </contour>
  </outline>
</glyph>
<glyph name="ampersand" format="2">
  <advance width="1219"/>
  <unicode hex="0026"/>
  <outline>
    <contour>
      <point x="1190" y="90" type="line"/>
      <point x="1114" y="114"/>
      <point x="1027" y="162"/>
      <point x="934" y="230" type="curve"/>
      <point x="1041" y="370"/>
      <point x="1117" y="538"/>
      <point x="1170" y="718" type="curve"/>
      <point x="1041" y="718" type="line"/>
      <point x="998" y="556"/>
      <point x="931" y="415"/>
      <point x="843" y="301" type="curve"/>
      <point x="711" y="414"/>
      <point x="579" y="561"/>
      <point x="489" y="713" type="curve"/>
      <point x="640" y="824"/>
      <point x="796" y="929"/>
      <point x="796" y="1116" type="curve" smooth="yes"/>
      <point x="796" y="1267"/>
      <point x="702" y="1370"/>
      <point x="544" y="1370" type="curve" smooth="yes"/>
      <point x="367" y="1370"/>
      <point x="249" y="1236"/>
      <point x="249" y="1060" type="curve" smooth="yes"/>
      <point x="249" y="959"/>
      <point x="283" y="849"/>
      <point x="338" y="737" type="curve"/>
      <point x="200" y="639"/>
      <point x="69" y="525"/>
      <point x="69" y="346" type="curve" smooth="yes"/>
      <point x="69" y="126"/>
      <point x="238" y="-25"/>
      <point x="470" y="-25" type="curve" smooth="yes"/>
      <point x="625" y="-25"/>
      <point x="749" y="40"/>
      <point x="849" y="136" type="curve"/>
      <point x="957" y="56"/>
      <point x="1059" y="4"/>
      <point x="1150" y="-25" type="curve"/>
    </contour>
    <contour>
      <point x="485" y="87" type="curve" smooth="yes"/>
      <point x="329" y="87"/>
      <point x="203" y="193"/>
      <point x="203" y="354" type="curve" smooth="yes"/>
      <point x="203" y="470"/>
      <point x="288" y="558"/>
      <point x="393" y="641" type="curve"/>
      <point x="488" y="485"/>
      <point x="622" y="332"/>
      <point x="758" y="211" type="curve"/>
      <point x="678" y="136"/>
      <point x="584" y="87"/>
    </contour>
    <contour>
      <point x="438" y="805" type="curve"/>
      <point x="395" y="893"/>
      <point x="369" y="982"/>
      <point x="369" y="1063" type="curve" smooth="yes"/>
      <point x="369" y="1178"/>
      <point x="435" y="1269"/>
      <point x="543" y="1269" type="curve" smooth="yes"/>
      <point x="640" y="1269"/>
      <point x="681" y="1192"/>
      <point x="681" y="1110" type="curve" smooth="yes"/>
      <point x="681" y="974"/>
      <point x="566" y="893"/>
    </contour>
  </outline>
</glyph>
<glyph name="plus" format="2">
  <advance width="1003"/>
  <unicode hex="002B"/>
  <outline>
    <contour>
      <point x="445" y="218" type="line"/>
      <point x="557" y="218" type="line"/>
      <point x="557" y="622" type="line"/>
      <point x="933" y="622" type="line"/>
      <point x="933" y="729" type="line"/>
      <point x="557" y="729" type="line"/>
      <point x="557" y="1134" type="line"/>
      <point x="445" y="1134" type="line"/>
      <point x="445" y="729" type="line"/>
      <point x="70" y="729" type="line"/>
      <point x="70" y="622" type="line"/>
      <point x="445" y="622" type="line"/>
    </contour>
  </outline>
</glyph>
<glyph name="comma" format="2">
  <advance width="485"/>
  <unicode hex="002C"/>
  <outline>
    <contour>
      <point x="133" y="-353" type="line"/>
      <point x="281" y="-285"/>
      <point x="378" y="-138"/>
      <point x="378" y="27" type="curve" smooth="yes"/>
      <point x="378" y="137"/>
      <point x="329" y="204"/>
      <point x="251" y="204" type="curve" smooth="yes"/>
      <point x="193" y="204"/>
      <point x="141" y="165"/>
      <point x="141" y="99" type="curve" smooth="yes"/>
      <point x="141" y="31"/>
      <point x="190" y="-5"/>
      <point x="248" y="-5" type="curve" smooth="yes"/>
      <point x="255" y="-5"/>
      <point x="263" y="-5"/>
      <point x="271" y="-3" type="curve"/>
      <point x="270" y="-115"/>
      <point x="201" y="-224"/>
      <point x="96" y="-274" type="curve"/>
    </contour>
  </outline>
</glyph>
<glyph name="hyphen" format="2">
  <advance width="627"/>
  <unicode hex="002D"/>
  <outline>
    <contour>
      <point x="83" y="458" type="line"/>
      <point x="546" y="458" type="line"/>
      <point x="546" y="567" type="line"/>
      <point x="83" y="567" type="line"/>
    </contour>
  </outline>
</glyph>
<glyph name="period" format="2">
  <advance width="485"/>
  <unicode hex="002E"/>
  <outline>
    <contour>
      <point x="243" y="-25" type="curve" smooth="yes"/>
      <point x="301" y="-25"/>
      <point x="350" y="21"/>
      <point x="350" y="88" type="curve" smooth="yes"/>
      <point x="350" y="158"/>
      <point x="301" y="204"/>
      <point x="243" y="204" type="curve" smooth="yes"/>
      <point x="185" y="204"/>
      <point x="135" y="158"/>
      <point x="135" y="88" type="curve" smooth="yes"/>
      <point x="135" y="21"/>
      <point x="185" y="-25"/>
    </contour>
  </outline>
</glyph>
<glyph name="zero" format="2">
  <advance width="1003"/>
  <unicode hex="0030"/>
  <outline>
    <contour>
      <point x="501" y="-25" type="curve" smooth="yes"/>
      <point x="763" y="-25"/>
      <point x="909" y="244"/>
      <point x="909" y="686" type="curve" smooth="yes"/>
      <point x="909" y="1128"/>
      <point x="763" y="1370"/>
      <point x="501" y="1370" type="curve" smooth="yes"/>
      <point x="238" y="1370"/>
      <point x="93" y="1128"/>
      <point x="93" y="686" type="curve" smooth="yes"/>
      <point x="93" y="244"/>
      <point x="238" y="-25"/>
    </contour>
    <contour>
      <point x="501" y="87" type="curve" smooth="yes"/>
      <point x="333" y="87"/>
      <point x="228" y="292"/>
      <point x="228" y="686" type="curve" smooth="yes"/>
      <point x="228" y="1080"/>
      <point x="333" y="1259"/>
      <point x="501" y="1259" type="curve" smooth="yes"/>
      <point x="670" y="1259"/>
      <point x="774" y="1080"/>
      <point x="774" y="686" type="curve" smooth="yes"/>
      <point x="774" y="292"/>
      <point x="670" y="87"/>
    </contour>
  </outline>
</glyph>
<glyph name="two" format="2">
  <advance width="1003"/>
  <unicode hex="0032"/>
  <outline>
    <contour>
      <point x="83" y="0" type="line"/>
      <point x="910" y="0" type="line"/>
      <point x="910" y="119" type="line"/>
      <point x="503" y="119" type="line"/>
      <point x="434" y="119"/>
      <point x="356" y="113"/>
      <point x="284" y="108" type="curve"/>
      <point x="615" y="457"/>
      <point x="844" y="739"/>
      <point x="844" y="995" type="curve" smooth="yes"/>
      <point x="844" y="1224"/>
      <point x="701" y="1370"/>
      <point x="461" y="1370" type="curve" smooth="yes"/>
      <point x="295" y="1370"/>
      <point x="179" y="1293"/>
      <point x="75" y="1179" type="curve"/>
      <point x="156" y="1098" type="line"/>
      <point x="233" y="1191"/>
      <point x="332" y="1258"/>
      <point x="445" y="1258" type="curve" smooth="yes"/>
      <point x="626" y="1258"/>
      <point x="710" y="1142"/>
      <point x="710" y="988" type="curve" smooth="yes"/>
      <point x="710" y="770"/>
      <point x="491" y="493"/>
      <point x="83" y="82" type="curve"/>
    </contour>
  </outline>
</glyph>
<glyph name="three" format="2">
  <advance width="1003"/>
  <unicode hex="0033"/>
  <outline>
    <contour>
      <point x="609" y="695" type="line"/>
      <point x="751" y="746"/>
      <point x="851" y="872"/>
      <point x="851" y="1035" type="curve" smooth="yes"/>
      <point x="851" y="1242"/>
      <point x="703" y="1370"/>
      <point x="475" y="1370" type="curve" smooth="yes"/>
      <point x="323" y="1370"/>
      <point x="204" y="1305"/>
      <point x="107" y="1213" type="curve"/>
      <point x="183" y="1125" type="line"/>
      <point x="259" y="1204"/>
      <point x="356" y="1258"/>
      <point x="470" y="1258" type="curve" smooth="yes"/>
      <point x="618" y="1258"/>
      <point x="711" y="1175"/>
      <point x="711" y="1026" type="curve" smooth="yes"/>
      <point x="711" y="880"/>
      <point x="613" y="741"/>
      <point x="325" y="741" type="curve"/>
      <point x="325" y="632" type="line"/>
      <point x="642" y="632"/>
      <point x="758" y="520"/>
      <point x="758" y="354" type="curve" smooth="yes"/>
      <point x="758" y="191"/>
      <point x="639" y="90"/>
      <point x="474" y="90" type="curve" smooth="yes"/>
      <point x="309" y="90"/>
      <point x="206" y="167"/>
      <point x="128" y="251" type="curve"/>
      <point x="55" y="160" type="line"/>
      <point x="142" y="67"/>
      <point x="271" y="-25"/>
      <point x="480" y="-25" type="curve" smooth="yes"/>
      <point x="719" y="-25"/>
      <point x="897" y="122"/>
      <point x="897" y="351" type="curve" smooth="yes"/>
      <point x="897" y="533"/>
      <point x="768" y="654"/>
      <point x="609" y="687" type="curve"/>
    </contour>
  </outline>
</glyph>
<glyph name="four" format="2">
  <advance width="1003"/>
  <unicode hex="0034"/>
  <outline>
    <contour>
      <point x="628" y="0" type="line"/>
      <point x="758" y="0" type="line"/>
      <point x="758" y="373" type="line"/>
      <point x="943" y="373" type="line"/>
      <point x="943" y="485" type="line"/>
      <point x="758" y="485" type="line"/>
      <point x="758" y="1350" type="line"/>
      <point x="613" y="1350" type="line"/>
      <point x="34" y="460" type="line"/>
      <point x="34" y="373" type="line"/>
      <point x="628" y="373" type="line"/>
    </contour>
    <contour>
      <point x="184" y="485" type="line"/>
      <point x="522" y="1012" type="line"/>
      <point x="559" y="1074"/>
      <point x="596" y="1127"/>
      <point x="629" y="1188" type="curve"/>
      <point x="637" y="1188" type="line"/>
      <point x="633" y="1122"/>
      <point x="628" y="1012"/>
      <point x="628" y="946" type="curve" smooth="yes"/>
      <point x="628" y="485" type="line"/>
    </contour>
  </outline>
</glyph>
<glyph name="five" format="2">
  <advance width="1003"/>
  <unicode hex="0035"/>
  <outline>
    <contour>
      <point x="325" y="1231" type="line"/>
      <point x="837" y="1231" type="line"/>
      <point x="837" y="1350" type="line"/>
      <point x="204" y="1350" type="line"/>
      <point x="160" y="715" type="line"/>
      <point x="239" y="666" type="line"/>
      <point x="317" y="718"/>
      <point x="376" y="749"/>
      <point x="470" y="749" type="curve" smooth="yes"/>
      <point x="655" y="749"/>
      <point x="766" y="616"/>
      <point x="766" y="423" type="curve" smooth="yes"/>
      <point x="766" y="223"/>
      <point x="629" y="90"/>
      <point x="463" y="90" type="curve" smooth="yes"/>
      <point x="299" y="90"/>
      <point x="204" y="162"/>
      <point x="126" y="241" type="curve"/>
      <point x="57" y="150" type="line"/>
      <point x="144" y="62"/>
      <point x="264" y="-25"/>
      <point x="473" y="-25" type="curve" smooth="yes"/>
      <point x="694" y="-25"/>
      <point x="905" y="140"/>
      <point x="905" y="427" type="curve" smooth="yes"/>
      <point x="905" y="711"/>
      <point x="726" y="856"/>
      <point x="501" y="856" type="curve" smooth="yes"/>
      <point x="415" y="856"/>
      <point x="351" y="833"/>
      <point x="287" y="797" type="curve"/>
    </contour>
  </outline>
</glyph>
<glyph name="seven" format="2">
  <advance width="1003"/>
  <unicode hex="0037"/>
  <outline>
    <contour>
      <point x="515" y="0" type="line"/>
      <point x="533" y="511"/>
      <point x="606" y="862"/>
      <point x="917" y="1266" type="curve"/>
      <point x="917" y="1350" type="line"/>
      <point x="90" y="1350" type="line"/>
      <point x="90" y="1231" type="line"/>
      <point x="757" y="1231" type="line"/>
      <point x="497" y="868"/>
      <point x="389" y="507"/>
      <point x="371" y="0" type="curve"/>
    </contour>
  </outline>
</glyph>
<glyph name="nine" format="2">
  <advance width="1003"/>
  <unicode hex="0039"/>
  <outline>
    <contour>
      <point x="148" y="104" type="line"/>
      <point x="229" y="21"/>
      <point x="322" y="-25"/>
      <point x="454" y="-25" type="curve" smooth="yes"/>
      <point x="718" y="-25"/>
      <point x="899" y="191"/>
      <point x="899" y="713" type="curve" smooth="yes"/>
      <point x="899" y="1165"/>
      <point x="733" y="1370"/>
      <point x="468" y="1370" type="curve" smooth="yes"/>
      <point x="265" y="1370"/>
      <point x="84" y="1190"/>
      <point x="84" y="946" type="curve" smooth="yes"/>
      <point x="84" y="679"/>
      <point x="225" y="510"/>
      <point x="452" y="510" type="curve" smooth="yes"/>
      <point x="566" y="510"/>
      <point x="690" y="571"/>
      <point x="769" y="677" type="curve"/>
      <point x="764" y="245"/>
      <point x="644" y="90"/>
      <point x="451" y="90" type="curve" smooth="yes"/>
      <point x="367" y="90"/>
      <point x="268" y="131"/>
      <point x="221" y="192" type="curve"/>
    </contour>
    <contour>
      <point x="474" y="616" type="curve" smooth="yes"/>
      <point x="296" y="616"/>
      <point x="215" y="767"/>
      <point x="215" y="946" type="curve" smooth="yes"/>
      <point x="215" y="1124"/>
      <point x="328" y="1260"/>
      <point x="468" y="1260" type="curve" smooth="yes"/>
      <point x="659" y="1260"/>
      <point x="766" y="1086"/>
      <point x="766" y="794" type="curve"/>
      <point x="670" y="662"/>
      <point x="561" y="616"/>
    </contour>
  </outline>
</glyph>
<glyph name="equal" format="2">
  <advance width="1003"/>
  <unicode hex="003D"/>
  <outline>
    <contour>
      <point x="70" y="837" type="line"/>
      <point x="933" y="837" type="line"/>
      <point x="933" y="944" type="line"/>
      <point x="70" y="944" type="line"/>
    </contour>
    <contour>
      <point x="70" y="407" type="line"/>
      <point x="933" y="407" type="line"/>
      <point x="933" y="514" type="line"/>
      <point x="70" y="514" type="line"/>
    </contour>
  </outline>
</glyph>
<glyph name="question" format="2">
  <advance width="851"/>
  <unicode hex="003F"/>
  <outline>
    <contour>
      <point x="451" y="390" type="line"/>
      <point x="411" y="695"/>
      <point x="751" y="778"/>
      <point x="751" y="1075" type="curve" smooth="yes"/>
      <point x="751" y="1282"/>
      <point x="626" y="1397"/>
      <point x="412" y="1397" type="curve" smooth="yes"/>
      <point x="274" y="1397"/>
      <point x="156" y="1332"/>
      <point x="72" y="1238" type="curve"/>
      <point x="152" y="1159" type="line"/>
      <point x="217" y="1236"/>
      <point x="303" y="1280"/>
      <point x="401" y="1280" type="curve" smooth="yes"/>
      <point x="549" y="1280"/>
      <point x="616" y="1200"/>
      <point x="616" y="1069" type="curve" smooth="yes"/>
      <point x="616" y="811"/>
      <point x="284" y="732"/>
      <point x="330" y="390" type="curve"/>
    </contour>
    <contour>
      <point x="396" y="-25" type="curve" smooth="yes"/>
      <point x="454" y="-25"/>
      <point x="504" y="21"/>
      <point x="504" y="88" type="curve" smooth="yes"/>
      <point x="504" y="158"/>
      <point x="454" y="204"/>
      <point x="396" y="204" type="curve" smooth="yes"/>
      <point x="337" y="204"/>
      <point x="289" y="158"/>
      <point x="289" y="88" type="curve" smooth="yes"/>
      <point x="289" y="21"/>
      <point x="337" y="-25"/>
    </contour>
  </outline>
</glyph>
<glyph name="A" format="2">
  <advance width="1086"/>
  <unicode hex="0041"/>
  <anchor x="543" y="-300" name="btm"/>
  <anchor x="543" y="1590" name="top"/>
  <outline>
    <contour>
      <point x="3" y="0" type="line"/>
      <point x="145" y="0" type="line"/>
      <point x="286" y="432" type="line"/>
      <point x="795" y="432" type="line"/>
      <point x="935" y="0" type="line"/>
      <point x="1083" y="0" type="line"/>
      <point x="620" y="1346" type="line"/>
      <point x="467" y="1346" type="line"/>
    </contour>
    <contour>
      <point x="323" y="545" type="line"/>
      <point x="398" y="770" type="line"/>
      <point x="448" y="923"/>
      <point x="493" y="1068"/>
      <point x="537" y="1228" type="curve"/>
      <point x="546" y="1228" type="line"/>
      <point x="590" y="1068"/>
      <point x="636" y="923"/>
      <point x="685" y="770" type="curve" smooth="yes"/>
      <point x="758" y="545" type="line"/>
    </contour>
  </outline>
</glyph>
<glyph name="B" format="2">
  <advance width="1184"/>
  <unicode hex="0042"/>
  <anchor x="592" y="0" name="bottom"/>
  <anchor x="575" y="1346" name="top"/>
  <outline>
    <contour>
      <point x="184" y="0" type="line"/>
      <point x="602" y="0" type="line"/>
      <point x="903" y="0"/>
      <point x="1103" y="131"/>
      <point x="1103" y="395" type="curve" smooth="yes"/>
      <point x="1103" y="583"/>
      <point x="985" y="696"/>
      <point x="787" y="717" type="curve"/>
      <point x="787" y="725" type="line"/>
      <point x="956" y="762"/>
      <point x="1024" y="883"/>
      <point x="1024" y="1021" type="curve" smooth="yes"/>
      <point x="1024" y="1255"/>
      <point x="846" y="1346"/>
      <point x="575" y="1346" type="curve" smooth="yes"/>
      <point x="184" y="1346" type="line"/>
    </contour>
    <contour>
      <point x="324" y="112" type="line"/>
      <point x="324" y="658" type="line"/>
      <point x="577" y="658" type="line"/>
      <point x="829" y="658"/>
      <point x="966" y="579"/>
      <point x="966" y="400" type="curve" smooth="yes"/>
      <point x="966" y="202"/>
      <point x="822" y="112"/>
      <point x="577" y="112" type="curve" smooth="yes"/>
    </contour>
    <contour>
      <point x="324" y="764" type="line"/>
      <point x="324" y="1234" type="line"/>
      <point x="551" y="1234" type="line"/>
      <point x="775" y="1234"/>
      <point x="886" y="1172"/>
      <point x="886" y="1013" type="curve" smooth="yes"/>
      <point x="886" y="850"/>
      <point x="788" y="764"/>
      <point x="540" y="764" type="curve" smooth="yes"/>
    </contour>
  </outline>
</glyph>
<glyph name="C" format="2">
  <advance width="1152"/>
  <unicode hex="0043"/>
  <anchor x="663" y="0" name="bottom"/>
  <anchor x="679" y="1590" name="top"/>
  <outline>
    <contour>
      <point x="1005" y="253" type="line"/>
      <point x="914" y="151"/>
      <point x="815" y="99"/>
      <point x="683" y="99" type="curve" smooth="yes"/>
      <point x="413" y="99"/>
      <point x="246" y="318"/>
      <point x="246" y="678" type="curve" smooth="yes"/>
      <point x="246" y="1035"/>
      <point x="419" y="1247"/>
      <point x="691" y="1247" type="curve" smooth="yes"/>
      <point x="807" y="1247"/>
      <point x="901" y="1197"/>
      <point x="973" y="1119" type="curve"/>
      <point x="1053" y="1208" type="line"/>
      <point x="976" y="1294"/>
      <point x="849" y="1370"/>
      <point x="690" y="1370" type="curve" smooth="yes"/>
      <point x="346" y="1370"/>
      <point x="102" y="1114"/>
      <point x="102" y="674" type="curve" smooth="yes"/>
      <point x="102" y="231"/>
      <point x="343" y="-25"/>
      <point x="679" y="-25" type="curve" smooth="yes"/>
      <point x="851" y="-25"/>
      <point x="981" y="46"/>
      <point x="1085" y="167" type="curve"/>
    </contour>
  </outline>
</glyph>
<glyph name="D" format="2">
  <advance width="1242"/>
  <unicode hex="0044"/>
  <anchor x="621" y="0" name="bottom"/>
  <anchor x="621" y="673" name="center"/>
  <anchor x="621" y="1346" name="top"/>
  <outline>
    <contour>
      <point x="184" y="0" type="line"/>
      <point x="518" y="0" type="line"/>
      <point x="928" y="0"/>
      <point x="1136" y="252"/>
      <point x="1136" y="679" type="curve" smooth="yes"/>
      <point x="1136" y="1104"/>
      <point x="934" y="1346"/>
      <point x="519" y="1346" type="curve" smooth="yes"/>
      <point x="184" y="1346" type="line"/>
    </contour>
    <contour>
      <point x="324" y="115" type="line"/>
      <point x="324" y="1231" type="line"/>
      <point x="508" y="1231" type="line"/>
      <point x="843" y="1231"/>
      <point x="992" y="1028"/>
      <point x="992" y="679" type="curve" smooth="yes"/>
      <point x="992" y="330"/>
      <point x="838" y="115"/>
      <point x="502" y="115" type="curve" smooth="yes"/>
    </contour>
  </outline>
</glyph>
<glyph name="F" format="2">
  <advance width="985"/>
  <unicode hex="0046"/>
  <anchor x="493" y="0" name="bottom"/>
  <anchor x="592" y="1346" name="top"/>
  <outline>
    <contour>
      <point x="184" y="0" type="line"/>
      <point x="324" y="0" type="line"/>
      <point x="324" y="621" type="line"/>
      <point x="848" y="621" type="line"/>
      <point x="848" y="739" type="line"/>
      <point x="324" y="739" type="line"/>
      <point x="324" y="1228" type="line"/>
      <point x="943" y="1228" type="line"/>
      <point x="943" y="1346" type="line"/>
      <point x="184" y="1346" type="line"/>
    </contour>
  </outline>
</glyph>
<glyph name="G" format="2">
  <advance width="1241"/>
  <unicode hex="0047"/>
  <anchor x="621" y="0" name="bottom"/>
  <anchor x="682" y="1346" name="top"/>
  <outline>
    <contour>
      <point x="1106" y="683" type="line"/>
      <point x="683" y="683" type="line"/>
      <point x="683" y="567" type="line"/>
      <point x="978" y="567" type="line"/>
      <point x="978" y="188" type="line"/>
      <point x="919" y="132"/>
      <point x="817" y="99"/>
      <point x="710" y="99" type="curve" smooth="yes"/>
      <point x="415" y="99"/>
      <point x="247" y="315"/>
      <point x="247" y="675" type="curve" smooth="yes"/>
      <point x="247" y="1041"/>
      <point x="427" y="1247"/>
      <point x="714" y="1247" type="curve" smooth="yes"/>
      <point x="854" y="1247"/>
      <point x="942" y="1196"/>
      <point x="1010" y="1123" type="curve"/>
      <point x="1091" y="1212" type="line"/>
      <point x="1014" y="1292"/>
      <point x="896" y="1370"/>
      <point x="713" y="1370" type="curve" smooth="yes"/>
      <point x="354" y="1370"/>
      <point x="102" y="1124"/>
      <point x="102" y="673" type="curve" smooth="yes"/>
      <point x="102" y="227"/>
      <point x="346" y="-25"/>
      <point x="696" y="-25" type="curve" smooth="yes"/>
      <point x="875" y="-25"/>
      <point x="1020" y="43"/>
      <point x="1106" y="130" type="curve"/>
    </contour>
  </outline>
</glyph>
<glyph name="H" format="2">
  <advance width="1312"/>
  <unicode hex="0048"/>
  <anchor x="656" y="0" name="bottom"/>
  <anchor x="656" y="673" name="center"/>
  <anchor x="656" y="1346" name="top"/>
  <outline>
    <contour>
      <point x="184" y="0" type="line"/>
      <point x="324" y="0" type="line"/>
      <point x="324" y="651" type="line"/>
      <point x="989" y="651" type="line"/>
      <point x="989" y="0" type="line"/>
      <point x="1127" y="0" type="line"/>
      <point x="1127" y="1346" type="line"/>
      <point x="989" y="1346" type="line"/>
      <point x="989" y="771" type="line"/>
      <point x="324" y="771" type="line"/>
      <point x="324" y="1346" type="line"/>
      <point x="184" y="1346" type="line"/>
    </contour>
  </outline>
</glyph>
<glyph name="J" format="2">
  <advance width="955"/>
  <unicode hex="004A"/>
  <anchor x="478" y="0" name="bottom"/>
  <anchor x="478" y="1346" name="top"/>
  <outline>
    <contour>
      <point x="777" y="1346" type="line"/>
      <point x="638" y="1346" type="line"/>
      <point x="638" y="392" type="line"/>
      <point x="638" y="181"/>
      <point x="565" y="99"/>
      <point x="413" y="99" type="curve" smooth="yes"/>
      <point x="310" y="99"/>
      <point x="231" y="144"/>
      <point x="166" y="253" type="curve"/>
      <point x="66" y="183" type="line"/>
      <point x="140" y="48"/>
      <point x="260" y="-25"/>
      <point x="422" y="-25" type="curve" smooth="yes"/>
      <point x="678" y="-25"/>
      <point x="777" y="152"/>
      <point x="777" y="378" type="curve" smooth="yes"/>
    </contour>
  </outline>
</glyph>
<glyph name="K" format="2">
  <advance width="1156"/>
  <unicode hex="004B"/>
  <anchor x="578" y="0" name="bottom"/>
  <anchor x="578" y="1346" name="top"/>
  <outline>
    <contour>
      <point x="184" y="0" type="line"/>
      <point x="324" y="0" type="line"/>
      <point x="324" y="442" type="line"/>
      <point x="572" y="731" type="line"/>
      <point x="991" y="0" type="line"/>
      <point x="1148" y="0" type="line"/>
      <point x="661" y="839" type="line"/>
      <point x="1086" y="1346" type="line"/>
      <point x="926" y="1346" type="line"/>
      <point x="328" y="641" type="line"/>
      <point x="324" y="641" type="line"/>
      <point x="324" y="1346" type="line"/>
      <point x="184" y="1346" type="line"/>
    </contour>
  </outline>
</glyph>
<glyph name="M" format="2">
  <advance width="1460"/>
  <unicode hex="004D"/>
  <anchor x="730" y="0" name="bottom"/>
  <anchor x="730" y="1346" name="top"/>
  <outline>
    <contour>
      <point x="178" y="0" type="line"/>
      <point x="307" y="0" type="line"/>
      <point x="307" y="800" type="line"/>
      <point x="307" y="915"/>
      <point x="303" y="1068"/>
      <point x="296" y="1184" type="curve"/>
      <point x="304" y="1184" type="line"/>
      <point x="411" y="886" type="line"/>
      <point x="682" y="140" type="line"/>
      <point x="774" y="140" type="line"/>
      <point x="1044" y="886" type="line"/>
      <point x="1150" y="1184" type="line"/>
      <point x="1158" y="1184" type="line"/>
      <point x="1151" y="1068"/>
      <point x="1146" y="915"/>
      <point x="1146" y="800" type="curve" smooth="yes"/>
      <point x="1148" y="0" type="line"/>
      <point x="1280" y="0" type="line"/>
      <point x="1267" y="1346" type="line"/>
      <point x="1100" y="1346" type="line"/>
      <point x="834" y="596" type="line"/>
      <point x="735" y="311" type="line"/>
      <point x="727" y="311" type="line"/>
      <point x="627" y="596" type="line"/>
      <point x="358" y="1346" type="line"/>
      <point x="190" y="1346" type="line"/>
    </contour>
  </outline>
</glyph>
<glyph name="P" format="2">
  <advance width="1152"/>
  <unicode hex="0050"/>
  <anchor x="576" y="0" name="bottom"/>
  <anchor x="576" y="1346" name="top"/>
  <outline>
    <contour>
      <point x="184" y="0" type="line"/>
      <point x="324" y="0" type="line"/>
      <point x="324" y="540" type="line"/>
      <point x="587" y="540" type="line"/>
      <point x="888" y="540"/>
      <point x="1068" y="679"/>
      <point x="1068" y="954" type="curve" smooth="yes"/>
      <point x="1068" y="1242"/>
      <point x="890" y="1346"/>
      <point x="585" y="1346" type="curve" smooth="yes"/>
      <point x="184" y="1346" type="line"/>
    </contour>
    <contour>
      <point x="324" y="655" type="line"/>
      <point x="324" y="1232" type="line"/>
      <point x="562" y="1232" type="line"/>
      <point x="817" y="1232"/>
      <point x="929" y="1162"/>
      <point x="929" y="954" type="curve" smooth="yes"/>
      <point x="929" y="751"/>
      <point x="822" y="655"/>
      <point x="564" y="655" type="curve" smooth="yes"/>
    </contour>
  </outline>
</glyph>
<glyph name="R" format="2">
  <advance width="1161"/>
  <unicode hex="0052"/>
  <anchor x="581" y="0" name="bottom"/>
  <anchor x="581" y="1346" name="top"/>
  <outline>
    <contour>
      <point x="184" y="0" type="line"/>
      <point x="324" y="0" type="line"/>
      <point x="324" y="589" type="line"/>
      <point x="590" y="589" type="line"/>
      <point x="924" y="0" type="line"/>
      <point x="1084" y="0" type="line"/>
      <point x="736" y="603" type="line"/>
      <point x="930" y="642"/>
      <point x="1050" y="756"/>
      <point x="1050" y="979" type="curve" smooth="yes"/>
      <point x="1050" y="1255"/>
      <point x="870" y="1346"/>
      <point x="600" y="1346" type="curve" smooth="yes"/>
      <point x="184" y="1346" type="line"/>
    </contour>
    <contour>
      <point x="324" y="703" type="line"/>
      <point x="324" y="1232" type="line"/>
      <point x="575" y="1232" type="line"/>
      <point x="797" y="1232"/>
      <point x="909" y="1172"/>
      <point x="909" y="979" type="curve" smooth="yes"/>
      <point x="909" y="784"/>
      <point x="797" y="703"/>
      <point x="575" y="703" type="curve" smooth="yes"/>
    </contour>
  </outline>
</glyph>
<glyph name="S" format="2">
  <advance width="1071"/>
  <unicode hex="0053"/>
  <anchor x="536" y="0" name="bottom"/>
  <anchor x="536" y="1346" name="top"/>
  <outline>
    <contour>
      <point x="514" y="794" type="line"/>
      <point x="412" y="839"/>
      <point x="289" y="898"/>
      <point x="289" y="1038" type="curve" smooth="yes"/>
      <point x="289" y="1170"/>
      <point x="400" y="1247"/>
      <point x="562" y="1247" type="curve" smooth="yes"/>
      <point x="690" y="1247"/>
      <point x="791" y="1201"/>
      <point x="871" y="1121" type="curve"/>
      <point x="947" y="1212" type="line"/>
      <point x="858" y="1306"/>
      <point x="723" y="1370"/>
      <point x="562" y="1370" type="curve" smooth="yes"/>
      <point x="327" y="1370"/>
      <point x="149" y="1231"/>
      <point x="149" y="1030" type="curve" smooth="yes"/>
      <point x="149" y="832"/>
      <point x="297" y="735"/>
      <point x="419" y="683" type="curve" smooth="yes"/>
      <point x="616" y="595" type="line"/>
      <point x="746" y="537"/>
      <point x="854" y="487"/>
      <point x="854" y="337" type="curve" smooth="yes"/>
      <point x="854" y="194"/>
      <point x="739" y="99"/>
      <point x="551" y="99" type="curve" smooth="yes"/>
      <point x="403" y="99"/>
      <point x="269" y="162"/>
      <point x="171" y="267" type="curve"/>
      <point x="87" y="170" type="line"/>
      <point x="200" y="50"/>
      <point x="355" y="-25"/>
      <point x="548" y="-25" type="curve" smooth="yes"/>
      <point x="822" y="-25"/>
      <point x="996" y="137"/>
      <point x="996" y="348" type="curve" smooth="yes"/>
      <point x="996" y="550"/>
      <point x="865" y="641"/>
      <point x="711" y="708" type="curve" smooth="yes"/>
    </contour>
  </outline>
</glyph>
<glyph name="T" format="2">
  <advance width="1076"/>
  <unicode hex="0054"/>
  <anchor x="538" y="0" name="bottom"/>
  <anchor x="538" y="673" name="center"/>
  <anchor x="538" y="1346" name="top"/>
  <outline>
    <contour>
      <point x="469" y="0" type="line"/>
      <point x="608" y="0" type="line"/>
      <point x="608" y="1228" type="line"/>
      <point x="1024" y="1228" type="line"/>
      <point x="1024" y="1346" type="line"/>
      <point x="52" y="1346" type="line"/>
      <point x="52" y="1228" type="line"/>
      <point x="469" y="1228" type="line"/>
    </contour>
  </outline>
</glyph>
<glyph name="U" format="2">
  <advance width="1300"/>
  <unicode hex="0055"/>
  <anchor x="650" y="0" name="bottom"/>
  <anchor x="1170" y="10" name="ogonek"/>
  <anchor x="650" y="1346" name="top"/>
  <anchor x="1280" y="1346" name="topright"/>
  <outline>
    <contour>
      <point x="1122" y="1346" type="line"/>
      <point x="989" y="1346" type="line"/>
      <point x="989" y="536" type="line"/>
      <point x="989" y="199"/>
      <point x="835" y="99"/>
      <point x="649" y="99" type="curve" smooth="yes"/>
      <point x="469" y="99"/>
      <point x="318" y="200"/>
      <point x="318" y="536" type="curve" smooth="yes"/>
      <point x="318" y="1346" type="line"/>
      <point x="178" y="1346" type="line"/>
      <point x="178" y="534" type="line"/>
      <point x="178" y="110"/>
      <point x="392" y="-25"/>
      <point x="649" y="-25" type="curve" smooth="yes"/>
      <point x="906" y="-25"/>
      <point x="1122" y="108"/>
      <point x="1122" y="534" type="curve" smooth="yes"/>
    </contour>
  </outline>
</glyph>
<glyph name="V" format="2">
  <advance width="1022"/>
  <unicode hex="0056"/>
  <anchor x="511" y="0" name="bottom"/>
  <anchor x="511" y="1346" name="top"/>
  <outline>
    <contour>
      <point x="433" y="0" type="line"/>
      <point x="593" y="0" type="line"/>
      <point x="1024" y="1346" type="line"/>
      <point x="883" y="1346" type="line"/>
      <point x="653" y="595" type="line"/>
      <point x="606" y="434"/>
      <point x="571" y="307"/>
      <point x="519" y="147" type="curve"/>
      <point x="511" y="147" type="line"/>
      <point x="459" y="307"/>
      <point x="425" y="434"/>
      <point x="376" y="595" type="curve" smooth="yes"/>
      <point x="146" y="1346" type="line"/>
      <point x="-2" y="1346" type="line"/>
    </contour>
  </outline>
</glyph>
<glyph name="W" format="2">
  <advance width="1584"/>
  <unicode hex="0057"/>
  <anchor x="792" y="0" name="bottom"/>
  <anchor x="792" y="1346" name="top"/>
  <outline>
    <contour>
      <point x="338" y="0" type="line"/>
      <point x="501" y="0" type="line"/>
      <point x="718" y="857" type="line"/>
      <point x="742" y="962"/>
      <point x="766" y="1057"/>
      <point x="788" y="1162" type="curve"/>
      <point x="796" y="1162" type="line"/>
      <point x="817" y="1057"/>
      <point x="840" y="962"/>
      <point x="863" y="857" type="curve"/>
      <point x="1084" y="0" type="line"/>
      <point x="1248" y="0" type="line"/>
      <point x="1537" y="1346" type="line"/>
      <point x="1401" y="1346" type="line"/>
      <point x="1248" y="589" type="line"/>
      <point x="1222" y="444"/>
      <point x="1195" y="299"/>
      <point x="1167" y="152" type="curve"/>
      <point x="1158" y="152" type="line"/>
      <point x="1125" y="299"/>
      <point x="1091" y="445"/>
      <point x="1058" y="589" type="curve"/>
      <point x="861" y="1346" type="line"/>
      <point x="730" y="1346" type="line"/>
      <point x="533" y="589" type="line"/>
      <point x="499" y="444"/>
      <point x="465" y="298"/>
      <point x="435" y="152" type="curve"/>
      <point x="427" y="152" type="line"/>
      <point x="399" y="298"/>
      <point x="371" y="443"/>
      <point x="341" y="589" type="curve"/>
      <point x="190" y="1346" type="line"/>
      <point x="44" y="1346" type="line"/>
    </contour>
  </outline>
</glyph>
<glyph name="X" format="2">
  <advance width="1013"/>
  <unicode hex="0058"/>
  <anchor x="507" y="0" name="bottom"/>
  <anchor x="507" y="1346" name="top"/>
  <outline>
    <contour>
      <point x="28" y="0" type="line"/>
      <point x="172" y="0" type="line"/>
      <point x="382" y="383" type="line"/>
      <point x="418" y="450"/>
      <point x="453" y="517"/>
      <point x="493" y="599" type="curve"/>
      <point x="501" y="599" type="line"/>
      <point x="546" y="517"/>
      <point x="584" y="450"/>
      <point x="620" y="383" type="curve" smooth="yes"/>
      <point x="833" y="0" type="line"/>
      <point x="986" y="0" type="line"/>
      <point x="590" y="689" type="line"/>
      <point x="959" y="1346" type="line"/>
      <point x="813" y="1346" type="line"/>
      <point x="617" y="980" type="line"/>
      <point x="584" y="919"/>
      <point x="558" y="866"/>
      <point x="521" y="790" type="curve"/>
      <point x="512" y="790" type="line"/>
      <point x="468" y="866"/>
      <point x="440" y="919"/>
      <point x="406" y="980" type="curve" smooth="yes"/>
      <point x="206" y="1346" type="line"/>
      <point x="53" y="1346" type="line"/>
      <point x="424" y="696" type="line"/>
    </contour>
  </outline>
</glyph>
<glyph name="Z" format="2">
  <advance width="1091"/>
  <unicode hex="005A"/>
  <anchor x="546" y="0" name="bottom"/>
  <anchor x="546" y="1346" name="top"/>
  <outline>
    <contour>
      <point x="89" y="0" type="line"/>
      <point x="1006" y="0" type="line"/>
      <point x="1006" y="119" type="line"/>
      <point x="263" y="119" type="line"/>
      <point x="999" y="1264" type="line"/>
      <point x="999" y="1346" type="line"/>
      <point x="156" y="1346" type="line"/>
      <point x="156" y="1228" type="line"/>
      <point x="827" y="1228" type="line"/>
      <point x="89" y="83" type="line"/>
    </contour>
  </outline>
</glyph>
<glyph name="asciicircum" format="2">
  <advance width="1003"/>
  <unicode hex="005E"/>
  <outline>
    <contour>
      <point x="128" y="587" type="line"/>
      <point x="251" y="587" type="line"/>
      <point x="394" y="970" type="line"/>
      <point x="497" y="1242" type="line"/>
      <point x="506" y="1242" type="line"/>
      <point x="608" y="970" type="line"/>
      <point x="752" y="587" type="line"/>
      <point x="875" y="587" type="line"/>
      <point x="565" y="1372" type="line"/>
      <point x="437" y="1372" type="line"/>
    </contour>
  </outline>
</glyph>
<glyph name="underscore" format="2">
  <advance width="1024"/>
  <unicode hex="005F"/>
  <outline>
    <contour>
      <point x="25" y="-251" type="line"/>
      <point x="999" y="-251" type="line"/>
      <point x="999" y="-152" type="line"/>
      <point x="25" y="-152" type="line"/>
    </contour>
  </outline>
</glyph>
<glyph name="a" format="2">
  <advance width="1038"/>
  <unicode hex="0061"/>
  <anchor x="503" y="-300" name="btm"/>
  <anchor x="503" y="1050" name="top"/>
  <outline>
    <contour>
      <point x="756" y="122" type="line"/>
      <point x="769" y="0" type="line"/>
      <point x="882" y="0" type="line"/>
      <point x="882" y="618" type="line"/>
      <point x="882" y="859"/>
      <point x="788" y="1015"/>
      <point x="549" y="1015" type="curve" smooth="yes"/>
      <point x="389" y="1015"/>
      <point x="247" y="952"/>
      <point x="164" y="898" type="curve"/>
      <point x="221" y="801" type="line"/>
      <point x="294" y="853"/>
      <point x="405" y="900"/>
      <point x="529" y="900" type="curve" smooth="yes"/>
      <point x="703" y="900"/>
      <point x="748" y="775"/>
      <point x="746" y="625" type="curve"/>
      <point x="314" y="593"/>
      <point x="125" y="471"/>
      <point x="125" y="254" type="curve" smooth="yes"/>
      <point x="125" y="73"/>
      <point x="252" y="-25"/>
      <point x="421" y="-25" type="curve" smooth="yes"/>
      <point x="558" y="-25"/>
      <point x="654" y="43"/>
      <point x="752" y="122" type="curve"/>
    </contour>
    <contour>
      <point x="746" y="231" type="line"/>
      <point x="640" y="138"/>
      <point x="558" y="87"/>
      <point x="455" y="87" type="curve" smooth="yes"/>
      <point x="344" y="87"/>
      <point x="261" y="138"/>
      <point x="261" y="262" type="curve" smooth="yes"/>
      <point x="261" y="401"/>
      <point x="382" y="504"/>
      <point x="746" y="531" type="curve"/>
    </contour>
  </outline>
</glyph>
<glyph name="b" format="2">
  <advance width="1128"/>
  <unicode hex="0062"/>
  <anchor x="601" y="-300" name="btm"/>
  <anchor x="718" y="1050" name="top"/>
  <outline>
    <contour>
      <point x="313" y="1055" type="line"/>
      <point x="313" y="1464" type="line"/>
      <point x="176" y="1464" type="line"/>
      <point x="176" y="0" type="line"/>
      <point x="287" y="0" type="line"/>
      <point x="299" y="96" type="line"/>
      <point x="306" y="96" type="line"/>
      <point x="395" y="20"/>
      <point x="501" y="-25"/>
      <point x="596" y="-25" type="curve" smooth="yes"/>
      <point x="831" y="-25"/>
      <point x="1026" y="166"/>
      <point x="1026" y="509" type="curve" smooth="yes"/>
      <point x="1026" y="820"/>
      <point x="901" y="1015"/>
      <point x="634" y="1015" type="curve" smooth="yes"/>
      <point x="517" y="1015"/>
      <point x="403" y="952"/>
      <point x="308" y="870" type="curve"/>
    </contour>
    <contour>
      <point x="313" y="752" type="line"/>
      <point x="416" y="847"/>
      <point x="511" y="899"/>
      <point x="604" y="899" type="curve" smooth="yes"/>
      <point x="811" y="899"/>
      <point x="883" y="740"/>
      <point x="883" y="508" type="curve" smooth="yes"/>
      <point x="883" y="250"/>
      <point x="759" y="92"/>
      <point x="577" y="92" type="curve" smooth="yes"/>
      <point x="506" y="92"/>
      <point x="409" y="122"/>
      <point x="313" y="205" type="curve"/>
    </contour>
  </outline>
</glyph>
<glyph name="c" format="2">
  <advance width="928"/>
  <unicode hex="0063"/>
  <anchor x="533" y="-300" name="btm"/>
  <anchor x="570" y="1050" name="top"/>
  <outline>
    <contour>
      <point x="807" y="190" type="line"/>
      <point x="745" y="133"/>
      <point x="665" y="90"/>
      <point x="566" y="90" type="curve" smooth="yes"/>
      <point x="370" y="90"/>
      <point x="240" y="249"/>
      <point x="240" y="495" type="curve" smooth="yes"/>
      <point x="240" y="744"/>
      <point x="380" y="900"/>
      <point x="569" y="900" type="curve" smooth="yes"/>
      <point x="655" y="900"/>
      <point x="723" y="862"/>
      <point x="785" y="807" type="curve"/>
      <point x="856" y="897" type="line"/>
      <point x="789" y="960"/>
      <point x="697" y="1015"/>
      <point x="564" y="1015" type="curve" smooth="yes"/>
      <point x="314" y="1015"/>
      <point x="99" y="836"/>
      <point x="99" y="495" type="curve" smooth="yes"/>
      <point x="99" y="159"/>
      <point x="296" y="-25"/>
      <point x="556" y="-25" type="curve" smooth="yes"/>
      <point x="677" y="-25"/>
      <point x="784" y="22"/>
      <point x="871" y="99" type="curve"/>
    </contour>
  </outline>
</glyph>
<glyph name="h" format="2">
  <advance width="1100"/>
  <unicode hex="0068"/>
  <anchor x="560" y="-300" name="btm"/>
  <anchor x="239" y="1208" name="top"/>
  <outline>
    <contour>
      <point x="176" y="0" type="line"/>
      <point x="313" y="0" type="line"/>
      <point x="313" y="729" type="line"/>
      <point x="421" y="839"/>
      <point x="497" y="895"/>
      <point x="605" y="895" type="curve" smooth="yes"/>
      <point x="751" y="895"/>
      <point x="808" y="810"/>
      <point x="808" y="614" type="curve" smooth="yes"/>
      <point x="808" y="0" type="line"/>
      <point x="944" y="0" type="line"/>
      <point x="944" y="633" type="line"/>
      <point x="944" y="887"/>
      <point x="854" y="1015"/>
      <point x="644" y="1015" type="curve" smooth="yes"/>
      <point x="507" y="1015"/>
      <point x="406" y="940"/>
      <point x="309" y="845" type="curve"/>
      <point x="313" y="1055" type="line"/>
      <point x="313" y="1464" type="line"/>
      <point x="176" y="1464" type="line"/>
    </contour>
  </outline>
</glyph>
<glyph name="k" format="2">
  <advance width="988"/>
  <unicode hex="006B"/>
  <anchor x="547" y="-300" name="btm"/>
  <anchor x="248" y="1208" name="top"/>
  <outline>
    <contour>
      <point x="176" y="0" type="line"/>
      <point x="311" y="0" type="line"/>
      <point x="311" y="264" type="line"/>
      <point x="512" y="498" type="line"/>
      <point x="817" y="0" type="line"/>
      <point x="967" y="0" type="line"/>
      <point x="590" y="595" type="line"/>
      <point x="918" y="990" type="line"/>
      <point x="766" y="990" type="line"/>
      <point x="317" y="437" type="line"/>
      <point x="311" y="437" type="line"/>
      <point x="311" y="1464" type="line"/>
      <point x="176" y="1464" type="line"/>
    </contour>
  </outline>
</glyph>
<glyph name="l" format="2">
  <advance width="507"/>
  <unicode hex="006C"/>
  <anchor x="254" y="0" name="bottom"/>
  <anchor x="254" y="495" name="center"/>
  <anchor x="254" y="990" name="top"/>
  <anchor x="487" y="990" name="topright"/>
  <outline>
    <contour>
      <point x="395" y="94" type="line"/>
      <point x="375" y="90"/>
      <point x="367" y="90"/>
      <point x="358" y="90" type="curve" smooth="yes"/>
      <point x="333" y="90"/>
      <point x="313" y="111"/>
      <point x="313" y="160" type="curve" smooth="yes"/>
      <point x="313" y="1464" type="line"/>
      <point x="176" y="1464" type="line"/>
      <point x="176" y="172" type="line"/>
      <point x="176" y="43"/>
      <point x="223" y="-25"/>
      <point x="331" y="-25" type="curve" smooth="yes"/>
      <point x="369" y="-25"/>
      <point x="394" y="-19"/>
      <point x="415" y="-10" type="curve"/>
    </contour>
  </outline>
</glyph>
<glyph name="o" format="2">
  <advance width="1104"/>
  <unicode hex="006F"/>
  <anchor x="552" y="-300" name="btm"/>
  <anchor x="552" y="1050" name="top"/>
  <outline>
    <contour>
      <point x="551" y="-25" type="curve" smooth="yes"/>
      <point x="797" y="-25"/>
      <point x="1005" y="162"/>
      <point x="1005" y="494" type="curve" smooth="yes"/>
      <point x="1005" y="831"/>
      <point x="797" y="1015"/>
      <point x="551" y="1015" type="curve" smooth="yes"/>
      <point x="306" y="1015"/>
      <point x="100" y="831"/>
      <point x="100" y="494" type="curve" smooth="yes"/>
      <point x="100" y="162"/>
      <point x="306" y="-25"/>
    </contour>
    <contour>
      <point x="551" y="90" type="curve" smooth="yes"/>
      <point x="366" y="90"/>
      <point x="241" y="251"/>
      <point x="241" y="494" type="curve" smooth="yes"/>
      <point x="241" y="739"/>
      <point x="366" y="900"/>
      <point x="551" y="900" type="curve" smooth="yes"/>
      <point x="737" y="900"/>
      <point x="864" y="739"/>
      <point x="864" y="494" type="curve" smooth="yes"/>
      <point x="864" y="251"/>
      <point x="737" y="90"/>
    </contour>
  </outline>
</glyph>
<glyph name="t" format="2">
  <advance width="670"/>
  <unicode hex="0074"/>
  <anchor x="380" y="-300" name="btm"/>
  <anchor x="671" y="1003" name="car"/>
  <anchor x="277" y="1227" name="top"/>
  <outline>
    <contour>
      <point x="616" y="117" type="line"/>
      <point x="582" y="104"/>
      <point x="535" y="89"/>
      <point x="499" y="89" type="curve" smooth="yes"/>
      <point x="376" y="89"/>
      <point x="341" y="164"/>
      <point x="341" y="288" type="curve" smooth="yes"/>
      <point x="341" y="877" type="line"/>
      <point x="616" y="877" type="line"/>
      <point x="616" y="990" type="line"/>
      <point x="341" y="990" type="line"/>
      <point x="341" y="1272" type="line"/>
      <point x="225" y="1272" type="line"/>
      <point x="208" y="990" type="line"/>
      <point x="52" y="981" type="line"/>
      <point x="52" y="877" type="line"/>
      <point x="203" y="877" type="line"/>
      <point x="203" y="293" type="line"/>
      <point x="203" y="105"/>
      <point x="267" y="-25"/>
      <point x="471" y="-25" type="curve" smooth="yes"/>
      <point x="525" y="-25"/>
      <point x="589" y="-7"/>
      <point x="645" y="12" type="curve"/>
    </contour>
  </outline>
</glyph>
<glyph name="v" format="2">
  <advance width="929"/>
  <unicode hex="0076"/>
  <anchor x="464" y="-300" name="btm"/>
  <anchor x="464" y="1050" name="top"/>
  <outline>
    <contour>
      <point x="387" y="0" type="line"/>
      <point x="547" y="0" type="line"/>
      <point x="904" y="990" type="line"/>
      <point x="768" y="990" type="line"/>
      <point x="567" y="404" type="line"/>
      <point x="536" y="307"/>
      <point x="502" y="208"/>
      <point x="472" y="115" type="curve"/>
      <point x="464" y="115" type="line"/>
      <point x="434" y="208"/>
      <point x="399" y="307"/>
      <point x="369" y="404" type="curve"/>
      <point x="168" y="990" type="line"/>
      <point x="25" y="990" type="line"/>
    </contour>
  </outline>
</glyph>
<glyph name="w" format="2">
  <advance width="1443"/>
  <unicode hex="0077"/>
  <anchor x="721" y="-300" name="btm"/>
  <anchor x="721" y="1050" name="top"/>
  <outline>
    <contour>
      <point x="332" y="0" type="line"/>
      <point x="492" y="0" type="line"/>
      <point x="644" y="562" type="line"/>
      <point x="672" y="657"/>
      <point x="695" y="751"/>
      <point x="717" y="850" type="curve"/>
      <point x="725" y="850" type="line"/>
      <point x="751" y="751"/>
      <point x="770" y="660"/>
      <point x="796" y="566" type="curve" smooth="yes"/>
      <point x="951" y="0" type="line"/>
      <point x="1121" y="0" type="line"/>
      <point x="1394" y="990" type="line"/>
      <point x="1262" y="990" type="line"/>
      <point x="1104" y="390" type="line"/>
      <point x="1083" y="297"/>
      <point x="1062" y="210"/>
      <point x="1040" y="119" type="curve"/>
      <point x="1032" y="119" type="line"/>
      <point x="1008" y="210"/>
      <point x="985" y="297"/>
      <point x="960" y="390" type="curve" smooth="yes"/>
      <point x="795" y="990" type="line"/>
      <point x="654" y="990" type="line"/>
      <point x="490" y="390" type="line"/>
      <point x="465" y="298"/>
      <point x="444" y="210"/>
      <point x="421" y="119" type="curve"/>
      <point x="413" y="119" type="line"/>
      <point x="394" y="210"/>
      <point x="373" y="297"/>
      <point x="351" y="390" type="curve"/>
      <point x="191" y="990" type="line"/>
      <point x="49" y="990" type="line"/>
    </contour>
  </outline>
</glyph>
<glyph name="x" format="2">
  <advance width="881"/>
  <unicode hex="0078"/>
  <anchor x="440" y="-300" name="btm"/>
  <anchor x="440" y="1050" name="top"/>
  <outline>
    <contour>
      <point x="29" y="0" type="line"/>
      <point x="172" y="0" type="line"/>
      <point x="321" y="246" type="line"/>
      <point x="356" y="308"/>
      <point x="390" y="368"/>
      <point x="426" y="426" type="curve"/>
      <point x="435" y="426" type="line"/>
      <point x="473" y="368"/>
      <point x="511" y="307"/>
      <point x="546" y="246" type="curve"/>
      <point x="703" y="0" type="line"/>
      <point x="852" y="0" type="line"/>
      <point x="524" y="504" type="line"/>
      <point x="827" y="990" type="line"/>
      <point x="684" y="990" type="line"/>
      <point x="550" y="758" type="line"/>
      <point x="518" y="705"/>
      <point x="487" y="649"/>
      <point x="456" y="594" type="curve"/>
      <point x="448" y="594" type="line"/>
      <point x="412" y="649"/>
      <point x="378" y="705"/>
      <point x="347" y="758" type="curve" smooth="yes"/>
      <point x="203" y="990" type="line"/>
      <point x="54" y="990" type="line"/>
      <point x="357" y="518" type="line"/>
    </contour>
  </outline>
</glyph>
<glyph name="y" format="2">
  <advance width="930"/>
  <unicode hex="0079"/>
  <anchor x="699" y="-300" name="btm"/>
  <anchor x="465" y="1050" name="top"/>
  <outline>
    <contour>
      <point x="906" y="990" type="line"/>
      <point x="769" y="990" type="line"/>
      <point x="579" y="412" type="line"/>
      <point x="552" y="326"/>
      <point x="523" y="222"/>
      <point x="493" y="134" type="curve"/>
      <point x="485" y="134" type="line"/>
      <point x="452" y="223"/>
      <point x="415" y="327"/>
      <point x="384" y="412" type="curve" smooth="yes"/>
      <point x="168" y="990" type="line"/>
      <point x="25" y="990" type="line"/>
      <point x="426" y="-9" type="line"/>
      <point x="401" y="-87" type="line"/>
      <point x="357" y="-222"/>
      <point x="281" y="-320"/>
      <point x="165" y="-320" type="curve" smooth="yes"/>
      <point x="139" y="-320"/>
      <point x="108" y="-312"/>
      <point x="88" y="-304" type="curve"/>
      <point x="60" y="-416" type="line"/>
      <point x="90" y="-428"/>
      <point x="128" y="-437"/>
      <point x="170" y="-437" type="curve" smooth="yes"/>
      <point x="361" y="-437"/>
      <point x="461" y="-282"/>
      <point x="525" y="-99" type="curve" smooth="yes"/>
    </contour>
  </outline>
</glyph>
<glyph name="z" format="2">
  <advance width="852"/>
  <unicode hex="007A"/>
  <anchor x="429" y="-300" name="btm"/>
  <anchor x="429" y="1050" name="top"/>
  <outline>
    <contour>
      <point x="60" y="0" type="line"/>
      <point x="799" y="0" type="line"/>
      <point x="799" y="114" type="line"/>
      <point x="234" y="114" type="line"/>
      <point x="782" y="918" type="line"/>
      <point x="782" y="990" type="line"/>
      <point x="120" y="990" type="line"/>
      <point x="120" y="877" type="line"/>
      <point x="608" y="877" type="line"/>
      <point x="60" y="73" type="line"/>
    </contour>
  </outline>
</glyph>
<glyph name="braceleft" format="2">
  <advance width="600"/>
  <unicode hex="007B"/>
  <outline>
    <contour>
      <point x="546" y="-311" type="line"/>
      <point x="546" y="-230" type="line"/>
      <point x="485" y="-230" type="line"/>
      <point x="371" y="-230"/>
      <point x="341" y="-171"/>
      <point x="341" y="-34" type="curve" smooth="yes"/>
      <point x="341" y="94"/>
      <point x="353" y="204"/>
      <point x="353" y="346" type="curve" smooth="yes"/>
      <point x="353" y="471"/>
      <point x="324" y="541"/>
      <point x="238" y="565" type="curve"/>
      <point x="238" y="573" type="line"/>
      <point x="324" y="598"/>
      <point x="353" y="665"/>
      <point x="353" y="792" type="curve" smooth="yes"/>
      <point x="353" y="919"/>
      <point x="341" y="1051"/>
      <point x="341" y="1172" type="curve" smooth="yes"/>
      <point x="341" y="1309"/>
      <point x="371" y="1366"/>
      <point x="485" y="1366" type="curve" smooth="yes"/>
      <point x="546" y="1366" type="line"/>
      <point x="546" y="1450" type="line"/>
      <point x="461" y="1450" type="line"/>
      <point x="306" y="1450"/>
      <point x="229" y="1388"/>
      <point x="229" y="1182" type="curve" smooth="yes"/>
      <point x="229" y="1041"/>
      <point x="247" y="903"/>
      <point x="247" y="773" type="curve" smooth="yes"/>
      <point x="247" y="695"/>
      <point x="211" y="616"/>
      <point x="71" y="614" type="curve"/>
      <point x="71" y="525" type="line"/>
      <point x="211" y="523"/>
      <point x="247" y="444"/>
      <point x="247" y="362" type="curve" smooth="yes"/>
      <point x="247" y="223"/>
      <point x="229" y="107"/>
      <point x="229" y="-43" type="curve" smooth="yes"/>
      <point x="229" y="-252"/>
      <point x="306" y="-311"/>
      <point x="461" y="-311" type="curve" smooth="yes"/>
    </contour>
  </outline>
</glyph>
<glyph name="asciitilde" format="2">
  <advance width="1003"/>
  <unicode hex="007E"/>
  <outline>
    <contour>
      <point x="846" y="767" type="line"/>
      <point x="801" y="676"/>
      <point x="748" y="641"/>
      <point x="687" y="641" type="curve" smooth="yes"/>
      <point x="571" y="641"/>
      <point x="477" y="818"/>
      <point x="317" y="818" type="curve" smooth="yes"/>
      <point x="232" y="818"/>
      <point x="139" y="769"/>
      <point x="77" y="639" type="curve"/>
      <point x="157" y="584" type="line"/>
      <point x="205" y="682"/>
      <point x="255" y="711"/>
      <point x="315" y="711" type="curve" smooth="yes"/>
      <point x="431" y="711"/>
      <point x="524" y="534"/>
      <point x="684" y="534" type="curve" smooth="yes"/>
      <point x="777" y="534"/>
      <point x="858" y="588"/>
      <point x="925" y="710" type="curve"/>
    </contour>
  </outline>
</glyph>
<glyph name="sterling" format="2">
  <advance width="1003"/>
  <unicode hex="00A3"/>
  <outline>
    <contour>
      <point x="113" y="0" type="line"/>
      <point x="925" y="0" type="line"/>
      <point x="925" y="119" type="line"/>
      <point x="319" y="119" type="line"/>
      <point x="319" y="128" type="line"/>
      <point x="407" y="214"/>
      <point x="455" y="308"/>
      <point x="455" y="462" type="curve" smooth="yes"/>
      <point x="455" y="508"/>
      <point x="450" y="549"/>
      <point x="442" y="591" type="curve"/>
      <point x="733" y="591" type="line"/>
      <point x="733" y="688" type="line"/>
      <point x="419" y="688" type="line"/>
      <point x="393" y="782"/>
      <point x="364" y="869"/>
      <point x="364" y="964" type="curve" smooth="yes"/>
      <point x="364" y="1110"/>
      <point x="447" y="1216"/>
      <point x="603" y="1216" type="curve" smooth="yes"/>
      <point x="702" y="1216"/>
      <point x="768" y="1173"/>
      <point x="821" y="1108" type="curve"/>
      <point x="904" y="1188" type="line"/>
      <point x="836" y="1272"/>
      <point x="740" y="1332"/>
      <point x="596" y="1332" type="curve" smooth="yes"/>
      <point x="373" y="1332"/>
      <point x="228" y="1192"/>
      <point x="228" y="967" type="curve" smooth="yes"/>
      <point x="228" y="873"/>
      <point x="260" y="781"/>
      <point x="288" y="688" type="curve"/>
      <point x="246" y="688" type="line"/>
      <point x="110" y="681" type="line"/>
      <point x="110" y="591" type="line"/>
      <point x="314" y="591" type="line"/>
      <point x="324" y="549"/>
      <point x="330" y="508"/>
      <point x="330" y="464" type="curve" smooth="yes"/>
      <point x="330" y="308"/>
      <point x="257" y="163"/>
      <point x="113" y="83" type="curve"/>
    </contour>
  </outline>
</glyph>
<glyph name="section" format="2">
  <advance width="1003"/>
  <unicode hex="00A7"/>
  <outline>
    <contour>
      <point x="809" y="1285" type="line"/>
      <point x="733" y="1348"/>
      <point x="628" y="1399"/>
      <point x="506" y="1399" type="curve" smooth="yes"/>
      <point x="307" y="1399"/>
      <point x="209" y="1274"/>
      <point x="209" y="1143" type="curve" smooth="yes"/>
      <point x="209" y="1071"/>
      <point x="234" y="1018"/>
      <point x="275" y="976" type="curve"/>
      <point x="173" y="919"/>
      <point x="96" y="834"/>
      <point x="96" y="710" type="curve" smooth="yes"/>
      <point x="96" y="334"/>
      <point x="667" y="394"/>
      <point x="667" y="142" type="curve" smooth="yes"/>
      <point x="667" y="57"/>
      <point x="596" y="-13"/>
      <point x="481" y="-13" type="curve" smooth="yes"/>
      <point x="366" y="-13"/>
      <point x="291" y="30"/>
      <point x="222" y="95" type="curve"/>
      <point x="136" y="18" type="line"/>
      <point x="219" y="-67"/>
      <point x="337" y="-121"/>
      <point x="481" y="-121" type="curve" smooth="yes"/>
      <point x="659" y="-121"/>
      <point x="795" y="-7"/>
      <point x="795" y="149" type="curve" smooth="yes"/>
      <point x="795" y="220"/>
      <point x="771" y="274"/>
      <point x="731" y="318" type="curve"/>
      <point x="835" y="377"/>
      <point x="907" y="450"/>
      <point x="907" y="582" type="curve" smooth="yes"/>
      <point x="907" y="959"/>
      <point x="335" y="909"/>
      <point x="335" y="1149" type="curve" smooth="yes"/>
      <point x="335" y="1222"/>
      <point x="386" y="1289"/>
      <point x="510" y="1289" type="curve" smooth="yes"/>
      <point x="605" y="1289"/>
      <point x="675" y="1248"/>
      <point x="741" y="1195" type="curve"/>
    </contour>
    <contour>
      <point x="648" y="385" type="curve"/>
      <point x="478" y="491"/>
      <point x="219" y="524"/>
      <point x="219" y="719" type="curve" smooth="yes"/>
      <point x="219" y="811"/>
      <point x="273" y="864"/>
      <point x="356" y="911" type="curve"/>
      <point x="526" y="808"/>
      <point x="784" y="772"/>
      <point x="784" y="571" type="curve" smooth="yes"/>
      <point x="784" y="473"/>
      <point x="736" y="425"/>
    </contour>
  </outline>
</glyph>
<glyph name="ordfeminine" format="2">
  <advance width="700"/>
  <unicode hex="00AA"/>
  <outline>
    <contour>
      <point x="501" y="610" type="line"/>
      <point x="514" y="532" type="line"/>
      <point x="599" y="532" type="line"/>
      <point x="599" y="937" type="line"/>
      <point x="599" y="1104"/>
      <point x="535" y="1205"/>
      <point x="374" y="1205" type="curve" smooth="yes"/>
      <point x="267" y="1205"/>
      <point x="169" y="1157"/>
      <point x="107" y="1117" type="curve"/>
      <point x="148" y="1043" type="line"/>
      <point x="200" y="1076"/>
      <point x="284" y="1116"/>
      <point x="360" y="1116" type="curve" smooth="yes"/>
      <point x="463" y="1116"/>
      <point x="491" y="1044"/>
      <point x="493" y="949" type="curve"/>
      <point x="207" y="923"/>
      <point x="80" y="850"/>
      <point x="80" y="706" type="curve" smooth="yes"/>
      <point x="80" y="591"/>
      <point x="162" y="516"/>
      <point x="281" y="516" type="curve" smooth="yes"/>
      <point x="367" y="516"/>
      <point x="436" y="561"/>
      <point x="492" y="610" type="curve"/>
    </contour>
    <contour>
      <point x="493" y="693" type="line"/>
      <point x="428" y="632"/>
      <point x="369" y="603"/>
      <point x="310" y="603" type="curve" smooth="yes"/>
      <point x="235" y="603"/>
      <point x="187" y="638"/>
      <point x="187" y="715" type="curve" smooth="yes"/>
      <point x="187" y="797"/>
      <point x="265" y="856"/>
      <point x="493" y="880" type="curve"/>
    </contour>
  </outline>
</glyph>
<glyph name="logicalnot" format="2">
  <advance width="1003"/>
  <unicode hex="00AC"/>
  <outline>
    <contour>
      <point x="819" y="218" type="line"/>
      <point x="933" y="218" type="line"/>
      <point x="933" y="729" type="line"/>
      <point x="70" y="729" type="line"/>
      <point x="70" y="622" type="line"/>
      <point x="819" y="622" type="line"/>
    </contour>
  </outline>
</glyph>
<glyph name="macron" format="2">
  <advance width="1104"/>
  <unicode hex="00AF"/>
  <anchor x="552" y="1050" name="_top"/>
  <outline>
    <contour>
      <point x="309" y="1235" type="line"/>
      <point x="796" y="1235" type="line"/>
      <point x="796" y="1334" type="line"/>
      <point x="309" y="1334" type="line"/>
    </contour>
  </outline>
</glyph>
<glyph name="AE" format="2">
  <advance width="1660"/>
  <unicode hex="00C6"/>
  <anchor x="830" y="1346" name="top"/>
  <outline>
    <contour>
      <point x="22" y="0" type="line"/>
      <point x="165" y="0" type="line"/>
      <point x="384" y="413" type="line"/>
      <point x="824" y="413" type="line"/>
      <point x="824" y="0" type="line"/>
      <point x="1569" y="0" type="line"/>
      <point x="1569" y="119" type="line"/>
      <point x="963" y="119" type="line"/>
      <point x="963" y="651" type="line"/>
      <point x="1450" y="651" type="line"/>
      <point x="1450" y="770" type="line"/>
      <point x="963" y="770" type="line"/>
      <point x="963" y="1228" type="line"/>
      <point x="1549" y="1228" type="line"/>
      <point x="1549" y="1346" type="line"/>
      <point x="744" y="1346" type="line"/>
    </contour>
    <contour>
      <point x="445" y="526" type="line"/>
      <point x="579" y="780" type="line"/>
      <point x="657" y="932"/>
      <point x="739" y="1085"/>
      <point x="816" y="1233" type="curve"/>
      <point x="824" y="1233" type="line"/>
      <point x="824" y="526" type="line"/>
    </contour>
  </outline>
</glyph>
<glyph name="ae" format="2">
  <advance width="1607"/>
  <unicode hex="00E6"/>
  <anchor x="827" y="-300" name="btm"/>
  <anchor x="795" y="1050" name="top"/>
  <outline>
    <contour>
      <point x="1438" y="174" type="line"/>
      <point x="1364" y="124"/>
      <point x="1291" y="89"/>
      <point x="1190" y="89" type="curve" smooth="yes"/>
      <point x="1009" y="89"/>
      <point x="869" y="242"/>
      <point x="865" y="466" type="curve"/>
      <point x="1524" y="466" type="line"/>
      <point x="1528" y="490"/>
      <point x="1529" y="520"/>
      <point x="1529" y="552" type="curve" smooth="yes"/>
      <point x="1529" y="838"/>
      <point x="1406" y="1015"/>
      <point x="1168" y="1015" type="curve" smooth="yes"/>
      <point x="1017" y="1015"/>
      <point x="898" y="927"/>
      <point x="822" y="790" type="curve"/>
      <point x="784" y="927"/>
      <point x="700" y="1015"/>
      <point x="537" y="1015" type="curve" smooth="yes"/>
      <point x="389" y="1015"/>
      <point x="253" y="952"/>
      <point x="170" y="897" type="curve"/>
      <point x="227" y="800" type="line"/>
      <point x="300" y="851"/>
      <point x="407" y="900"/>
      <point x="521" y="900" type="curve" smooth="yes"/>
      <point x="697" y="900"/>
      <point x="737" y="757"/>
      <point x="736" y="621" type="curve"/>
      <point x="318" y="585"/>
      <point x="125" y="470"/>
      <point x="125" y="252" type="curve" smooth="yes"/>
      <point x="125" y="71"/>
      <point x="252" y="-25"/>
      <point x="415" y="-25" type="curve" smooth="yes"/>
      <point x="541" y="-25"/>
      <point x="691" y="46"/>
      <point x="824" y="169" type="curve"/>
      <point x="898" y="68"/>
      <point x="1005" y="-25"/>
      <point x="1175" y="-25" type="curve" smooth="yes"/>
      <point x="1314" y="-25"/>
      <point x="1407" y="24"/>
      <point x="1490" y="76" type="curve"/>
    </contour>
    <contour>
      <point x="736" y="478" type="line"/>
      <point x="736" y="395"/>
      <point x="751" y="310"/>
      <point x="777" y="256" type="curve"/>
      <point x="677" y="148"/>
      <point x="547" y="87"/>
      <point x="449" y="87" type="curve" smooth="yes"/>
      <point x="344" y="87"/>
      <point x="261" y="138"/>
      <point x="261" y="262" type="curve" smooth="yes"/>
      <point x="261" y="401"/>
      <point x="392" y="489"/>
      <point x="735" y="527" type="curve"/>
    </contour>
    <contour>
      <point x="865" y="561" type="line"/>
      <point x="883" y="768"/>
      <point x="1005" y="905"/>
      <point x="1165" y="905" type="curve" smooth="yes"/>
      <point x="1326" y="905"/>
      <point x="1407" y="785"/>
      <point x="1407" y="561" type="curve"/>
    </contour>
  </outline>
</glyph>
<glyph name="eth" format="2">
  <advance width="1108"/>
  <unicode hex="00F0"/>
  <anchor x="548" y="-300" name="btm"/>
  <anchor x="548" y="1050" name="top"/>
  <outline>
    <contour>
      <point x="970" y="1378" type="line"/>
      <point x="929" y="1451" type="line"/>
      <point x="638" y="1300" type="line"/>
      <point x="551" y="1375"/>
      <point x="455" y="1437"/>
      <point x="355" y="1490" type="curve"/>
      <point x="291" y="1402" type="line"/>
      <point x="377" y="1354"/>
      <point x="457" y="1303"/>
      <point x="530" y="1244" type="curve"/>
      <point x="266" y="1109" type="line"/>
      <point x="307" y="1036" type="line"/>
      <point x="597" y="1186" type="line"/>
      <point x="705" y="1080"/>
      <point x="786" y="949"/>
      <point x="823" y="768" type="curve"/>
      <point x="749" y="865"/>
      <point x="647" y="911"/>
      <point x="537" y="911" type="curve" smooth="yes"/>
      <point x="294" y="911"/>
      <point x="115" y="727"/>
      <point x="115" y="453" type="curve" smooth="yes"/>
      <point x="115" y="156"/>
      <point x="323" y="-25"/>
      <point x="549" y="-25" type="curve" smooth="yes"/>
      <point x="807" y="-25"/>
      <point x="981" y="194"/>
      <point x="981" y="522" type="curve" smooth="yes"/>
      <point x="981" y="850"/>
      <point x="866" y="1075"/>
      <point x="703" y="1241" type="curve"/>
    </contour>
    <contour>
      <point x="552" y="90" type="curve" smooth="yes"/>
      <point x="385" y="90"/>
      <point x="245" y="236"/>
      <point x="245" y="453" type="curve" smooth="yes"/>
      <point x="245" y="646"/>
      <point x="355" y="802"/>
      <point x="553" y="802" type="curve" smooth="yes"/>
      <point x="649" y="802"/>
      <point x="746" y="771"/>
      <point x="842" y="636" type="curve"/>
      <point x="845" y="599"/>
      <point x="847" y="559"/>
      <point x="847" y="518" type="curve" smooth="yes"/>
      <point x="847" y="272"/>
      <point x="752" y="90"/>
    </contour>
  </outline>
</glyph>
<glyph name="Aogonek" format="2">
  <advance width="1086"/>
  <unicode hex="0104"/>
  <outline>
    <contour>
      <point x="1108" y="-297" type="line"/>
      <point x="1083" y="-317"/>
      <point x="1057" y="-326"/>
      <point x="1021" y="-326" type="curve" smooth="yes"/>
      <point x="972" y="-326"/>
      <point x="924" y="-294"/>
      <point x="924" y="-227" type="curve" smooth="yes"/>
      <point x="924" y="-142"/>
      <point x="992" y="-46"/>
      <point x="1083" y="0" type="curve"/>
      <point x="620" y="1346" type="line"/>
      <point x="467" y="1346" type="line"/>
      <point x="3" y="0" type="line"/>
      <point x="145" y="0" type="line"/>
      <point x="286" y="432" type="line"/>
      <point x="795" y="432" type="line"/>
      <point x="935" y="0" type="line"/>
      <point x="964" y="0" type="line"/>
      <point x="891" y="-49"/>
      <point x="813" y="-147"/>
      <point x="813" y="-254" type="curve" smooth="yes"/>
      <point x="813" y="-370"/>
      <point x="895" y="-428"/>
      <point x="998" y="-428" type="curve" smooth="yes"/>
      <point x="1049" y="-428"/>
      <point x="1114" y="-403"/>
      <point x="1150" y="-375" type="curve"/>
    </contour>
    <contour>
      <point x="323" y="545" type="line"/>
      <point x="398" y="770" type="line"/>
      <point x="448" y="923"/>
      <point x="493" y="1068"/>
      <point x="537" y="1228" type="curve"/>
      <point x="546" y="1228" type="line"/>
      <point x="590" y="1068"/>
      <point x="636" y="923"/>
      <point x="685" y="770" type="curve" smooth="yes"/>
      <point x="758" y="545" type="line"/>
    </contour>
  </outline>
</glyph>
<glyph name="Hbar" format="2">
  <advance width="1382"/>
  <unicode hex="0126"/>
  <outline>
    <contour>
      <point x="219" y="0" type="line"/>
      <point x="358" y="0" type="line"/>
      <point x="358" y="651" type="line"/>
      <point x="1022" y="651" type="line"/>
      <point x="1022" y="0" type="line"/>
      <point x="1163" y="0" type="line"/>
      <point x="1163" y="1010" type="line"/>
      <point x="1318" y="1010" type="line"/>
      <point x="1318" y="1095" type="line"/>
      <point x="1163" y="1095" type="line"/>
      <point x="1163" y="1346" type="line"/>
      <point x="1022" y="1346" type="line"/>
      <point x="1022" y="1095" type="line"/>
      <point x="358" y="1095" type="line"/>
      <point x="358" y="1346" type="line"/>
      <point x="219" y="1346" type="line"/>
      <point x="219" y="1095" type="line"/>
      <point x="64" y="1085" type="line"/>
      <point x="64" y="1010" type="line"/>
      <point x="219" y="1010" type="line"/>
    </contour>
    <contour>
      <point x="358" y="771" type="line"/>
      <point x="358" y="1010" type="line"/>
      <point x="1022" y="1010" type="line"/>
      <point x="1022" y="771" type="line"/>
    </contour>
  </outline>
</glyph>
<glyph name="hbar" format="2">
  <advance width="1100"/>
  <unicode hex="0127"/>
  <outline>
    <contour>
      <point x="176" y="0" type="line"/>
      <point x="313" y="0" type="line"/>
      <point x="313" y="688" type="line"/>
      <point x="421" y="798"/>
      <point x="497" y="855"/>
      <point x="605" y="855" type="curve" smooth="yes"/>
      <point x="748" y="855"/>
      <point x="808" y="767"/>
      <point x="808" y="572" type="curve" smooth="yes"/>
      <point x="808" y="0" type="line"/>
      <point x="944" y="0" type="line"/>
      <point x="944" y="590" type="line"/>
      <point x="944" y="844"/>
      <point x="850" y="974"/>
      <point x="644" y="974" type="curve" smooth="yes"/>
      <point x="507" y="974"/>
      <point x="406" y="899"/>
      <point x="309" y="804" type="curve"/>
      <point x="313" y="1014" type="line"/>
      <point x="313" y="1178" type="line"/>
      <point x="692" y="1178" type="line"/>
      <point x="692" y="1263" type="line"/>
      <point x="313" y="1263" type="line"/>
      <point x="313" y="1464" type="line"/>
      <point x="176" y="1464" type="line"/>
      <point x="176" y="1263" type="line"/>
      <point x="22" y="1254" type="line"/>
      <point x="22" y="1178" type="line"/>
      <point x="176" y="1178" type="line"/>
    </contour>
  </outline>
</glyph>
<glyph name="Lslash" format="2">
  <advance width="972"/>
  <unicode hex="0141"/>
  <outline>
    <contour>
      <point x="188" y="0" type="line"/>
      <point x="928" y="0" type="line"/>
      <point x="928" y="119" type="line"/>
      <point x="328" y="119" type="line"/>
      <point x="328" y="566" type="line"/>
      <point x="720" y="774" type="line"/>
      <point x="720" y="889" type="line"/>
      <point x="328" y="681" type="line"/>
      <point x="328" y="1346" type="line"/>
      <point x="188" y="1346" type="line"/>
      <point x="188" y="612" type="line"/>
      <point x="20" y="526" type="line"/>
      <point x="20" y="411" type="line"/>
      <point x="188" y="497" type="line"/>
    </contour>
  </outline>
</glyph>
<glyph name="lslash" format="2">
  <advance width="517"/>
  <unicode hex="0142"/>
  <outline>
    <contour>
      <point x="401" y="94" type="line"/>
      <point x="382" y="90"/>
      <point x="374" y="90"/>
      <point x="365" y="90" type="curve" smooth="yes"/>
      <point x="340" y="90"/>
      <point x="320" y="111"/>
      <point x="320" y="160" type="curve" smooth="yes"/>
      <point x="320" y="779" type="line"/>
      <point x="466" y="873" type="line"/>
      <point x="466" y="994" type="line"/>
      <point x="320" y="899" type="line"/>
      <point x="320" y="1464" type="line"/>
      <point x="182" y="1464" type="line"/>
      <point x="182" y="825" type="line"/>
      <point x="51" y="741" type="line"/>
      <point x="51" y="621" type="line"/>
      <point x="182" y="705" type="line"/>
      <point x="182" y="172" type="line"/>
      <point x="182" y="43"/>
      <point x="230" y="-25"/>
      <point x="336" y="-25" type="curve" smooth="yes"/>
      <point x="376" y="-25"/>
      <point x="399" y="-19"/>
      <point x="422" y="-10" type="curve"/>
    </contour>
  </outline>
</glyph>
<glyph name="OE" format="2">
  <advance width="1711"/>
  <unicode hex="0152"/>
  <anchor x="856" y="1346" name="top"/>
  <outline>
    <contour>
      <point x="1619" y="0" type="line"/>
      <point x="1619" y="119" type="line"/>
      <point x="1014" y="119" type="line"/>
      <point x="1014" y="651" type="line"/>
      <point x="1501" y="651" type="line"/>
      <point x="1501" y="770" type="line"/>
      <point x="1014" y="770" type="line"/>
      <point x="1014" y="1228" type="line"/>
      <point x="1599" y="1228" type="line"/>
      <point x="1599" y="1346" type="line"/>
      <point x="753" y="1346" type="line"/>
      <point x="333" y="1346"/>
      <point x="102" y="1097"/>
      <point x="102" y="679" type="curve" smooth="yes"/>
      <point x="102" y="258"/>
      <point x="333" y="0"/>
      <point x="747" y="0" type="curve" smooth="yes"/>
    </contour>
    <contour>
      <point x="764" y="115" type="line"/>
      <point x="419" y="115"/>
      <point x="246" y="333"/>
      <point x="246" y="679" type="curve" smooth="yes"/>
      <point x="246" y="1024"/>
      <point x="419" y="1231"/>
      <point x="764" y="1231" type="curve" smooth="yes"/>
      <point x="874" y="1231" type="line"/>
      <point x="874" y="115" type="line"/>
    </contour>
  </outline>
</glyph>
<glyph name="Tbar" format="2">
  <advance width="1076"/>
  <unicode hex="0166"/>
  <anchor x="538" y="0" name="bottom"/>
  <anchor x="538" y="673" name="center"/>
  <anchor x="538" y="1346" name="top"/>
  <outline>
    <contour>
      <point x="279" y="631" type="line"/>
      <point x="836" y="631" type="line"/>
      <point x="836" y="742" type="line"/>
      <point x="279" y="742" type="line"/>
    </contour>
    <component base="T"/>
  </outline>
</glyph>
<glyph name="uogonek" format="2">
  <advance width="1101"/>
  <unicode hex="0173"/>
  <outline>
    <contour>
      <point x="930" y="-296" type="line"/>
      <point x="905" y="-314"/>
      <point x="878" y="-323"/>
      <point x="844" y="-323" type="curve" smooth="yes"/>
      <point x="796" y="-323"/>
      <point x="748" y="-290"/>
      <point x="748" y="-224" type="curve" smooth="yes"/>
      <point x="748" y="-141"/>
      <point x="807" y="-64"/>
      <point x="925" y="0" type="curve"/>
      <point x="925" y="990" type="line"/>
      <point x="789" y="990" type="line"/>
      <point x="789" y="276" type="line"/>
      <point x="686" y="150"/>
      <point x="609" y="95"/>
      <point x="501" y="95" type="curve" smooth="yes"/>
      <point x="357" y="95"/>
      <point x="299" y="183"/>
      <point x="299" y="378" type="curve" smooth="yes"/>
      <point x="299" y="990" type="line"/>
      <point x="162" y="990" type="line"/>
      <point x="162" y="360" type="line"/>
      <point x="162" y="106"/>
      <point x="256" y="-25"/>
      <point x="464" y="-25" type="curve" smooth="yes"/>
      <point x="600" y="-25"/>
      <point x="700" y="49"/>
      <point x="794" y="159" type="curve"/>
      <point x="800" y="159" type="line"/>
      <point x="813" y="10" type="line"/>
      <point x="718" y="-58"/>
      <point x="642" y="-140"/>
      <point x="642" y="-249" type="curve" smooth="yes"/>
      <point x="642" y="-361"/>
      <point x="720" y="-420"/>
      <point x="820" y="-420" type="curve" smooth="yes"/>
      <point x="868" y="-420"/>
      <point x="933" y="-396"/>
      <point x="969" y="-368" type="curve"/>
    </contour>
  </outline>
</glyph>
<glyph name="bstroke" format="2">
  <advance width="1100"/>
  <unicode hex="0180"/>
  <outline>
    <contour>
      <point x="313" y="1014" type="line"/>
      <point x="313" y="1178" type="line"/>
      <point x="692" y="1178" type="line"/>
      <point x="692" y="1263" type="line"/>
      <point x="313" y="1263" type="line"/>
      <point x="313" y="1464" type="line"/>
      <point x="176" y="1464" type="line"/>
      <point x="176" y="1263" type="line"/>
      <point x="22" y="1254" type="line"/>
      <point x="22" y="1178" type="line"/>
      <point x="176" y="1178" type="line"/>
      <point x="176" y="0" type="line"/>
      <point x="287" y="0" type="line"/>
      <point x="299" y="96" type="line"/>
      <point x="306" y="96" type="line"/>
      <point x="395" y="20"/>
      <point x="501" y="-25"/>
      <point x="594" y="-25" type="curve" smooth="yes"/>
      <point x="823" y="-25"/>
      <point x="1026" y="165"/>
      <point x="1026" y="490" type="curve" smooth="yes"/>
      <point x="1026" y="784"/>
      <point x="891" y="974"/>
      <point x="631" y="974" type="curve" smooth="yes"/>
      <point x="516" y="974"/>
      <point x="403" y="911"/>
      <point x="308" y="829" type="curve"/>
    </contour>
    <contour>
      <point x="313" y="711" type="line"/>
      <point x="416" y="807"/>
      <point x="511" y="858"/>
      <point x="601" y="858" type="curve" smooth="yes"/>
      <point x="805" y="858"/>
      <point x="883" y="705"/>
      <point x="883" y="489" type="curve" smooth="yes"/>
      <point x="883" y="247"/>
      <point x="753" y="92"/>
      <point x="575" y="92" type="curve" smooth="yes"/>
      <point x="506" y="92"/>
      <point x="409" y="122"/>
      <point x="313" y="205" type="curve"/>
    </contour>
  </outline>
</glyph>
<glyph name="florin" format="2">
  <advance width="1003"/>
  <unicode hex="0192"/>
  <outline>
    <contour>
      <point x="556" y="726" type="line"/>
      <point x="836" y="726" type="line"/>
      <point x="836" y="833" type="line"/>
      <point x="567" y="833" type="line"/>
      <point x="582" y="966" type="line"/>
      <point x="599" y="1116"/>
      <point x="648" y="1257"/>
      <point x="779" y="1257" type="curve" smooth="yes"/>
      <point x="832" y="1257"/>
      <point x="868" y="1239"/>
      <point x="898" y="1227" type="curve"/>
      <point x="930" y="1333" type="line"/>
      <point x="892" y="1352"/>
      <point x="837" y="1370"/>
      <point x="774" y="1370" type="curve" smooth="yes"/>
      <point x="568" y="1370"/>
      <point x="478" y="1219"/>
      <point x="448" y="953" type="curve" smooth="yes"/>
      <point x="435" y="833" type="line"/>
      <point x="378" y="833" type="line"/>
      <point x="239" y="825" type="line"/>
      <point x="239" y="726" type="line"/>
      <point x="423" y="726" type="line"/>
      <point x="371" y="241" type="line"/>
      <point x="349" y="38"/>
      <point x="299" y="-86"/>
      <point x="164" y="-86" type="curve" smooth="yes"/>
      <point x="126" y="-86"/>
      <point x="92" y="-79"/>
      <point x="60" y="-64" type="curve"/>
      <point x="31" y="-168" type="line"/>
      <point x="65" y="-187"/>
      <point x="114" y="-200"/>
      <point x="174" y="-200" type="curve" smooth="yes"/>
      <point x="389" y="-200"/>
      <point x="472" y="-35"/>
      <point x="500" y="216" type="curve" smooth="yes"/>
    </contour>
  </outline>
</glyph>
<glyph name="Ohorn" format="2">
  <advance width="1338"/>
  <unicode hex="01A0"/>
  <anchor x="669" y="-300" name="btm"/>
  <anchor x="669" y="1590" name="top"/>
  <outline>
    <contour>
      <point x="1080" y="1526" type="line"/>
      <point x="1098" y="1499"/>
      <point x="1109" y="1473"/>
      <point x="1109" y="1444" type="curve" smooth="yes"/>
      <point x="1109" y="1367"/>
      <point x="1053" y="1325"/>
      <point x="931" y="1305" type="curve"/>
      <point x="855" y="1348"/>
      <point x="767" y="1370"/>
      <point x="670" y="1370" type="curve" smooth="yes"/>
      <point x="337" y="1370"/>
      <point x="102" y="1107"/>
      <point x="102" y="679" type="curve" smooth="yes"/>
      <point x="102" y="248"/>
      <point x="337" y="-25"/>
      <point x="670" y="-25" type="curve" smooth="yes"/>
      <point x="1001" y="-25"/>
      <point x="1236" y="248"/>
      <point x="1236" y="679" type="curve" smooth="yes"/>
      <point x="1236" y="931"/>
      <point x="1153" y="1126"/>
      <point x="1019" y="1244" type="curve"/>
      <point x="1145" y="1274"/>
      <point x="1224" y="1339"/>
      <point x="1224" y="1452" type="curve" smooth="yes"/>
      <point x="1224" y="1499"/>
      <point x="1207" y="1540"/>
      <point x="1181" y="1577" type="curve"/>
    </contour>
    <contour>
      <point x="670" y="99" type="curve" smooth="yes"/>
      <point x="415" y="99"/>
      <point x="246" y="327"/>
      <point x="246" y="679" type="curve" smooth="yes"/>
      <point x="246" y="1029"/>
      <point x="415" y="1247"/>
      <point x="670" y="1247" type="curve" smooth="yes"/>
      <point x="923" y="1247"/>
      <point x="1091" y="1029"/>
      <point x="1091" y="679" type="curve" smooth="yes"/>
      <point x="1091" y="327"/>
      <point x="923" y="99"/>
    </contour>
  </outline>
</glyph>
<glyph name="ohorn" format="2">
  <advance width="1104"/>
  <unicode hex="01A1"/>
  <anchor x="551" y="-300" name="btm"/>
  <anchor x="552" y="1049" name="top"/>
  <outline>
    <contour>
      <point x="874" y="1191" type="line"/>
      <point x="894" y="1164"/>
      <point x="905" y="1136"/>
      <point x="905" y="1108" type="curve" smooth="yes"/>
      <point x="905" y="1031"/>
      <point x="847" y="987"/>
      <point x="743" y="972" type="curve"/>
      <point x="684" y="1001"/>
      <point x="619" y="1015"/>
      <point x="552" y="1015" type="curve" smooth="yes"/>
      <point x="311" y="1015"/>
      <point x="99" y="825"/>
      <point x="99" y="493" type="curve" smooth="yes"/>
      <point x="99" y="165"/>
      <point x="311" y="-25"/>
      <point x="552" y="-25" type="curve" smooth="yes"/>
      <point x="793" y="-25"/>
      <point x="1005" y="165"/>
      <point x="1005" y="493" type="curve" smooth="yes"/>
      <point x="1005" y="682"/>
      <point x="936" y="824"/>
      <point x="833" y="913" type="curve"/>
      <point x="930" y="941"/>
      <point x="1020" y="997"/>
      <point x="1020" y="1117" type="curve" smooth="yes"/>
      <point x="1020" y="1165"/>
      <point x="1003" y="1206"/>
      <point x="976" y="1243" type="curve"/>
    </contour>
    <contour>
      <point x="552" y="90" type="curve" smooth="yes"/>
      <point x="370" y="90"/>
      <point x="241" y="253"/>
      <point x="241" y="493" type="curve" smooth="yes"/>
      <point x="241" y="735"/>
      <point x="370" y="900"/>
      <point x="552" y="900" type="curve" smooth="yes"/>
      <point x="734" y="900"/>
      <point x="864" y="735"/>
      <point x="864" y="493" type="curve" smooth="yes"/>
      <point x="864" y="253"/>
      <point x="734" y="90"/>
    </contour>
  </outline>
</glyph>
<glyph name="Uhorn" format="2">
  <advance width="1326"/>
  <unicode hex="01AF"/>
  <anchor x="648" y="-300" name="btm"/>
  <anchor x="647" y="1590" name="top"/>
  <outline>
    <contour>
      <point x="1122" y="1281" type="line"/>
      <point x="1237" y="1306"/>
      <point x="1340" y="1362"/>
      <point x="1340" y="1493" type="curve" smooth="yes"/>
      <point x="1340" y="1540"/>
      <point x="1321" y="1581"/>
      <point x="1295" y="1618" type="curve"/>
      <point x="1193" y="1567" type="line"/>
      <point x="1212" y="1540"/>
      <point x="1224" y="1514"/>
      <point x="1224" y="1485" type="curve" smooth="yes"/>
      <point x="1224" y="1395"/>
      <point x="1157" y="1362"/>
      <point x="1042" y="1346" type="curve"/>
      <point x="989" y="1346" type="line"/>
      <point x="989" y="542" type="line"/>
      <point x="989" y="204"/>
      <point x="835" y="99"/>
      <point x="649" y="99" type="curve" smooth="yes"/>
      <point x="469" y="99"/>
      <point x="318" y="204"/>
      <point x="318" y="542" type="curve" smooth="yes"/>
      <point x="318" y="1346" type="line"/>
      <point x="178" y="1346" type="line"/>
      <point x="178" y="540" type="line"/>
      <point x="178" y="112"/>
      <point x="392" y="-25"/>
      <point x="649" y="-25" type="curve" smooth="yes"/>
      <point x="906" y="-25"/>
      <point x="1122" y="112"/>
      <point x="1122" y="540" type="curve" smooth="yes"/>
    </contour>
  </outline>
</glyph>
<glyph name="Oogonek" format="2">
  <advance width="1338"/>
  <unicode hex="01EA"/>
  <outline>
    <contour>
      <point x="841" y="-297" type="line"/>
      <point x="815" y="-317"/>
      <point x="789" y="-326"/>
      <point x="755" y="-326" type="curve" smooth="yes"/>
      <point x="706" y="-326"/>
      <point x="656" y="-294"/>
      <point x="656" y="-227" type="curve" smooth="yes"/>
      <point x="656" y="-156"/>
      <point x="706" y="-65"/>
      <point x="819" y="-15" type="curve" smooth="yes"/>
      <point x="1087" y="108"/>
      <point x="1236" y="314"/>
      <point x="1236" y="679" type="curve" smooth="yes"/>
      <point x="1236" y="1106"/>
      <point x="1001" y="1370"/>
      <point x="670" y="1370" type="curve" smooth="yes"/>
      <point x="337" y="1370"/>
      <point x="102" y="1107"/>
      <point x="102" y="679" type="curve" smooth="yes"/>
      <point x="102" y="257"/>
      <point x="322" y="-19"/>
      <point x="670" y="-24" type="curve"/>
      <point x="594" y="-84"/>
      <point x="545" y="-168"/>
      <point x="545" y="-254" type="curve" smooth="yes"/>
      <point x="545" y="-370"/>
      <point x="628" y="-428"/>
      <point x="731" y="-428" type="curve" smooth="yes"/>
      <point x="781" y="-428"/>
      <point x="845" y="-403"/>
      <point x="881" y="-375" type="curve"/>
    </contour>
    <contour>
      <point x="670" y="99" type="curve" smooth="yes"/>
      <point x="415" y="99"/>
      <point x="246" y="327"/>
      <point x="246" y="679" type="curve" smooth="yes"/>
      <point x="246" y="1029"/>
      <point x="415" y="1247"/>
      <point x="670" y="1247" type="curve" smooth="yes"/>
      <point x="923" y="1247"/>
      <point x="1091" y="1029"/>
      <point x="1091" y="679" type="curve" smooth="yes"/>
      <point x="1091" y="327"/>
      <point x="923" y="99"/>
    </contour>
  </outline>
</glyph>
<glyph name="y.sups" format="2">
  <advance width="636"/>
  <unicode hex="02B8"/>
  <outline>
    <contour>
      <point x="620" y="1189" type="line"/>
      <point x="514" y="1189" type="line"/>
      <point x="400" y="825" type="line"/>
      <point x="379" y="763"/>
      <point x="357" y="702"/>
      <point x="339" y="636" type="curve"/>
      <point x="330" y="636" type="line"/>
      <point x="308" y="702"/>
      <point x="284" y="766"/>
      <point x="263" y="825" type="curve" smooth="yes"/>
      <point x="125" y="1189" type="line"/>
      <point x="16" y="1189" type="line"/>
      <point x="286" y="532" type="line"/>
      <point x="270" y="488" type="line"/>
      <point x="244" y="403"/>
      <point x="192" y="343"/>
      <point x="118" y="343" type="curve" smooth="yes"/>
      <point x="101" y="343"/>
      <point x="86" y="346"/>
      <point x="67" y="355" type="curve"/>
      <point x="44" y="265" type="line"/>
      <point x="68" y="257"/>
      <point x="93" y="253"/>
      <point x="124" y="253" type="curve" smooth="yes"/>
      <point x="257" y="253"/>
      <point x="328" y="355"/>
      <point x="374" y="485" type="curve" smooth="yes"/>
    </contour>
  </outline>
</glyph>
<glyph name="ringhalfright" format="2">
  <advance width="300"/>
  <unicode hex="02BE"/>
  <outline>
    <contour>
      <point x="64" y="1108" type="line"/>
      <point x="203" y="1104"/>
      <point x="282" y="1176"/>
      <point x="282" y="1292" type="curve" smooth="yes"/>
      <point x="282" y="1407"/>
      <point x="203" y="1480"/>
      <point x="64" y="1476" type="curve"/>
      <point x="64" y="1412" type="line"/>
      <point x="159" y="1412"/>
      <point x="199" y="1363"/>
      <point x="199" y="1292" type="curve" smooth="yes"/>
      <point x="199" y="1221"/>
      <point x="159" y="1171"/>
      <point x="64" y="1171" type="curve"/>
    </contour>
  </outline>
</glyph>
<glyph name="circumflex" format="2">
  <advance width="1104"/>
  <unicode hex="02C6"/>
  <anchor x="552" y="1050" name="_top"/>
  <outline>
    <contour>
      <point x="302" y="1173" type="line"/>
      <point x="404" y="1173" type="line"/>
      <point x="548" y="1366" type="line"/>
      <point x="556" y="1366" type="line"/>
      <point x="700" y="1173" type="line"/>
      <point x="803" y="1173" type="line"/>
      <point x="610" y="1457" type="line"/>
      <point x="494" y="1457" type="line"/>
    </contour>
  </outline>
</glyph>
<glyph name="verticallinemod" format="2">
  <advance width="217"/>
  <unicode hex="02C8"/>
  <outline>
    <contour>
      <point x="61" y="1088" type="line"/>
      <point x="157" y="1088" type="line"/>
      <point x="169" y="1454" type="line"/>
      <point x="48" y="1454" type="line"/>
    </contour>
  </outline>
</glyph>
<glyph name="fourthtonechinese" format="2">
  <advance width="455"/>
  <unicode hex="02CB"/>
  <outline>
    <contour>
      <point x="241" y="1173" type="line"/>
      <point x="349" y="1173" type="line"/>
      <point x="163" y="1457" type="line"/>
      <point x="16" y="1457" type="line"/>
    </contour>
  </outline>
</glyph>
<glyph name="breve" format="2">
  <advance width="1104"/>
  <unicode hex="02D8"/>
  <anchor x="552" y="1050" name="_top"/>
  <outline>
    <contour>
      <point x="715" y="1432" type="line"/>
      <point x="704" y="1349"/>
      <point x="653" y="1267"/>
      <point x="552" y="1267" type="curve" smooth="yes"/>
      <point x="450" y="1267"/>
      <point x="400" y="1349"/>
      <point x="389" y="1432" type="curve"/>
      <point x="300" y="1432" type="line"/>
      <point x="309" y="1318"/>
      <point x="380" y="1179"/>
      <point x="552" y="1179" type="curve" smooth="yes"/>
      <point x="724" y="1179"/>
      <point x="795" y="1318"/>
      <point x="804" y="1432" type="curve"/>
    </contour>
  </outline>
</glyph>
<glyph name="dotaccent" format="2">
  <advance width="1104"/>
  <unicode hex="02D9"/>
  <anchor x="551" y="1050" name="_top"/>
  <outline>
    <contour>
      <point x="552" y="1209" type="curve" smooth="yes"/>
      <point x="607" y="1209"/>
      <point x="649" y="1248"/>
      <point x="649" y="1309" type="curve" smooth="yes"/>
      <point x="649" y="1365"/>
      <point x="607" y="1406"/>
      <point x="552" y="1406" type="curve" smooth="yes"/>
      <point x="497" y="1406"/>
      <point x="454" y="1365"/>
      <point x="454" y="1309" type="curve" smooth="yes"/>
      <point x="454" y="1248"/>
      <point x="497" y="1209"/>
    </contour>
  </outline>
</glyph>
<glyph name="ring" format="2">
  <advance width="1104"/>
  <unicode hex="02DA"/>
  <anchor x="553" y="1050" name="_top"/>
  <outline>
    <contour>
      <point x="552" y="1108" type="curve" smooth="yes"/>
      <point x="657" y="1108"/>
      <point x="735" y="1182"/>
      <point x="735" y="1292" type="curve" smooth="yes"/>
      <point x="735" y="1402"/>
      <point x="657" y="1476"/>
      <point x="552" y="1476" type="curve" smooth="yes"/>
      <point x="448" y="1476"/>
      <point x="371" y="1402"/>
      <point x="371" y="1292" type="curve" smooth="yes"/>
      <point x="371" y="1182"/>
      <point x="448" y="1108"/>
    </contour>
    <contour>
      <point x="552" y="1174" type="curve" smooth="yes"/>
      <point x="495" y="1174"/>
      <point x="450" y="1221"/>
      <point x="450" y="1292" type="curve" smooth="yes"/>
      <point x="450" y="1363"/>
      <point x="495" y="1410"/>
      <point x="552" y="1410" type="curve" smooth="yes"/>
      <point x="609" y="1410"/>
      <point x="654" y="1363"/>
      <point x="654" y="1292" type="curve" smooth="yes"/>
      <point x="654" y="1221"/>
      <point x="609" y="1174"/>
    </contour>
  </outline>
</glyph>
<glyph name="tilde" format="2">
  <advance width="1104"/>
  <unicode hex="02DC"/>
  <anchor x="552" y="1050" name="_top"/>
  <outline>
    <contour>
      <point x="362" y="1188" type="line"/>
      <point x="372" y="1258"/>
      <point x="395" y="1295"/>
      <point x="437" y="1295" type="curve" smooth="yes"/>
      <point x="509" y="1295"/>
      <point x="567" y="1188"/>
      <point x="668" y="1188" type="curve" smooth="yes"/>
      <point x="767" y="1188"/>
      <point x="815" y="1282"/>
      <point x="824" y="1390" type="curve"/>
      <point x="743" y="1390" type="line"/>
      <point x="732" y="1321"/>
      <point x="709" y="1282"/>
      <point x="667" y="1282" type="curve" smooth="yes"/>
      <point x="599" y="1282"/>
      <point x="539" y="1390"/>
      <point x="435" y="1390" type="curve" smooth="yes"/>
      <point x="337" y="1390"/>
      <point x="289" y="1296"/>
      <point x="280" y="1188" type="curve"/>
    </contour>
  </outline>
</glyph>
<glyph name="l.sups" format="2">
  <advance width="346"/>
  <unicode hex="02E1"/>
  <outline>
    <contour>
      <point x="279" y="610" type="line"/>
      <point x="267" y="606"/>
      <point x="258" y="606"/>
      <point x="250" y="606" type="curve" smooth="yes"/>
      <point x="230" y="606"/>
      <point x="217" y="619"/>
      <point x="217" y="655" type="curve" smooth="yes"/>
      <point x="217" y="1496" type="line"/>
      <point x="111" y="1496" type="line"/>
      <point x="111" y="665" type="line"/>
      <point x="111" y="571"/>
      <point x="143" y="516"/>
      <point x="231" y="516" type="curve" smooth="yes"/>
      <point x="261" y="516"/>
      <point x="279" y="521"/>
      <point x="295" y="527" type="curve"/>
    </contour>
  </outline>
</glyph>
<glyph name="x.sups" format="2">
  <advance width="609"/>
  <unicode hex="02E3"/>
  <outline>
    <contour>
      <point x="16" y="532" type="line"/>
      <point x="131" y="532" type="line"/>
      <point x="223" y="683" type="line"/>
      <point x="295" y="797" type="line"/>
      <point x="303" y="797" type="line"/>
      <point x="376" y="683" type="line"/>
      <point x="471" y="532" type="line"/>
      <point x="589" y="532" type="line"/>
      <point x="372" y="865" type="line"/>
      <point x="575" y="1189" type="line"/>
      <point x="460" y="1189" type="line"/>
      <point x="377" y="1046" type="line"/>
      <point x="318" y="939" type="line"/>
      <point x="310" y="939" type="line"/>
      <point x="244" y="1046" type="line"/>
      <point x="154" y="1189" type="line"/>
      <point x="36" y="1189" type="line"/>
      <point x="240" y="876" type="line"/>
    </contour>
  </outline>
</glyph>
<glyph name="acutecomb" format="2">
  <unicode hex="0301"/>
  <anchor x="41" y="990" name="_top"/>
  <anchor x="43" y="1457" name="top"/>
  <outline>
    <contour>
      <point x="-126" y="1173" type="line"/>
      <point x="-18" y="1173" type="line"/>
      <point x="208" y="1457" type="line"/>
      <point x="60" y="1457" type="line"/>
    </contour>
  </outline>
</glyph>
<glyph name="hookabovecomb" format="2">
  <unicode hex="0309"/>
  <anchor x="442" y="990" name="_top"/>
  <anchor x="444" y="1476" name="top"/>
  <outline>
    <contour>
      <point x="369" y="1131" type="line"/>
      <point x="479" y="1154"/>
      <point x="583" y="1202"/>
      <point x="583" y="1316" type="curve" smooth="yes"/>
      <point x="583" y="1420"/>
      <point x="475" y="1470"/>
      <point x="315" y="1476" type="curve"/>
      <point x="300" y="1392" type="line"/>
      <point x="413" y="1387"/>
      <point x="472" y="1357"/>
      <point x="472" y="1300" type="curve" smooth="yes"/>
      <point x="472" y="1246"/>
      <point x="420" y="1219"/>
      <point x="351" y="1199" type="curve"/>
    </contour>
  </outline>
</glyph>
<glyph name="dblgravecomb" format="2">
  <unicode hex="030F"/>
  <anchor x="-94" y="990" name="_top"/>
  <anchor x="-92" y="1457" name="top"/>
  <outline>
    <contour>
      <point x="-197" y="1168" type="line"/>
      <point x="-102" y="1168" type="line"/>
      <point x="-248" y="1457" type="line"/>
      <point x="-374" y="1457" type="line"/>
    </contour>
    <contour>
      <point x="92" y="1168" type="line"/>
      <point x="187" y="1168" type="line"/>
      <point x="42" y="1457" type="line"/>
      <point x="-84" y="1457" type="line"/>
    </contour>
  </outline>
</glyph>
<glyph name="horncomb" format="2">
  <unicode hex="031B"/>
  <anchor x="131" y="990" name="_topright"/>
  <anchor x="131" y="990" name="topright"/>
  <outline>
    <contour>
      <point x="-3" y="895" type="line"/>
      <point x="159" y="913"/>
      <point x="279" y="977"/>
      <point x="279" y="1117" type="curve" smooth="yes"/>
      <point x="279" y="1165"/>
      <point x="261" y="1206"/>
      <point x="235" y="1243" type="curve"/>
      <point x="134" y="1191" type="line"/>
      <point x="151" y="1164"/>
      <point x="163" y="1136"/>
      <point x="163" y="1108" type="curve" smooth="yes"/>
      <point x="163" y="1026"/>
      <point x="104" y="986"/>
      <point x="-17" y="970" type="curve"/>
    </contour>
  </outline>
</glyph>
<glyph name="macronbelowcomb" format="2">
  <unicode hex="0331"/>
  <anchor x="-2" y="-300" name="_btm"/>
  <outline>
    <contour>
      <point x="-247" y="-341" type="line"/>
      <point x="243" y="-341" type="line"/>
      <point x="243" y="-240" type="line"/>
      <point x="-247" y="-240" type="line"/>
    </contour>
  </outline>
</glyph>
<glyph name="anusvara-deva" format="2">
  <unicode hex="0902"/>
  <anchor x="271" y="1247" name="_candra"/>
  <outline>
    <contour>
      <point x="270" y="1453" type="curve" smooth="yes"/>
      <point x="328" y="1453"/>
      <point x="352" y="1477"/>
      <point x="352" y="1534" type="curve" smooth="yes"/>
      <point x="352" y="1591"/>
      <point x="328" y="1615"/>
      <point x="270" y="1615" type="curve" smooth="yes"/>
      <point x="213" y="1615"/>
      <point x="188" y="1591"/>
      <point x="188" y="1534" type="curve" smooth="yes"/>
      <point x="188" y="1477"/>
      <point x="213" y="1453"/>
    </contour>
  </outline>
</glyph>
<glyph name="u-deva" format="2">
  <advance width="877"/>
  <unicode hex="0909"/>
  <anchor x="432" y="40" name="bottom"/>
  <anchor x="447" y="1170" name="candra"/>
  <anchor x="451" y="1171" name="top"/>
  <outline>
    <contour>
      <point x="366" y="647" type="line"/>
      <point x="562" y="588"/>
      <point x="665" y="501"/>
      <point x="665" y="356" type="curve" smooth="yes"/>
      <point x="665" y="197"/>
      <point x="550" y="120"/>
      <point x="406" y="120" type="curve" smooth="yes"/>
      <point x="279" y="120"/>
      <point x="164" y="188"/>
      <point x="90" y="255" type="curve"/>
      <point x="28" y="178" type="line"/>
      <point x="120" y="84"/>
      <point x="259" y="9"/>
      <point x="419" y="9" type="curve" smooth="yes"/>
      <point x="621" y="9"/>
      <point x="791" y="133"/>
      <point x="791" y="351" type="curve" smooth="yes"/>
      <point x="791" y="525"/>
      <point x="671" y="647"/>
      <point x="440" y="687" type="curve"/>
    </contour>
    <contour>
      <point x="275" y="580" type="line"/>
      <point x="363" y="584"/>
      <point x="465" y="604"/>
      <point x="547" y="649" type="curve" smooth="yes"/>
      <point x="675" y="716"/>
      <point x="736" y="810"/>
      <point x="736" y="939" type="curve" smooth="yes"/>
      <point x="736" y="1139"/>
      <point x="559" y="1201"/>
      <point x="392" y="1197" type="curve"/>
      <point x="385" y="1146" type="line"/>
      <point x="492" y="1146"/>
      <point x="614" y="1087"/>
      <point x="614" y="943" type="curve" smooth="yes"/>
      <point x="614" y="815"/>
      <point x="538" y="732"/>
      <point x="355" y="695" type="curve" smooth="yes"/>
      <point x="329" y="689"/>
      <point x="309" y="685"/>
      <point x="259" y="680" type="curve"/>
    </contour>
    <contour>
      <point x="-12" y="1143" type="line"/>
      <point x="890" y="1143" type="line"/>
      <point x="890" y="1247" type="line"/>
      <point x="-12" y="1247" type="line"/>
    </contour>
  </outline>
</glyph>
<glyph name="e-deva" format="2">
  <advance width="1020"/>
  <unicode hex="090F"/>
  <anchor x="598" y="36" name="bottom"/>
  <anchor x="506" y="1247" name="candra"/>
  <anchor x="808" y="1172" name="top"/>
  <outline>
    <contour>
      <point x="651" y="-218" type="line"/>
      <point x="746" y="-138"/>
      <point x="765" y="-62"/>
      <point x="765" y="-1" type="curve" smooth="yes"/>
      <point x="766" y="78"/>
      <point x="715" y="155"/>
      <point x="625" y="240" type="curve" smooth="yes"/>
      <point x="383" y="465" type="line" smooth="yes"/>
      <point x="267" y="573"/>
      <point x="268" y="635"/>
      <point x="268" y="727" type="curve" smooth="yes"/>
      <point x="268" y="1176" type="line"/>
      <point x="143" y="1176" type="line"/>
      <point x="143" y="715" type="line" smooth="yes"/>
      <point x="143" y="535"/>
      <point x="200" y="472"/>
      <point x="319" y="361" type="curve" smooth="yes"/>
      <point x="561" y="135" type="line"/>
      <point x="613" y="85"/>
      <point x="643" y="37"/>
      <point x="643" y="-9" type="curve" smooth="yes"/>
      <point x="642" y="-58"/>
      <point x="618" y="-103"/>
      <point x="571" y="-148" type="curve"/>
    </contour>
    <contour>
      <point x="680" y="428" type="line"/>
      <point x="819" y="499"/>
      <point x="875" y="608"/>
      <point x="875" y="753" type="curve" smooth="yes"/>
      <point x="875" y="1194" type="line"/>
      <point x="749" y="1194" type="line"/>
      <point x="749" y="746" type="line" smooth="yes"/>
      <point x="749" y="656"/>
      <point x="725" y="585"/>
      <point x="608" y="524" type="curve"/>
    </contour>
    <contour>
      <point x="-15" y="1143" type="line"/>
      <point x="1034" y="1143" type="line"/>
      <point x="1034" y="1248" type="line"/>
      <point x="-15" y="1248" type="line"/>
    </contour>
  </outline>
</glyph>
<glyph name="ka-deva" format="2">
  <advance width="1491"/>
  <unicode hex="0915"/>
  <anchor x="785" y="28" name="bottom"/>
  <anchor x="783" y="1168" name="candra"/>
  <anchor x="337" y="44" name="nukta"/>
  <anchor x="786" y="1172" name="top"/>
  <outline>
    <contour>
      <point x="756" y="513" type="line"/>
      <point x="683" y="406"/>
      <point x="559" y="332"/>
      <point x="418" y="332" type="curve" smooth="yes"/>
      <point x="283" y="332"/>
      <point x="209" y="405"/>
      <point x="209" y="563" type="curve" smooth="yes"/>
      <point x="209" y="728"/>
      <point x="299" y="798"/>
      <point x="440" y="803" type="curve" smooth="yes"/>
      <point x="542" y="808"/>
      <point x="647" y="787"/>
      <point x="769" y="734" type="curve"/>
      <point x="769" y="821" type="line"/>
      <point x="671" y="883"/>
      <point x="552" y="915"/>
      <point x="440" y="915" type="curve" smooth="yes"/>
      <point x="208" y="915"/>
      <point x="79" y="797"/>
      <point x="79" y="568" type="curve" smooth="yes"/>
      <point x="79" y="372"/>
      <point x="192" y="223"/>
      <point x="410" y="223" type="curve" smooth="yes"/>
      <point x="557" y="223"/>
      <point x="695" y="288"/>
      <point x="778" y="392" type="curve"/>
    </contour>
    <contour>
      <point x="722" y="0" type="line"/>
      <point x="848" y="0" type="line"/>
      <point x="848" y="1196" type="line"/>
      <point x="722" y="1196" type="line"/>
    </contour>
    <contour>
      <point x="1267" y="168" type="line"/>
      <point x="1375" y="300"/>
      <point x="1411" y="440"/>
      <point x="1413" y="555" type="curve" smooth="yes"/>
      <point x="1420" y="754"/>
      <point x="1312" y="861"/>
      <point x="1148" y="861" type="curve" smooth="yes"/>
      <point x="1024" y="861"/>
      <point x="915" y="805"/>
      <point x="815" y="683" type="curve"/>
      <point x="815" y="506" type="line"/>
      <point x="936" y="670"/>
      <point x="1041" y="747"/>
      <point x="1139" y="747" type="curve" smooth="yes"/>
      <point x="1243" y="747"/>
      <point x="1303" y="696"/>
      <point x="1297" y="562" type="curve" smooth="yes"/>
      <point x="1293" y="470"/>
      <point x="1263" y="361"/>
      <point x="1172" y="240" type="curve"/>
    </contour>
    <contour>
      <point x="-12" y="1143" type="line"/>
      <point x="1504" y="1143" type="line"/>
      <point x="1504" y="1247" type="line"/>
      <point x="-12" y="1247" type="line"/>
    </contour>
  </outline>
</glyph>
<glyph name="ca-deva" format="2">
  <advance width="1220"/>
  <unicode hex="091A"/>
  <anchor x="944" y="28" name="bottom"/>
  <anchor x="642" y="1168" name="candra"/>
  <anchor x="329" y="44" name="nukta"/>
  <anchor x="942" y="1168" name="top"/>
  <outline>
    <contour>
      <point x="926" y="526" type="line"/>
      <point x="816" y="381"/>
      <point x="679" y="316"/>
      <point x="539" y="320" type="curve" smooth="yes"/>
      <point x="379" y="326"/>
      <point x="314" y="415"/>
      <point x="314" y="543" type="curve" smooth="yes"/>
      <point x="314" y="701"/>
      <point x="437" y="799"/>
      <point x="615" y="791" type="curve"/>
      <point x="585" y="852" type="line"/>
      <point x="415" y="828" type="line"/>
      <point x="276" y="798"/>
      <point x="183" y="692"/>
      <point x="183" y="535" type="curve" smooth="yes"/>
      <point x="183" y="359"/>
      <point x="296" y="214"/>
      <point x="530" y="210" type="curve" smooth="yes"/>
      <point x="697" y="207"/>
      <point x="853" y="280"/>
      <point x="948" y="401" type="curve"/>
    </contour>
    <contour>
      <point x="29" y="790" type="line"/>
      <point x="680" y="791" type="line"/>
      <point x="680" y="899" type="line"/>
      <point x="29" y="898" type="line"/>
    </contour>
    <contour>
      <point x="881" y="0" type="line"/>
      <point x="1007" y="0" type="line"/>
      <point x="1007" y="1193" type="line"/>
      <point x="881" y="1193" type="line"/>
    </contour>
    <contour>
      <point x="-12" y="1143" type="line"/>
      <point x="1233" y="1143" type="line"/>
      <point x="1233" y="1247" type="line"/>
      <point x="-12" y="1247" type="line"/>
    </contour>
  </outline>
</glyph>
<glyph name="ja-deva" format="2">
  <advance width="1418"/>
  <unicode hex="091C"/>
  <anchor x="1143" y="28" name="bottom"/>
  <anchor x="783" y="1168" name="candra"/>
  <anchor x="527" y="66" name="nukta"/>
  <anchor x="1145" y="1168" name="top"/>
  <outline>
    <contour>
      <point x="562" y="897" type="line"/>
      <point x="522" y="811" type="line"/>
      <point x="649" y="747"/>
      <point x="731" y="664"/>
      <point x="731" y="525" type="curve" smooth="yes"/>
      <point x="731" y="407"/>
      <point x="662" y="329"/>
      <point x="526" y="328" type="curve" smooth="yes"/>
      <point x="264" y="327"/>
      <point x="196" y="637"/>
      <point x="171" y="877" type="curve"/>
      <point x="65" y="863" type="line"/>
      <point x="93" y="482"/>
      <point x="220" y="210"/>
      <point x="529" y="210" type="curve" smooth="yes"/>
      <point x="734" y="210"/>
      <point x="857" y="330"/>
      <point x="857" y="510" type="curve" smooth="yes"/>
      <point x="857" y="666"/>
      <point x="779" y="759"/>
      <point x="642" y="832" type="curve"/>
    </contour>
    <contour>
      <point x="617" y="786" type="line"/>
      <point x="1156" y="786" type="line"/>
      <point x="1156" y="897" type="line"/>
      <point x="563" y="897" type="line"/>
    </contour>
    <contour>
      <point x="1078" y="0" type="line"/>
      <point x="1204" y="0" type="line"/>
      <point x="1204" y="1191" type="line"/>
      <point x="1078" y="1191" type="line"/>
    </contour>
    <contour>
      <point x="-12" y="1143" type="line"/>
      <point x="1431" y="1143" type="line"/>
      <point x="1431" y="1247" type="line"/>
      <point x="-12" y="1247" type="line"/>
    </contour>
  </outline>
</glyph>
<glyph name="nya-deva" format="2">
  <advance width="1455"/>
  <unicode hex="091E"/>
  <anchor x="1171" y="28" name="bottom"/>
  <anchor x="796" y="1168" name="candra"/>
  <anchor x="218" y="44" name="nukta"/>
  <anchor x="1171" y="1168" name="top"/>
  <outline>
    <contour>
      <point x="429" y="776" type="line"/>
      <point x="476" y="788"/>
      <point x="522" y="793"/>
      <point x="572" y="793" type="curve" smooth="yes"/>
      <point x="689" y="793"/>
      <point x="779" y="732"/>
      <point x="780" y="572" type="curve" smooth="yes"/>
      <point x="780" y="411"/>
      <point x="694" y="327"/>
      <point x="554" y="327" type="curve" smooth="yes"/>
      <point x="350" y="327"/>
      <point x="231" y="486"/>
      <point x="162" y="848" type="curve"/>
      <point x="57" y="825" type="line"/>
      <point x="133" y="370"/>
      <point x="327" y="211"/>
      <point x="554" y="211" type="curve" smooth="yes"/>
      <point x="778" y="211"/>
      <point x="899" y="349"/>
      <point x="899" y="568" type="curve" smooth="yes"/>
      <point x="899" y="782"/>
      <point x="770" y="909"/>
      <point x="563" y="909" type="curve" smooth="yes"/>
      <point x="507" y="909"/>
      <point x="459" y="903"/>
      <point x="403" y="881" type="curve"/>
    </contour>
    <contour>
      <point x="833" y="527" type="line"/>
      <point x="928" y="510"/>
      <point x="1132" y="543"/>
      <point x="1209" y="615" type="curve"/>
      <point x="1202" y="741" type="line"/>
      <point x="1075" y="645"/>
      <point x="914" y="616"/>
      <point x="807" y="629" type="curve"/>
    </contour>
    <contour>
      <point x="1108" y="0" type="line"/>
      <point x="1234" y="0" type="line"/>
      <point x="1234" y="1191" type="line"/>
      <point x="1108" y="1191" type="line"/>
    </contour>
    <contour>
      <point x="-12" y="1143" type="line"/>
      <point x="1468" y="1143" type="line"/>
      <point x="1468" y="1247" type="line"/>
      <point x="-12" y="1247" type="line"/>
    </contour>
  </outline>
</glyph>
<glyph name="tta-deva" format="2">
  <advance width="1017"/>
  <unicode hex="091F"/>
  <anchor x="580" y="70" name="bottom"/>
  <anchor x="558" y="1168" name="candra"/>
  <anchor x="106" y="44" name="nukta"/>
  <anchor x="783" y="1168" name="top"/>
  <outline>
    <contour>
      <point x="932" y="243" type="line"/>
      <point x="828" y="189"/>
      <point x="703" y="152"/>
      <point x="574" y="152" type="curve" smooth="yes"/>
      <point x="333" y="152"/>
      <point x="217" y="252"/>
      <point x="217" y="480" type="curve" smooth="yes"/>
      <point x="218" y="703"/>
      <point x="334" y="780"/>
      <point x="603" y="788" type="curve" smooth="yes"/>
      <point x="673" y="789"/>
      <point x="799" y="784"/>
      <point x="842" y="783" type="curve"/>
      <point x="842" y="1174" type="line"/>
      <point x="716" y="1174" type="line"/>
      <point x="716" y="843" type="line"/>
      <point x="752" y="888" type="line"/>
      <point x="694" y="898"/>
      <point x="605" y="901"/>
      <point x="564" y="901" type="curve" smooth="yes"/>
      <point x="237" y="901"/>
      <point x="85" y="751"/>
      <point x="85" y="483" type="curve" smooth="yes"/>
      <point x="85" y="169"/>
      <point x="302" y="36"/>
      <point x="569" y="36" type="curve" smooth="yes"/>
      <point x="715" y="36"/>
      <point x="871" y="72"/>
      <point x="973" y="135" type="curve"/>
    </contour>
    <contour>
      <point x="-12" y="1143" type="line"/>
      <point x="1030" y="1143" type="line"/>
      <point x="1030" y="1247" type="line"/>
      <point x="-12" y="1247" type="line"/>
    </contour>
  </outline>
</glyph>
<glyph name="ttha-deva" format="2">
  <advance width="1171"/>
  <unicode hex="0920"/>
  <anchor x="596" y="87" name="bottom"/>
  <anchor x="622" y="1168" name="candra"/>
  <anchor x="90" y="44" name="nukta"/>
  <anchor x="775" y="1168" name="top"/>
  <outline>
    <contour>
      <point x="589" y="35" type="curve" smooth="yes"/>
      <point x="916" y="35"/>
      <point x="1083" y="175"/>
      <point x="1083" y="464" type="curve" smooth="yes"/>
      <point x="1083" y="691"/>
      <point x="982" y="841"/>
      <point x="791" y="883" type="curve" smooth="yes"/>
      <point x="721" y="898"/>
      <point x="640" y="901"/>
      <point x="570" y="901" type="curve" smooth="yes"/>
      <point x="240" y="901"/>
      <point x="88" y="771"/>
      <point x="88" y="479" type="curve" smooth="yes"/>
      <point x="88" y="192"/>
      <point x="264" y="35"/>
    </contour>
    <contour>
      <point x="587" y="150" type="curve" smooth="yes"/>
      <point x="332" y="150"/>
      <point x="221" y="254"/>
      <point x="221" y="468" type="curve" smooth="yes"/>
      <point x="221" y="690"/>
      <point x="323" y="787"/>
      <point x="573" y="787" type="curve" smooth="yes"/>
      <point x="650" y="787"/>
      <point x="740" y="784"/>
      <point x="813" y="751" type="curve" smooth="yes"/>
      <point x="904" y="708"/>
      <point x="952" y="619"/>
      <point x="951" y="467" type="curve" smooth="yes"/>
      <point x="950" y="252"/>
      <point x="832" y="150"/>
    </contour>
    <contour>
      <point x="-12" y="1143" type="line"/>
      <point x="1184" y="1143" type="line"/>
      <point x="1184" y="1247" type="line"/>
      <point x="-12" y="1247" type="line"/>
    </contour>
    <contour>
      <point x="841" y="852" type="line"/>
      <point x="841" y="1182" type="line"/>
      <point x="715" y="1182" type="line"/>
      <point x="714" y="862" type="line"/>
    </contour>
  </outline>
</glyph>
<glyph name="nna-deva" format="2">
  <advance width="1501"/>
  <unicode hex="0923"/>
  <anchor x="1226" y="28" name="bottom"/>
  <anchor x="762" y="1168" name="candra"/>
  <anchor x="274" y="44" name="nukta"/>
  <anchor x="1224" y="1168" name="top"/>
  <outline>
    <contour>
      <point x="834" y="1180" type="line"/>
      <point x="708" y="1180" type="line"/>
      <point x="708" y="691" type="line" smooth="yes"/>
      <point x="708" y="534"/>
      <point x="651" y="439"/>
      <point x="480" y="439" type="curve" smooth="yes"/>
      <point x="317" y="439"/>
      <point x="260" y="527"/>
      <point x="260" y="692" type="curve" smooth="yes"/>
      <point x="260" y="1180" type="line"/>
      <point x="134" y="1180" type="line"/>
      <point x="134" y="700" type="line" smooth="yes"/>
      <point x="134" y="457"/>
      <point x="252" y="327"/>
      <point x="482" y="327" type="curve" smooth="yes"/>
      <point x="713" y="327"/>
      <point x="834" y="459"/>
      <point x="834" y="695" type="curve" smooth="yes"/>
    </contour>
    <contour>
      <point x="1161" y="0" type="line"/>
      <point x="1287" y="0" type="line"/>
      <point x="1287" y="1196" type="line"/>
      <point x="1161" y="1196" type="line"/>
    </contour>
    <contour>
      <point x="-12" y="1143" type="line"/>
      <point x="1514" y="1143" type="line"/>
      <point x="1514" y="1247" type="line"/>
      <point x="-12" y="1247" type="line"/>
    </contour>
  </outline>
</glyph>
<glyph name="tha-deva" format="2">
  <advance width="1209"/>
  <unicode hex="0925"/>
  <anchor x="932" y="28" name="bottom"/>
  <anchor x="667" y="1168" name="candra"/>
  <anchor x="202" y="111" name="nukta"/>
  <anchor x="932" y="1168" name="top"/>
  <outline>
    <contour>
      <point x="880" y="565" type="line"/>
      <point x="787" y="419"/>
      <point x="659" y="373"/>
      <point x="549" y="373" type="curve" smooth="yes"/>
      <point x="397" y="373"/>
      <point x="264" y="462"/>
      <point x="225" y="650" type="curve"/>
      <point x="210" y="593" type="line"/>
      <point x="357" y="639"/>
      <point x="592" y="765"/>
      <point x="592" y="991" type="curve" smooth="yes"/>
      <point x="592" y="1120"/>
      <point x="511" y="1267"/>
      <point x="318" y="1267" type="curve" smooth="yes"/>
      <point x="150" y="1267"/>
      <point x="70" y="1171"/>
      <point x="74" y="1063" type="curve" smooth="yes"/>
      <point x="77" y="990"/>
      <point x="121" y="918"/>
      <point x="216" y="864" type="curve"/>
      <point x="268" y="928" type="line"/>
      <point x="207" y="977"/>
      <point x="185" y="1009"/>
      <point x="185" y="1055" type="curve" smooth="yes"/>
      <point x="185" y="1115"/>
      <point x="227" y="1165"/>
      <point x="318" y="1165" type="curve" smooth="yes"/>
      <point x="406" y="1165"/>
      <point x="468" y="1104"/>
      <point x="468" y="1002" type="curve" smooth="yes"/>
      <point x="468" y="831"/>
      <point x="290" y="730"/>
      <point x="104" y="673" type="curve"/>
      <point x="163" y="377"/>
      <point x="350" y="257"/>
      <point x="546" y="257" type="curve" smooth="yes"/>
      <point x="673" y="257"/>
      <point x="808" y="307"/>
      <point x="893" y="420" type="curve"/>
    </contour>
    <contour>
      <point x="869" y="0" type="line"/>
      <point x="995" y="0" type="line"/>
      <point x="995" y="1182" type="line"/>
      <point x="869" y="1182" type="line"/>
    </contour>
    <contour>
      <point x="728" y="1143" type="line"/>
      <point x="1221" y="1143" type="line"/>
      <point x="1221" y="1247" type="line"/>
      <point x="728" y="1247" type="line"/>
    </contour>
  </outline>
</glyph>
<glyph name="pha-deva" format="2">
  <advance width="1565"/>
  <unicode hex="092B"/>
  <anchor x="860" y="28" name="bottom"/>
  <anchor x="861" y="1168" name="candra"/>
  <anchor x="370" y="88" name="nukta"/>
  <anchor x="860" y="1168" name="top"/>
  <outline>
    <contour>
      <point x="827" y="639" type="line"/>
      <point x="729" y="507"/>
      <point x="605" y="447"/>
      <point x="495" y="446" type="curve" smooth="yes"/>
      <point x="344" y="445"/>
      <point x="292" y="534"/>
      <point x="292" y="683" type="curve" smooth="yes"/>
      <point x="292" y="1186" type="line"/>
      <point x="165" y="1186" type="line"/>
      <point x="165" y="700" type="line" smooth="yes"/>
      <point x="165" y="457"/>
      <point x="276" y="332"/>
      <point x="489" y="332" type="curve" smooth="yes"/>
      <point x="604" y="332"/>
      <point x="753" y="391"/>
      <point x="843" y="515" type="curve"/>
    </contour>
    <contour>
      <point x="797" y="0" type="line"/>
      <point x="923" y="0" type="line"/>
      <point x="923" y="1191" type="line"/>
      <point x="797" y="1191" type="line"/>
    </contour>
    <contour>
      <point x="1343" y="168" type="line"/>
      <point x="1450" y="300"/>
      <point x="1489" y="440"/>
      <point x="1489" y="555" type="curve" smooth="yes"/>
      <point x="1489" y="736"/>
      <point x="1388" y="861"/>
      <point x="1223" y="861" type="curve" smooth="yes"/>
      <point x="1100" y="861"/>
      <point x="990" y="805"/>
      <point x="890" y="683" type="curve"/>
      <point x="882" y="509" type="line"/>
      <point x="1004" y="669"/>
      <point x="1112" y="747"/>
      <point x="1215" y="747" type="curve" smooth="yes"/>
      <point x="1319" y="747"/>
      <point x="1371" y="676"/>
      <point x="1371" y="560" type="curve" smooth="yes"/>
      <point x="1371" y="468"/>
      <point x="1334" y="357"/>
      <point x="1244" y="236" type="curve"/>
    </contour>
    <contour>
      <point x="-12" y="1143" type="line"/>
      <point x="1578" y="1143" type="line"/>
      <point x="1578" y="1247" type="line"/>
      <point x="-12" y="1247" type="line"/>
    </contour>
  </outline>
</glyph>
<glyph name="ba-deva" format="2">
  <advance width="1103"/>
  <unicode hex="092C"/>
  <anchor x="826" y="28" name="bottom"/>
  <anchor x="580" y="1168" name="candra"/>
  <anchor x="248" y="44" name="nukta"/>
  <anchor x="826" y="1168" name="top"/>
  <outline>
    <contour>
      <point x="803" y="482" type="line"/>
      <point x="698" y="371"/>
      <point x="596" y="312"/>
      <point x="435" y="312" type="curve" smooth="yes"/>
      <point x="283" y="312"/>
      <point x="212" y="390"/>
      <point x="212" y="574" type="curve" smooth="yes"/>
      <point x="212" y="764"/>
      <point x="277" y="824"/>
      <point x="448" y="830" type="curve" smooth="yes"/>
      <point x="567" y="834"/>
      <point x="674" y="815"/>
      <point x="811" y="754" type="curve"/>
      <point x="805" y="855" type="line"/>
      <point x="676" y="912"/>
      <point x="570" y="933"/>
      <point x="460" y="933" type="curve" smooth="yes"/>
      <point x="217" y="933"/>
      <point x="87" y="813"/>
      <point x="87" y="576" type="curve" smooth="yes"/>
      <point x="87" y="320"/>
      <point x="235" y="209"/>
      <point x="436" y="209" type="curve" smooth="yes"/>
      <point x="588" y="209"/>
      <point x="717" y="262"/>
      <point x="816" y="374" type="curve"/>
    </contour>
    <contour>
      <point x="695" y="316" type="line"/>
      <point x="758" y="384" type="line"/>
      <point x="284" y="867" type="line"/>
      <point x="220" y="798" type="line"/>
    </contour>
    <contour>
      <point x="763" y="0" type="line"/>
      <point x="889" y="0" type="line"/>
      <point x="889" y="1193" type="line"/>
      <point x="763" y="1193" type="line"/>
    </contour>
    <contour>
      <point x="-12" y="1143" type="line"/>
      <point x="1116" y="1143" type="line"/>
      <point x="1116" y="1247" type="line"/>
      <point x="-12" y="1247" type="line"/>
    </contour>
  </outline>
</glyph>
<glyph name="ma-deva" format="2">
  <advance width="1173"/>
  <unicode hex="092E"/>
  <anchor x="896" y="28" name="bottom"/>
  <anchor x="617" y="1168" name="candra"/>
  <anchor x="344" y="44" name="nukta"/>
  <anchor x="896" y="1168" name="top"/>
  <outline>
    <contour>
      <point x="833" y="0" type="line"/>
      <point x="959" y="0" type="line"/>
      <point x="959" y="1177" type="line"/>
      <point x="833" y="1177" type="line"/>
    </contour>
    <contour>
      <point x="235" y="308" type="line"/>
      <point x="325" y="311"/>
      <point x="343" y="360"/>
      <point x="343" y="418" type="curve" smooth="yes"/>
      <point x="343" y="608" type="line"/>
      <point x="233" y="608" type="line"/>
      <point x="65" y="588" type="line"/>
      <point x="65" y="498" type="line"/>
    </contour>
    <contour>
      <point x="217" y="447" type="line"/>
      <point x="343" y="558" type="line"/>
      <point x="343" y="1164" type="line"/>
      <point x="217" y="1163" type="line"/>
    </contour>
    <contour>
      <point x="223" y="489" type="line"/>
      <point x="927" y="489" type="line"/>
      <point x="927" y="600" type="line"/>
      <point x="223" y="600" type="line"/>
    </contour>
    <contour>
      <point x="-12" y="1143" type="line"/>
      <point x="1186" y="1143" type="line"/>
      <point x="1186" y="1247" type="line"/>
      <point x="-12" y="1247" type="line"/>
    </contour>
  </outline>
</glyph>
<glyph name="ra-deva" format="2">
  <advance width="650"/>
  <unicode hex="0930"/>
  <anchor x="479" y="31" name="bottom"/>
  <anchor x="410" y="1168" name="candra"/>
  <anchor x="121" y="163" name="nukta"/>
  <anchor x="411" y="1168" name="top"/>
  <outline>
    <contour>
      <point x="478" y="-26" type="line"/>
      <point x="578" y="47" type="line"/>
      <point x="178" y="623" type="line"/>
      <point x="141" y="617" type="line"/>
      <point x="163" y="588"/>
      <point x="223" y="568"/>
      <point x="275" y="568" type="curve" smooth="yes"/>
      <point x="400" y="568"/>
      <point x="477" y="644"/>
      <point x="477" y="824" type="curve" smooth="yes"/>
      <point x="477" y="1192" type="line"/>
      <point x="351" y="1191" type="line"/>
      <point x="351" y="818" type="line" smooth="yes"/>
      <point x="351" y="718"/>
      <point x="324" y="667"/>
      <point x="237" y="667" type="curve" smooth="yes"/>
      <point x="202" y="667"/>
      <point x="156" y="678"/>
      <point x="117" y="707" type="curve"/>
      <point x="39" y="643" type="line"/>
    </contour>
    <contour>
      <point x="-12" y="1143" type="line"/>
      <point x="663" y="1143" type="line"/>
      <point x="663" y="1247" type="line"/>
      <point x="-12" y="1247" type="line"/>
    </contour>
  </outline>
</glyph>
<glyph name="oeMatra-deva" format="2">
  <unicode hex="093A"/>
  <outline>
    <contour>
      <point x="208" y="1113" type="line"/>
      <point x="333" y="1113" type="line"/>
      <point x="333" y="1458" type="line"/>
      <point x="208" y="1458" type="line"/>
    </contour>
  </outline>
</glyph>
<glyph name="ooeMatra-deva" format="2">
  <advance width="554"/>
  <unicode hex="093B"/>
  <anchor x="277" y="28" name="bottom"/>
  <anchor x="276" y="1167" name="candra"/>
  <anchor x="277" y="1168" name="top"/>
  <outline>
    <contour>
      <point x="214" y="1113" type="line"/>
      <point x="339" y="1113" type="line"/>
      <point x="339" y="1458" type="line"/>
      <point x="214" y="1458" type="line"/>
    </contour>
    <component base="aaMatra-deva"/>
  </outline>
</glyph>
<glyph name="uuMatra-deva" format="2">
  <unicode hex="0942"/>
  <anchor x="270" y="28" name="_bottom"/>
  <outline>
    <contour>
      <point x="394" y="-343" type="line"/>
      <point x="331" y="-369"/>
      <point x="279" y="-377"/>
      <point x="236" y="-377" type="curve" smooth="yes"/>
      <point x="146" y="-377"/>
      <point x="81" y="-345"/>
      <point x="81" y="-233" type="curve" smooth="yes"/>
      <point x="81" y="-139"/>
      <point x="144" y="-77"/>
      <point x="264" y="-77" type="curve" smooth="yes"/>
      <point x="393" y="-77"/>
      <point x="507" y="-118"/>
      <point x="678" y="-316" type="curve"/>
      <point x="740" y="-254" type="line"/>
      <point x="554" y="-20"/>
      <point x="407" y="33"/>
      <point x="264" y="33" type="curve" smooth="yes"/>
      <point x="73" y="33"/>
      <point x="-39" y="-80"/>
      <point x="-39" y="-232" type="curve" smooth="yes"/>
      <point x="-39" y="-369"/>
      <point x="57" y="-484"/>
      <point x="236" y="-484" type="curve" smooth="yes"/>
      <point x="287" y="-484"/>
      <point x="355" y="-475"/>
      <point x="427" y="-440" type="curve"/>
    </contour>
  </outline>
</glyph>
<glyph name="rVocalicMatra-deva" format="2">
  <unicode hex="0943"/>
  <anchor x="277" y="28" name="_bottom"/>
  <outline>
    <contour>
      <point x="496" y="-226" type="line"/>
      <point x="435" y="-270"/>
      <point x="351" y="-307"/>
      <point x="271" y="-309" type="curve" smooth="yes"/>
      <point x="181" y="-309"/>
      <point x="119" y="-267"/>
      <point x="119" y="-184" type="curve" smooth="yes"/>
      <point x="119" y="-89"/>
      <point x="194" y="-36"/>
      <point x="341" y="1" type="curve"/>
      <point x="297" y="88" type="line"/>
      <point x="110" y="51"/>
      <point x="0" y="-54"/>
      <point x="0" y="-187" type="curve"/>
      <point x="0" y="-338"/>
      <point x="135" y="-412"/>
      <point x="263" y="-412" type="curve" smooth="yes"/>
      <point x="373" y="-412"/>
      <point x="472" y="-369"/>
      <point x="545" y="-314" type="curve"/>
    </contour>
  </outline>
</glyph>
<glyph name="eMatra-deva" format="2">
  <unicode hex="0947"/>
  <anchor x="266" y="1247" name="_top"/>
  <anchor x="476" y="1299" name="candra"/>
  <anchor x="458" y="1247" name="top"/>
  <outline>
    <contour>
      <point x="235" y="1206" type="line"/>
      <point x="326" y="1244" type="line"/>
      <point x="141" y="1704"/>
      <point x="56" y="1790"/>
      <point x="-219" y="1790" type="curve" smooth="yes"/>
      <point x="-270" y="1790"/>
      <point x="-309" y="1786"/>
      <point x="-365" y="1775" type="curve"/>
      <point x="-345" y="1667" type="line"/>
      <point x="-308" y="1674"/>
      <point x="-265" y="1678"/>
      <point x="-199" y="1678" type="curve" smooth="yes"/>
      <point x="5" y="1678"/>
      <point x="72" y="1560"/>
      <point x="216" y="1247" type="curve" smooth="yes"/>
    </contour>
  </outline>
</glyph>
<glyph name="halant-deva" format="2">
  <unicode hex="094D"/>
  <anchor x="135" y="68" name="_bottom"/>
  <outline>
    <contour>
      <point x="605" y="-396" type="line"/>
      <point x="353" y="-135"/>
      <point x="250" y="-89"/>
      <point x="88" y="-89" type="curve" smooth="yes"/>
      <point x="32" y="-89"/>
      <point x="-9" y="-94"/>
      <point x="-69" y="-105" type="curve"/>
      <point x="-49" y="-220" type="line"/>
      <point x="12" y="-210"/>
      <point x="51" y="-208"/>
      <point x="105" y="-208" type="curve" smooth="yes"/>
      <point x="236" y="-208"/>
      <point x="310" y="-230"/>
      <point x="543" y="-456" type="curve"/>
    </contour>
  </outline>
</glyph>
<glyph name="grave-deva" format="2">
  <unicode hex="0953"/>
  <outline>
    <contour>
      <point x="-315" y="1320" type="line"/>
      <point x="-252" y="1388" type="line"/>
      <point x="-633" y="1765" type="line"/>
      <point x="-715" y="1692" type="line"/>
    </contour>
  </outline>
</glyph>
<glyph name="danda-deva" format="2">
  <advance width="600"/>
  <unicode hex="0964"/>
  <outline>
    <contour>
      <point x="255" y="0" type="line"/>
      <point x="381" y="0" type="line"/>
      <point x="381" y="1247" type="line"/>
      <point x="255" y="1247" type="line"/>
    </contour>
  </outline>
</glyph>
<glyph name="dbldanda-deva" format="2">
  <advance width="685"/>
  <unicode hex="0965"/>
  <outline>
    <contour>
      <point x="383" y="0" type="line"/>
      <point x="509" y="0" type="line"/>
      <point x="509" y="1247" type="line"/>
      <point x="383" y="1247" type="line"/>
    </contour>
    <contour>
      <point x="123" y="0" type="line"/>
      <point x="249" y="0" type="line"/>
      <point x="249" y="1247" type="line"/>
      <point x="123" y="1247" type="line"/>
    </contour>
  </outline>
</glyph>
<glyph name="one-deva" format="2">
  <advance width="767"/>
  <unicode hex="0967"/>
  <outline>
    <contour>
      <point x="570" y="-172" type="line"/>
      <point x="679" y="-91" type="line"/>
      <point x="210" y="478" type="line"/>
      <point x="241" y="394" type="line"/>
      <point x="494" y="541"/>
      <point x="693" y="716"/>
      <point x="697" y="964" type="curve" smooth="yes"/>
      <point x="701" y="1173"/>
      <point x="565" y="1269"/>
      <point x="385" y="1269" type="curve" smooth="yes"/>
      <point x="202" y="1269"/>
      <point x="89" y="1170"/>
      <point x="89" y="1014" type="curve" smooth="yes"/>
      <point x="89" y="805"/>
      <point x="296" y="687"/>
      <point x="489" y="666" type="curve"/>
      <point x="536" y="737" type="line"/>
      <point x="343" y="778"/>
      <point x="209" y="861"/>
      <point x="212" y="1006" type="curve" smooth="yes"/>
      <point x="215" y="1094"/>
      <point x="268" y="1159"/>
      <point x="392" y="1159" type="curve" smooth="yes"/>
      <point x="512" y="1159"/>
      <point x="575" y="1098"/>
      <point x="575" y="974" type="curve" smooth="yes"/>
      <point x="575" y="778"/>
      <point x="411" y="615"/>
      <point x="144" y="471" type="curve"/>
      <point x="140" y="396" type="line"/>
    </contour>
  </outline>
</glyph>
<glyph name="three-deva" format="2">
  <advance width="888"/>
  <unicode hex="0969"/>
  <outline>
    <contour>
      <point x="471" y="-156" type="line"/>
      <point x="562" y="-79" type="line"/>
      <point x="330" y="165" type="line"/>
      <point x="332" y="135" type="line"/>
      <point x="356" y="133"/>
      <point x="366" y="132"/>
      <point x="403" y="134" type="curve" smooth="yes"/>
      <point x="601" y="141"/>
      <point x="785" y="243"/>
      <point x="785" y="448" type="curve" smooth="yes"/>
      <point x="785" y="588"/>
      <point x="717" y="694"/>
      <point x="563" y="747" type="curve"/>
      <point x="569" y="717" type="line"/>
      <point x="670" y="773"/>
      <point x="724" y="865"/>
      <point x="724" y="981" type="curve" smooth="yes"/>
      <point x="724" y="1165"/>
      <point x="597" y="1269"/>
      <point x="396" y="1269" type="curve" smooth="yes"/>
      <point x="307" y="1269"/>
      <point x="199" y="1250"/>
      <point x="107" y="1210" type="curve"/>
      <point x="148" y="1106" type="line"/>
      <point x="224" y="1138"/>
      <point x="299" y="1157"/>
      <point x="385" y="1157" type="curve" smooth="yes"/>
      <point x="521" y="1157"/>
      <point x="600" y="1101"/>
      <point x="600" y="983" type="curve" smooth="yes"/>
      <point x="600" y="869"/>
      <point x="527" y="769"/>
      <point x="256" y="766" type="curve"/>
      <point x="263" y="662" type="line"/>
      <point x="278" y="661"/>
      <point x="285" y="660"/>
      <point x="310" y="660" type="curve" smooth="yes"/>
      <point x="394" y="660"/>
      <point x="466" y="673"/>
      <point x="526" y="696" type="curve"/>
      <point x="468" y="703" type="line"/>
      <point x="594" y="650"/>
      <point x="658" y="577"/>
      <point x="658" y="460" type="curve" smooth="yes"/>
      <point x="658" y="312"/>
      <point x="523" y="240"/>
      <point x="361" y="240" type="curve" smooth="yes"/>
      <point x="321" y="240"/>
      <point x="289" y="244"/>
      <point x="262" y="249" type="curve"/>
      <point x="315" y="210" type="line"/>
      <point x="172" y="386" type="line"/>
      <point x="92" y="386" type="line"/>
      <point x="61" y="335"/>
      <point x="50" y="295"/>
      <point x="51" y="264" type="curve" smooth="yes"/>
      <point x="52" y="188"/>
      <point x="121" y="147"/>
      <point x="253" y="135" type="curve"/>
    </contour>
  </outline>
</glyph>
<glyph name="uue-deva" format="2">
  <advance width="1386"/>
  <unicode hex="0977"/>
  <anchor x="1102" y="28" name="bottom"/>
  <anchor x="1100" y="1247" name="candra"/>
  <anchor x="1095" y="1168" name="top"/>
  <outline>
    <contour>
      <point x="821" y="68" type="line"/>
      <point x="779" y="2"/>
      <point x="711" y="-62"/>
      <point x="593" y="-62" type="curve" smooth="yes"/>
      <point x="470" y="-62"/>
      <point x="406" y="-6"/>
      <point x="361" y="66" type="curve"/>
      <point x="295" y="18" type="line"/>
      <point x="342" y="-79"/>
      <point x="440" y="-173"/>
      <point x="598" y="-173" type="curve" smooth="yes"/>
      <point x="733" y="-173"/>
      <point x="837" y="-103"/>
      <point x="898" y="21" type="curve"/>
    </contour>
    <contour>
      <point x="826" y="-192" type="line"/>
      <point x="784" y="-258"/>
      <point x="716" y="-322"/>
      <point x="598" y="-322" type="curve" smooth="yes"/>
      <point x="475" y="-322"/>
      <point x="411" y="-266"/>
      <point x="366" y="-194" type="curve"/>
      <point x="300" y="-242" type="line"/>
      <point x="347" y="-339"/>
      <point x="445" y="-433"/>
      <point x="603" y="-433" type="curve" smooth="yes"/>
      <point x="738" y="-433"/>
      <point x="842" y="-363"/>
      <point x="903" y="-239" type="curve"/>
    </contour>
    <component base="a-deva"/>
  </outline>
</glyph>
<glyph name="jjya-deva" format="2">
  <advance width="1139"/>
  <unicode hex="097A"/>
  <anchor x="864" y="28" name="bottom"/>
  <anchor x="584" y="1168" name="candra"/>
  <anchor x="352" y="48" name="nukta"/>
  <anchor x="864" y="1168" name="top"/>
  <outline>
    <contour>
      <point x="834" y="597" type="line"/>
      <point x="747" y="454"/>
      <point x="619" y="384"/>
      <point x="477" y="384" type="curve" smooth="yes"/>
      <point x="320" y="384"/>
      <point x="229" y="460"/>
      <point x="167" y="652" type="curve"/>
      <point x="140" y="586" type="line"/>
      <point x="384" y="666"/>
      <point x="423" y="783"/>
      <point x="423" y="858" type="curve" smooth="yes"/>
      <point x="423" y="952"/>
      <point x="363" y="1050"/>
      <point x="264" y="1160" type="curve"/>
      <point x="187" y="1156" type="line"/>
      <point x="273" y="1070"/>
      <point x="316" y="1008"/>
      <point x="313" y="908" type="curve" smooth="yes"/>
      <point x="308" y="820"/>
      <point x="248" y="739"/>
      <point x="55" y="670" type="curve"/>
      <point x="109" y="417"/>
      <point x="255" y="269"/>
      <point x="481" y="269" type="curve" smooth="yes"/>
      <point x="604" y="269"/>
      <point x="746" y="324"/>
      <point x="831" y="432" type="curve"/>
    </contour>
    <contour>
      <point x="840" y="495" type="line"/>
      <point x="910" y="564" type="line"/>
      <point x="304" y="1181" type="line"/>
      <point x="239" y="1118" type="line"/>
    </contour>
    <contour>
      <point x="800" y="0" type="line"/>
      <point x="926" y="0" type="line"/>
      <point x="926" y="1199" type="line"/>
      <point x="800" y="1199" type="line"/>
    </contour>
    <contour>
      <point x="-12" y="1143" type="line"/>
      <point x="1152" y="1143" type="line"/>
      <point x="1152" y="1247" type="line"/>
      <point x="-12" y="1247" type="line"/>
    </contour>
  </outline>
</glyph>
<glyph name="gga-deva" format="2">
  <advance width="1137"/>
  <unicode hex="097B"/>
  <anchor x="860" y="28" name="bottom"/>
  <anchor x="608" y="1168" name="candra"/>
  <anchor x="320" y="127" name="nukta"/>
  <anchor x="861" y="1168" name="top"/>
  <outline>
    <contour>
      <point x="90" y="-52" type="line"/>
      <point x="923" y="-52" type="line"/>
      <point x="923" y="50" type="line"/>
      <point x="90" y="50" type="line"/>
    </contour>
    <component base="ga-deva"/>
  </outline>
</glyph>
<glyph name="bba-deva" format="2">
  <advance width="1103"/>
  <unicode hex="097F"/>
  <anchor x="826" y="28" name="bottom"/>
  <anchor x="580" y="1168" name="candra"/>
  <anchor x="248" y="44" name="nukta"/>
  <anchor x="826" y="1168" name="top"/>
  <outline>
    <contour>
      <point x="90" y="-52" type="line"/>
      <point x="889" y="-52" type="line"/>
      <point x="889" y="50" type="line"/>
      <point x="90" y="50" type="line"/>
    </contour>
    <component base="ba-deva"/>
  </outline>
</glyph>
<glyph name="b.sups" format="2">
  <advance width="760"/>
  <unicode hex="1D47"/>
  <outline>
    <contour>
      <point x="217" y="1230" type="line"/>
      <point x="217" y="1496" type="line"/>
      <point x="111" y="1496" type="line"/>
      <point x="111" y="532" type="line"/>
      <point x="194" y="532" type="line"/>
      <point x="204" y="597" type="line"/>
      <point x="213" y="597" type="line"/>
      <point x="271" y="545"/>
      <point x="341" y="516"/>
      <point x="403" y="516" type="curve" smooth="yes"/>
      <point x="556" y="516"/>
      <point x="689" y="647"/>
      <point x="689" y="872" type="curve" smooth="yes"/>
      <point x="689" y="1075"/>
      <point x="597" y="1205"/>
      <point x="423" y="1205" type="curve" smooth="yes"/>
      <point x="344" y="1205"/>
      <point x="276" y="1161"/>
      <point x="212" y="1108" type="curve"/>
    </contour>
    <contour>
      <point x="217" y="1021" type="line"/>
      <point x="280" y="1080"/>
      <point x="343" y="1115"/>
      <point x="400" y="1115" type="curve" smooth="yes"/>
      <point x="525" y="1115"/>
      <point x="579" y="1018"/>
      <point x="579" y="871" type="curve" smooth="yes"/>
      <point x="579" y="705"/>
      <point x="498" y="606"/>
      <point x="391" y="606" type="curve" smooth="yes"/>
      <point x="340" y="606"/>
      <point x="276" y="625"/>
      <point x="217" y="677" type="curve"/>
    </contour>
  </outline>
</glyph>
<glyph name="g.sups" format="2">
  <advance width="693"/>
  <unicode hex="1D4D"/>
  <outline>
    <contour>
      <point x="310" y="613" type="line"/>
      <point x="222" y="613"/>
      <point x="193" y="640"/>
      <point x="193" y="683" type="curve" smooth="yes"/>
      <point x="193" y="719"/>
      <point x="212" y="741"/>
      <point x="236" y="761" type="curve"/>
      <point x="268" y="742"/>
      <point x="305" y="736"/>
      <point x="338" y="736" type="curve" smooth="yes"/>
      <point x="472" y="736"/>
      <point x="582" y="825"/>
      <point x="582" y="968" type="curve" smooth="yes"/>
      <point x="582" y="1019"/>
      <point x="559" y="1072"/>
      <point x="529" y="1101" type="curve"/>
      <point x="662" y="1101" type="line"/>
      <point x="662" y="1186" type="line"/>
      <point x="441" y="1186" type="line"/>
      <point x="411" y="1198"/>
      <point x="379" y="1205"/>
      <point x="338" y="1205" type="curve" smooth="yes"/>
      <point x="201" y="1205"/>
      <point x="87" y="1113"/>
      <point x="87" y="970" type="curve" smooth="yes"/>
      <point x="87" y="892"/>
      <point x="129" y="828"/>
      <point x="173" y="795" type="curve"/>
      <point x="173" y="786" type="line"/>
      <point x="138" y="763"/>
      <point x="100" y="720"/>
      <point x="100" y="669" type="curve" smooth="yes"/>
      <point x="100" y="617"/>
      <point x="125" y="582"/>
      <point x="159" y="560" type="curve"/>
      <point x="159" y="552" type="line"/>
      <point x="97" y="513"/>
      <point x="65" y="465"/>
      <point x="65" y="407" type="curve" smooth="yes"/>
      <point x="65" y="292"/>
      <point x="172" y="230"/>
      <point x="337" y="230" type="curve" smooth="yes"/>
      <point x="544" y="230"/>
      <point x="671" y="335"/>
      <point x="671" y="455" type="curve" smooth="yes"/>
      <point x="671" y="566"/>
      <point x="598" y="613"/>
      <point x="442" y="613" type="curve" smooth="yes"/>
    </contour>
    <contour>
      <point x="431" y="521" type="line"/>
      <point x="518" y="521"/>
      <point x="568" y="501"/>
      <point x="568" y="441" type="curve" smooth="yes"/>
      <point x="568" y="371"/>
      <point x="481" y="308"/>
      <point x="354" y="308" type="curve" smooth="yes"/>
      <point x="231" y="308"/>
      <point x="158" y="349"/>
      <point x="158" y="422" type="curve" smooth="yes"/>
      <point x="158" y="461"/>
      <point x="183" y="499"/>
      <point x="228" y="530" type="curve"/>
      <point x="257" y="521"/>
      <point x="293" y="521"/>
      <point x="313" y="521" type="curve" smooth="yes"/>
    </contour>
    <contour>
      <point x="338" y="812" type="curve" smooth="yes"/>
      <point x="251" y="812"/>
      <point x="189" y="875"/>
      <point x="189" y="970" type="curve" smooth="yes"/>
      <point x="189" y="1067"/>
      <point x="251" y="1124"/>
      <point x="338" y="1124" type="curve" smooth="yes"/>
      <point x="417" y="1124"/>
      <point x="485" y="1066"/>
      <point x="485" y="970" type="curve" smooth="yes"/>
      <point x="485" y="875"/>
      <point x="417" y="812"/>
    </contour>
  </outline>
</glyph>
<glyph name="k.sups" format="2">
  <advance width="673"/>
  <unicode hex="1D4F"/>
  <outline>
    <contour>
      <point x="111" y="532" type="line"/>
      <point x="217" y="532" type="line"/>
      <point x="217" y="699" type="line"/>
      <point x="342" y="848" type="line"/>
      <point x="543" y="532" type="line"/>
      <point x="663" y="532" type="line"/>
      <point x="406" y="922" type="line"/>
      <point x="632" y="1189" type="line"/>
      <point x="511" y="1189" type="line"/>
      <point x="226" y="842" type="line"/>
      <point x="217" y="842" type="line"/>
      <point x="217" y="1496" type="line"/>
      <point x="111" y="1496" type="line"/>
    </contour>
  </outline>
</glyph>
<glyph name="m.sups" format="2">
  <advance width="1136"/>
  <unicode hex="1D50"/>
  <outline>
    <contour>
      <point x="111" y="532" type="line"/>
      <point x="217" y="532" type="line"/>
      <point x="217" y="1009" type="line"/>
      <point x="287" y="1080"/>
      <point x="337" y="1112"/>
      <point x="388" y="1112" type="curve" smooth="yes"/>
      <point x="490" y="1112"/>
      <point x="518" y="1043"/>
      <point x="518" y="932" type="curve" smooth="yes"/>
      <point x="518" y="532" type="line"/>
      <point x="625" y="532" type="line"/>
      <point x="625" y="1009" type="line"/>
      <point x="693" y="1080"/>
      <point x="744" y="1112"/>
      <point x="797" y="1112" type="curve" smooth="yes"/>
      <point x="898" y="1112"/>
      <point x="927" y="1043"/>
      <point x="927" y="932" type="curve" smooth="yes"/>
      <point x="927" y="532" type="line"/>
      <point x="1033" y="532" type="line"/>
      <point x="1033" y="949" type="line"/>
      <point x="1033" y="1100"/>
      <point x="974" y="1205"/>
      <point x="829" y="1205" type="curve" smooth="yes"/>
      <point x="742" y="1205"/>
      <point x="667" y="1145"/>
      <point x="605" y="1079" type="curve"/>
      <point x="576" y="1164"/>
      <point x="513" y="1205"/>
      <point x="421" y="1205" type="curve" smooth="yes"/>
      <point x="333" y="1205"/>
      <point x="270" y="1156"/>
      <point x="215" y="1093" type="curve"/>
      <point x="206" y="1093" type="line"/>
      <point x="196" y="1189" type="line"/>
      <point x="111" y="1189" type="line"/>
    </contour>
  </outline>
</glyph>
<glyph name="p.sups" format="2">
  <advance width="760"/>
  <unicode hex="1D56"/>
  <outline>
    <contour>
      <point x="111" y="250" type="line"/>
      <point x="217" y="250" type="line"/>
      <point x="217" y="468" type="line"/>
      <point x="211" y="593" type="line"/>
      <point x="268" y="544"/>
      <point x="342" y="516"/>
      <point x="403" y="516" type="curve" smooth="yes"/>
      <point x="556" y="516"/>
      <point x="689" y="647"/>
      <point x="689" y="872" type="curve" smooth="yes"/>
      <point x="689" y="1075"/>
      <point x="597" y="1205"/>
      <point x="423" y="1205" type="curve" smooth="yes"/>
      <point x="341" y="1205"/>
      <point x="271" y="1158"/>
      <point x="216" y="1110" type="curve"/>
      <point x="208" y="1110" type="line"/>
      <point x="195" y="1189" type="line"/>
      <point x="111" y="1189" type="line"/>
    </contour>
    <contour>
      <point x="217" y="1021" type="line"/>
      <point x="280" y="1080"/>
      <point x="343" y="1115"/>
      <point x="400" y="1115" type="curve" smooth="yes"/>
      <point x="525" y="1115"/>
      <point x="579" y="1018"/>
      <point x="579" y="871" type="curve" smooth="yes"/>
      <point x="579" y="705"/>
      <point x="498" y="606"/>
      <point x="391" y="606" type="curve" smooth="yes"/>
      <point x="340" y="606"/>
      <point x="276" y="625"/>
      <point x="217" y="677" type="curve"/>
    </contour>
  </outline>
</glyph>
<glyph name="u.sups" format="2">
  <advance width="752"/>
  <unicode hex="1D58"/>
  <outline>
    <contour>
      <point x="546" y="627" type="line"/>
      <point x="558" y="532" type="line"/>
      <point x="642" y="532" type="line"/>
      <point x="642" y="1189" type="line"/>
      <point x="535" y="1189" type="line"/>
      <point x="535" y="712" type="line"/>
      <point x="465" y="640"/>
      <point x="406" y="608"/>
      <point x="348" y="608" type="curve" smooth="yes"/>
      <point x="239" y="608"/>
      <point x="215" y="677"/>
      <point x="215" y="787" type="curve" smooth="yes"/>
      <point x="215" y="1189" type="line"/>
      <point x="108" y="1189" type="line"/>
      <point x="108" y="771" type="line"/>
      <point x="108" y="620"/>
      <point x="163" y="516"/>
      <point x="318" y="516" type="curve" smooth="yes"/>
      <point x="405" y="516"/>
      <point x="481" y="566"/>
      <point x="538" y="627" type="curve"/>
    </contour>
  </outline>
</glyph>
<glyph name="v.sups" format="2">
  <advance width="640"/>
  <unicode hex="1D5B"/>
  <outline>
    <contour>
      <point x="256" y="532" type="line"/>
      <point x="383" y="532" type="line"/>
      <point x="624" y="1189" type="line"/>
      <point x="518" y="1189" type="line"/>
      <point x="391" y="815" type="line"/>
      <point x="325" y="620" type="line"/>
      <point x="317" y="620" type="line"/>
      <point x="251" y="815" type="line"/>
      <point x="124" y="1189" type="line"/>
      <point x="16" y="1189" type="line"/>
    </contour>
  </outline>
</glyph>
<glyph name="Germandbls" format="2">
  <advance width="1335"/>
  <unicode hex="1E9E"/>
  <anchor x="719" y="-300" name="btm"/>
  <anchor x="719" y="1590" name="top"/>
  <outline>
    <contour>
      <point x="1128" y="1069" type="line"/>
      <point x="1051" y="1251"/>
      <point x="917" y="1370"/>
      <point x="698" y="1370" type="curve" smooth="yes"/>
      <point x="354" y="1370"/>
      <point x="187" y="1149"/>
      <point x="187" y="858" type="curve" smooth="yes"/>
      <point x="187" y="0" type="line"/>
      <point x="325" y="0" type="line"/>
      <point x="325" y="829" type="line"/>
      <point x="325" y="1121"/>
      <point x="466" y="1253"/>
      <point x="693" y="1253" type="curve" smooth="yes"/>
      <point x="837" y="1253"/>
      <point x="929" y="1173"/>
      <point x="977" y="1074" type="curve"/>
      <point x="683" y="746" type="line"/>
      <point x="692" y="652" type="line"/>
      <point x="1027" y="597"/>
      <point x="1106" y="484"/>
      <point x="1106" y="346" type="curve" smooth="yes"/>
      <point x="1106" y="200"/>
      <point x="1015" y="94"/>
      <point x="858" y="94" type="curve" smooth="yes"/>
      <point x="751" y="94"/>
      <point x="665" y="135"/>
      <point x="583" y="226" type="curve"/>
      <point x="501" y="133" type="line"/>
      <point x="585" y="37"/>
      <point x="717" y="-25"/>
      <point x="868" y="-25" type="curve" smooth="yes"/>
      <point x="1095" y="-25"/>
      <point x="1251" y="135"/>
      <point x="1251" y="347" type="curve" smooth="yes"/>
      <point x="1251" y="540"/>
      <point x="1135" y="686"/>
      <point x="830" y="742" type="curve"/>
    </contour>
  </outline>
</glyph>
<glyph name="figuredash" format="2">
  <advance width="1003"/>
  <unicode hex="2012"/>
  <outline>
    <contour>
      <point x="83" y="464" type="line"/>
      <point x="922" y="464" type="line"/>
      <point x="922" y="563" type="line"/>
      <point x="83" y="563" type="line"/>
    </contour>
  </outline>
</glyph>
<glyph name="bullet" format="2">
  <advance width="603"/>
  <unicode hex="2022"/>
  <outline>
    <contour>
      <point x="301" y="302" type="curve" smooth="yes"/>
      <point x="417" y="302"/>
      <point x="522" y="395"/>
      <point x="522" y="540" type="curve" smooth="yes"/>
      <point x="522" y="683"/>
      <point x="417" y="778"/>
      <point x="301" y="778" type="curve" smooth="yes"/>
      <point x="186" y="778"/>
      <point x="82" y="683"/>
      <point x="82" y="540" type="curve" smooth="yes"/>
      <point x="82" y="395"/>
      <point x="186" y="302"/>
    </contour>
  </outline>
</glyph>
<glyph name="five.sups" format="2">
  <advance width="747"/>
  <unicode hex="2075"/>
  <outline>
    <contour>
      <point x="279" y="1602" type="line"/>
      <point x="612" y="1602" type="line"/>
      <point x="612" y="1700" type="line"/>
      <point x="186" y="1700" type="line"/>
      <point x="148" y="1317" type="line"/>
      <point x="206" y="1276" type="line"/>
      <point x="249" y="1312"/>
      <point x="297" y="1345"/>
      <point x="364" y="1345" type="curve" smooth="yes"/>
      <point x="470" y="1345"/>
      <point x="543" y="1272"/>
      <point x="543" y="1155" type="curve" smooth="yes"/>
      <point x="543" y="1045"/>
      <point x="468" y="966"/>
      <point x="369" y="966" type="curve" smooth="yes"/>
      <point x="271" y="966"/>
      <point x="204" y="1014"/>
      <point x="152" y="1090" type="curve"/>
      <point x="76" y="1031" type="line"/>
      <point x="137" y="944"/>
      <point x="232" y="877"/>
      <point x="373" y="877" type="curve" smooth="yes"/>
      <point x="531" y="877"/>
      <point x="653" y="987"/>
      <point x="653" y="1152" type="curve" smooth="yes"/>
      <point x="653" y="1327"/>
      <point x="536" y="1422"/>
      <point x="392" y="1422" type="curve" smooth="yes"/>
      <point x="338" y="1422"/>
      <point x="294" y="1406"/>
      <point x="254" y="1387" type="curve"/>
    </contour>
  </outline>
</glyph>
<glyph name="six.sups" format="2">
  <advance width="747"/>
  <unicode hex="2076"/>
  <outline>
    <contour>
      <point x="624" y="1668" type="line"/>
      <point x="579" y="1699"/>
      <point x="525" y="1724"/>
      <point x="438" y="1724" type="curve" smooth="yes"/>
      <point x="251" y="1724"/>
      <point x="96" y="1588"/>
      <point x="96" y="1276" type="curve" smooth="yes"/>
      <point x="96" y="1025"/>
      <point x="216" y="877"/>
      <point x="399" y="877" type="curve" smooth="yes"/>
      <point x="548" y="877"/>
      <point x="660" y="992"/>
      <point x="660" y="1145" type="curve" smooth="yes"/>
      <point x="660" y="1295"/>
      <point x="572" y="1401"/>
      <point x="410" y="1401" type="curve" smooth="yes"/>
      <point x="332" y="1401"/>
      <point x="263" y="1371"/>
      <point x="202" y="1315" type="curve"/>
      <point x="215" y="1537"/>
      <point x="321" y="1635"/>
      <point x="440" y="1635" type="curve" smooth="yes"/>
      <point x="497" y="1635"/>
      <point x="540" y="1613"/>
      <point x="578" y="1588" type="curve"/>
    </contour>
    <contour>
      <point x="398" y="966" type="curve" smooth="yes"/>
      <point x="290" y="966"/>
      <point x="214" y="1055"/>
      <point x="203" y="1222" type="curve"/>
      <point x="270" y="1294"/>
      <point x="326" y="1318"/>
      <point x="390" y="1318" type="curve" smooth="yes"/>
      <point x="499" y="1318"/>
      <point x="556" y="1243"/>
      <point x="556" y="1143" type="curve" smooth="yes"/>
      <point x="556" y="1041"/>
      <point x="492" y="966"/>
    </contour>
  </outline>
</glyph>
<glyph name="parenleft.sups" format="2">
  <advance width="470"/>
  <unicode hex="207D"/>
  <outline>
    <contour>
      <point x="389" y="785" type="line"/>
      <point x="281" y="947"/>
      <point x="241" y="1118"/>
      <point x="241" y="1299" type="curve" smooth="yes"/>
      <point x="241" y="1480"/>
      <point x="281" y="1652"/>
      <point x="389" y="1810" type="curve"/>
      <point x="312" y="1851" type="line"/>
      <point x="197" y="1688"/>
      <point x="134" y="1526"/>
      <point x="134" y="1299" type="curve" smooth="yes"/>
      <point x="134" y="1071"/>
      <point x="197" y="907"/>
      <point x="312" y="745" type="curve"/>
    </contour>
  </outline>
</glyph>
<glyph name="zero.subs" format="2">
  <advance width="747"/>
  <unicode hex="2080"/>
  <outline>
    <contour>
      <point x="375" y="-427" type="curve" smooth="yes"/>
      <point x="555" y="-427"/>
      <point x="673" y="-273"/>
      <point x="673" y="-1" type="curve" smooth="yes"/>
      <point x="673" y="269"/>
      <point x="555" y="421"/>
      <point x="375" y="421" type="curve" smooth="yes"/>
      <point x="193" y="421"/>
      <point x="76" y="269"/>
      <point x="76" y="-1" type="curve" smooth="yes"/>
      <point x="76" y="-273"/>
      <point x="193" y="-427"/>
    </contour>
    <contour>
      <point x="375" y="-338" type="curve" smooth="yes"/>
      <point x="259" y="-338"/>
      <point x="184" y="-221"/>
      <point x="184" y="-1" type="curve" smooth="yes"/>
      <point x="184" y="219"/>
      <point x="259" y="332"/>
      <point x="375" y="332" type="curve" smooth="yes"/>
      <point x="488" y="332"/>
      <point x="564" y="219"/>
      <point x="564" y="-1" type="curve" smooth="yes"/>
      <point x="564" y="-221"/>
      <point x="488" y="-338"/>
    </contour>
  </outline>
</glyph>
<glyph name="three.subs" format="2">
  <advance width="747"/>
  <unicode hex="2083"/>
  <outline>
    <contour>
      <point x="177" y="231" type="line"/>
      <point x="224" y="291"/>
      <point x="286" y="332"/>
      <point x="347" y="332" type="curve" smooth="yes"/>
      <point x="442" y="332"/>
      <point x="503" y="278"/>
      <point x="503" y="196" type="curve" smooth="yes"/>
      <point x="503" y="110"/>
      <point x="419" y="41"/>
      <point x="272" y="41" type="curve"/>
      <point x="272" y="-33" type="line"/>
      <point x="435" y="-33"/>
      <point x="534" y="-86"/>
      <point x="534" y="-184" type="curve" smooth="yes"/>
      <point x="534" y="-281"/>
      <point x="456" y="-338"/>
      <point x="363" y="-338" type="curve" smooth="yes"/>
      <point x="276" y="-338"/>
      <point x="201" y="-288"/>
      <point x="152" y="-215" type="curve"/>
      <point x="76" y="-272" type="line"/>
      <point x="135" y="-358"/>
      <point x="239" y="-427"/>
      <point x="366" y="-427" type="curve" smooth="yes"/>
      <point x="519" y="-427"/>
      <point x="644" y="-336"/>
      <point x="644" y="-189" type="curve" smooth="yes"/>
      <point x="644" y="-81"/>
      <point x="559" y="-12"/>
      <point x="466" y="10" type="curve"/>
      <point x="550" y="46"/>
      <point x="612" y="111"/>
      <point x="612" y="209" type="curve" smooth="yes"/>
      <point x="612" y="341"/>
      <point x="498" y="421"/>
      <point x="362" y="421" type="curve" smooth="yes"/>
      <point x="255" y="421"/>
      <point x="173" y="368"/>
      <point x="109" y="291" type="curve"/>
    </contour>
  </outline>
</glyph>
<glyph name="seven.subs" format="2">
  <advance width="747"/>
  <unicode hex="2087"/>
  <outline>
    <contour>
      <point x="390" y="-403" type="line"/>
      <point x="406" y="-120"/>
      <point x="453" y="81"/>
      <point x="652" y="335" type="curve"/>
      <point x="652" y="396" type="line"/>
      <point x="102" y="396" type="line"/>
      <point x="102" y="302" type="line"/>
      <point x="527" y="302" type="line"/>
      <point x="359" y="76"/>
      <point x="293" y="-120"/>
      <point x="275" y="-403" type="curve"/>
    </contour>
  </outline>
</glyph>
<glyph name="eight.subs" format="2">
  <advance width="747"/>
  <unicode hex="2088"/>
  <outline>
    <contour>
      <point x="497" y="16" type="line"/>
      <point x="548" y="53"/>
      <point x="620" y="115"/>
      <point x="620" y="213" type="curve" smooth="yes"/>
      <point x="620" y="339"/>
      <point x="510" y="421"/>
      <point x="371" y="421" type="curve" smooth="yes"/>
      <point x="237" y="421"/>
      <point x="129" y="336"/>
      <point x="129" y="213" type="curve" smooth="yes"/>
      <point x="129" y="127"/>
      <point x="178" y="76"/>
      <point x="248" y="30" type="curve"/>
      <point x="248" y="22" type="line"/>
      <point x="169" y="-22"/>
      <point x="95" y="-102"/>
      <point x="95" y="-203" type="curve" smooth="yes"/>
      <point x="95" y="-325"/>
      <point x="205" y="-427"/>
      <point x="371" y="-427" type="curve" smooth="yes"/>
      <point x="528" y="-427"/>
      <point x="647" y="-327"/>
      <point x="647" y="-198" type="curve" smooth="yes"/>
      <point x="647" y="-101"/>
      <point x="591" y="-39"/>
      <point x="497" y="8" type="curve"/>
    </contour>
    <contour>
      <point x="371" y="-344" type="curve" smooth="yes"/>
      <point x="268" y="-344"/>
      <point x="200" y="-271"/>
      <point x="200" y="-194" type="curve" smooth="yes"/>
      <point x="200" y="-123"/>
      <point x="241" y="-63"/>
      <point x="320" y="-17" type="curve"/>
      <point x="435" y="-62"/>
      <point x="542" y="-88"/>
      <point x="542" y="-195" type="curve" smooth="yes"/>
      <point x="542" y="-277"/>
      <point x="465" y="-344"/>
    </contour>
    <contour>
      <point x="421" y="46" type="curve"/>
      <point x="316" y="80"/>
      <point x="232" y="125"/>
      <point x="232" y="210" type="curve" smooth="yes"/>
      <point x="232" y="282"/>
      <point x="295" y="334"/>
      <point x="371" y="334" type="curve" smooth="yes"/>
      <point x="450" y="334"/>
      <point x="515" y="286"/>
      <point x="515" y="210" type="curve" smooth="yes"/>
      <point x="515" y="152"/>
      <point x="485" y="96"/>
    </contour>
  </outline>
</glyph>
<glyph name="parenleft.subs" format="2">
  <advance width="470"/>
  <unicode hex="208D"/>
  <outline>
    <contour>
      <point x="389" y="-517" type="line"/>
      <point x="281" y="-356"/>
      <point x="241" y="-186"/>
      <point x="241" y="-4" type="curve" smooth="yes"/>
      <point x="241" y="178"/>
      <point x="281" y="349"/>
      <point x="389" y="507" type="curve"/>
      <point x="312" y="548" type="line"/>
      <point x="197" y="384"/>
      <point x="134" y="222"/>
      <point x="134" y="-4" type="curve" smooth="yes"/>
      <point x="134" y="-232"/>
      <point x="197" y="-395"/>
      <point x="312" y="-558" type="curve"/>
    </contour>
  </outline>
</glyph>
<glyph name="lira" format="2">
  <advance width="1003"/>
  <unicode hex="20A4"/>
  <outline>
    <contour>
      <point x="113" y="0" type="line"/>
      <point x="907" y="0" type="line"/>
      <point x="907" y="119" type="line"/>
      <point x="319" y="119" type="line"/>
      <point x="319" y="128" type="line"/>
      <point x="407" y="214"/>
      <point x="455" y="308"/>
      <point x="455" y="462" type="curve" smooth="yes"/>
      <point x="455" y="472"/>
      <point x="455" y="481"/>
      <point x="454" y="490" type="curve"/>
      <point x="750" y="490" type="line"/>
      <point x="750" y="578" type="line"/>
      <point x="445" y="578" type="line"/>
      <point x="438" y="622"/>
      <point x="427" y="664"/>
      <point x="414" y="704" type="curve"/>
      <point x="750" y="704" type="line"/>
      <point x="750" y="792" type="line"/>
      <point x="391" y="792" type="line"/>
      <point x="375" y="850"/>
      <point x="364" y="905"/>
      <point x="364" y="964" type="curve" smooth="yes"/>
      <point x="364" y="1110"/>
      <point x="447" y="1216"/>
      <point x="603" y="1216" type="curve" smooth="yes"/>
      <point x="702" y="1216"/>
      <point x="768" y="1168"/>
      <point x="821" y="1102" type="curve"/>
      <point x="904" y="1182" type="line"/>
      <point x="836" y="1266"/>
      <point x="740" y="1332"/>
      <point x="596" y="1332" type="curve" smooth="yes"/>
      <point x="373" y="1332"/>
      <point x="228" y="1192"/>
      <point x="228" y="967" type="curve" smooth="yes"/>
      <point x="228" y="907"/>
      <point x="241" y="850"/>
      <point x="257" y="792" type="curve"/>
      <point x="236" y="792" type="line"/>
      <point x="110" y="783" type="line"/>
      <point x="110" y="704" type="line"/>
      <point x="283" y="704" type="line"/>
      <point x="297" y="663"/>
      <point x="307" y="621"/>
      <point x="318" y="578" type="curve"/>
      <point x="248" y="578" type="line"/>
      <point x="110" y="568" type="line"/>
      <point x="110" y="490" type="line"/>
      <point x="330" y="490" type="line"/>
      <point x="330" y="481"/>
      <point x="330" y="473"/>
      <point x="330" y="464" type="curve" smooth="yes"/>
      <point x="330" y="308"/>
      <point x="257" y="163"/>
      <point x="113" y="83" type="curve"/>
    </contour>
  </outline>
</glyph>
<glyph name="naira" format="2">
  <advance width="1003"/>
  <unicode hex="20A6"/>
  <outline>
    <contour>
      <point x="182" y="0" type="line"/>
      <point x="295" y="0" type="line"/>
      <point x="295" y="494" type="line"/>
      <point x="500" y="494" type="line"/>
      <point x="674" y="0" type="line"/>
      <point x="821" y="0" type="line"/>
      <point x="821" y="494" type="line"/>
      <point x="969" y="494" type="line"/>
      <point x="969" y="574" type="line"/>
      <point x="821" y="574" type="line"/>
      <point x="821" y="703" type="line"/>
      <point x="969" y="703" type="line"/>
      <point x="969" y="780" type="line"/>
      <point x="821" y="780" type="line"/>
      <point x="821" y="1308" type="line"/>
      <point x="708" y="1308" type="line"/>
      <point x="708" y="780" type="line"/>
      <point x="515" y="780" type="line"/>
      <point x="329" y="1308" type="line"/>
      <point x="182" y="1308" type="line"/>
      <point x="182" y="780" type="line"/>
      <point x="27" y="771" type="line"/>
      <point x="27" y="703" type="line"/>
      <point x="182" y="703" type="line"/>
      <point x="182" y="574" type="line"/>
      <point x="27" y="564" type="line"/>
      <point x="27" y="494" type="line"/>
      <point x="182" y="494" type="line"/>
    </contour>
    <contour>
      <point x="726" y="135" type="line"/>
      <point x="613" y="494" type="line"/>
      <point x="715" y="494" type="line"/>
      <point x="734" y="135" type="line"/>
    </contour>
    <contour>
      <point x="295" y="574" type="line"/>
      <point x="293" y="703" type="line"/>
      <point x="426" y="703" type="line"/>
      <point x="472" y="574" type="line"/>
    </contour>
    <contour>
      <point x="587" y="574" type="line"/>
      <point x="543" y="703" type="line"/>
      <point x="708" y="703" type="line"/>
      <point x="711" y="574" type="line"/>
    </contour>
    <contour>
      <point x="289" y="780" type="line"/>
      <point x="269" y="1172" type="line"/>
      <point x="277" y="1172" type="line"/>
      <point x="402" y="780" type="line"/>
    </contour>
  </outline>
</glyph>
<glyph name="dong" format="2">
  <advance width="1003"/>
  <unicode hex="20AB"/>
  <outline>
    <contour>
      <point x="704" y="335" type="line"/>
      <point x="715" y="244" type="line"/>
      <point x="813" y="244" type="line"/>
      <point x="813" y="1134" type="line"/>
      <point x="975" y="1145" type="line"/>
      <point x="975" y="1223" type="line"/>
      <point x="813" y="1223" type="line"/>
      <point x="813" y="1369" type="line"/>
      <point x="694" y="1369" type="line"/>
      <point x="694" y="1223" type="line"/>
      <point x="395" y="1223" type="line"/>
      <point x="395" y="1134" type="line"/>
      <point x="694" y="1134" type="line"/>
      <point x="694" y="1056" type="line"/>
      <point x="702" y="877" type="line"/>
      <point x="633" y="938"/>
      <point x="576" y="976"/>
      <point x="474" y="976" type="curve" smooth="yes"/>
      <point x="300" y="976"/>
      <point x="140" y="833"/>
      <point x="140" y="609" type="curve" smooth="yes"/>
      <point x="140" y="359"/>
      <point x="265" y="223"/>
      <point x="460" y="223" type="curve" smooth="yes"/>
      <point x="559" y="223"/>
      <point x="637" y="271"/>
      <point x="697" y="335" type="curve"/>
    </contour>
    <contour>
      <point x="163" y="0" type="line"/>
      <point x="878" y="0" type="line"/>
      <point x="878" y="88" type="line"/>
      <point x="163" y="88" type="line"/>
    </contour>
    <contour>
      <point x="694" y="441" type="line"/>
      <point x="624" y="360"/>
      <point x="555" y="325"/>
      <point x="482" y="325" type="curve" smooth="yes"/>
      <point x="343" y="325"/>
      <point x="265" y="434"/>
      <point x="265" y="612" type="curve" smooth="yes"/>
      <point x="265" y="758"/>
      <point x="365" y="872"/>
      <point x="490" y="872" type="curve" smooth="yes"/>
      <point x="571" y="872"/>
      <point x="622" y="845"/>
      <point x="694" y="780" type="curve"/>
    </contour>
  </outline>
</glyph>
<glyph name="peso" format="2">
  <advance width="1003"/>
  <unicode hex="20B1"/>
  <outline>
    <contour>
      <point x="179" y="0" type="line"/>
      <point x="311" y="0" type="line"/>
      <point x="311" y="516" type="line"/>
      <point x="402" y="516" type="line"/>
      <point x="613" y="516"/>
      <point x="777" y="604"/>
      <point x="829" y="787" type="curve"/>
      <point x="974" y="787" type="line"/>
      <point x="974" y="863" type="line"/>
      <point x="843" y="863" type="line"/>
      <point x="845" y="881"/>
      <point x="846" y="901"/>
      <point x="846" y="920" type="curve" smooth="yes"/>
      <point x="846" y="946"/>
      <point x="844" y="969"/>
      <point x="841" y="991" type="curve"/>
      <point x="974" y="991" type="line"/>
      <point x="974" y="1067" type="line"/>
      <point x="826" y="1067" type="line"/>
      <point x="770" y="1241"/>
      <point x="609" y="1308"/>
      <point x="402" y="1308" type="curve" smooth="yes"/>
      <point x="179" y="1308" type="line"/>
      <point x="179" y="1067" type="line"/>
      <point x="24" y="1059" type="line"/>
      <point x="24" y="991" type="line"/>
      <point x="179" y="991" type="line"/>
      <point x="179" y="863" type="line"/>
      <point x="24" y="854" type="line"/>
      <point x="24" y="787" type="line"/>
      <point x="179" y="787" type="line"/>
    </contour>
    <contour>
      <point x="311" y="614" type="line"/>
      <point x="311" y="787" type="line"/>
      <point x="692" y="787" type="line"/>
      <point x="649" y="672"/>
      <point x="542" y="614"/>
      <point x="380" y="614" type="curve" smooth="yes"/>
    </contour>
    <contour>
      <point x="311" y="863" type="line"/>
      <point x="311" y="991" type="line"/>
      <point x="709" y="991" type="line"/>
      <point x="712" y="970"/>
      <point x="714" y="946"/>
      <point x="714" y="920" type="curve" smooth="yes"/>
      <point x="714" y="900"/>
      <point x="712" y="881"/>
      <point x="710" y="863" type="curve"/>
    </contour>
    <contour>
      <point x="311" y="1067" type="line"/>
      <point x="311" y="1209" type="line"/>
      <point x="380" y="1209" type="line"/>
      <point x="536" y="1209"/>
      <point x="641" y="1169"/>
      <point x="688" y="1067" type="curve"/>
    </contour>
  </outline>
</glyph>
<glyph name="servicemark" format="2">
  <advance width="1282"/>
  <unicode hex="2120"/>
  <outline>
    <contour>
      <point x="656" y="752" type="line"/>
      <point x="758" y="752" type="line"/>
      <point x="758" y="1053" type="line"/>
      <point x="745" y="1262" type="line"/>
      <point x="754" y="1262" type="line"/>
      <point x="909" y="850" type="line"/>
      <point x="992" y="850" type="line"/>
      <point x="1147" y="1262" type="line"/>
      <point x="1155" y="1262" type="line"/>
      <point x="1143" y="1053" type="line"/>
      <point x="1143" y="752" type="line"/>
      <point x="1244" y="752" type="line"/>
      <point x="1244" y="1384" type="line"/>
      <point x="1111" y="1384" type="line"/>
      <point x="1015" y="1144" type="line"/>
      <point x="956" y="976" type="line"/>
      <point x="948" y="976" type="line"/>
      <point x="890" y="1144" type="line"/>
      <point x="790" y="1384" type="line"/>
      <point x="656" y="1384" type="line"/>
    </contour>
    <contour>
      <point x="278" y="1132" type="line"/>
      <point x="223" y="1158"/>
      <point x="190" y="1184"/>
      <point x="190" y="1227" type="curve" smooth="yes"/>
      <point x="190" y="1273"/>
      <point x="226" y="1314"/>
      <point x="295" y="1314" type="curve" smooth="yes"/>
      <point x="343" y="1314"/>
      <point x="393" y="1285"/>
      <point x="436" y="1251" type="curve"/>
      <point x="489" y="1320" type="line"/>
      <point x="443" y="1363"/>
      <point x="373" y="1397"/>
      <point x="301" y="1397" type="curve" smooth="yes"/>
      <point x="178" y="1397"/>
      <point x="92" y="1328"/>
      <point x="92" y="1223" type="curve" smooth="yes"/>
      <point x="92" y="1128"/>
      <point x="155" y="1081"/>
      <point x="214" y="1051" type="curve" smooth="yes"/>
      <point x="312" y="1001" type="line"/>
      <point x="374" y="970"/>
      <point x="403" y="958"/>
      <point x="403" y="900" type="curve" smooth="yes"/>
      <point x="403" y="846"/>
      <point x="363" y="811"/>
      <point x="294" y="811" type="curve" smooth="yes"/>
      <point x="223" y="811"/>
      <point x="170" y="841"/>
      <point x="120" y="890" type="curve"/>
      <point x="60" y="824" type="line"/>
      <point x="118" y="764"/>
      <point x="197" y="727"/>
      <point x="287" y="727" type="curve" smooth="yes"/>
      <point x="420" y="727"/>
      <point x="501" y="814"/>
      <point x="501" y="907" type="curve" smooth="yes"/>
      <point x="501" y="1001"/>
      <point x="454" y="1048"/>
      <point x="375" y="1084" type="curve"/>
    </contour>
  </outline>
</glyph>
<glyph name="trademark" format="2">
  <advance width="1282"/>
  <unicode hex="2122"/>
  <outline>
    <contour>
      <point x="656" y="752" type="line"/>
      <point x="758" y="752" type="line"/>
      <point x="758" y="1053" type="line"/>
      <point x="745" y="1262" type="line"/>
      <point x="754" y="1262" type="line"/>
      <point x="909" y="850" type="line"/>
      <point x="992" y="850" type="line"/>
      <point x="1147" y="1262" type="line"/>
      <point x="1155" y="1262" type="line"/>
      <point x="1143" y="1053" type="line"/>
      <point x="1143" y="752" type="line"/>
      <point x="1244" y="752" type="line"/>
      <point x="1244" y="1384" type="line"/>
      <point x="1111" y="1384" type="line"/>
      <point x="1015" y="1144" type="line"/>
      <point x="956" y="976" type="line"/>
      <point x="948" y="976" type="line"/>
      <point x="890" y="1144" type="line"/>
      <point x="790" y="1384" type="line"/>
      <point x="656" y="1384" type="line"/>
    </contour>
    <contour>
      <point x="215" y="752" type="line"/>
      <point x="319" y="752" type="line"/>
      <point x="319" y="1290" type="line"/>
      <point x="531" y="1290" type="line"/>
      <point x="531" y="1384" type="line"/>
      <point x="5" y="1384" type="line"/>
      <point x="5" y="1290" type="line"/>
      <point x="215" y="1290" type="line"/>
    </contour>
  </outline>
</glyph>
<glyph name="arrowleft" format="2">
  <advance width="1269"/>
  <unicode hex="2190"/>
  <outline>
    <contour>
      <point x="626" y="-25" type="line"/>
      <point x="699" y="54" type="line"/>
      <point x="262" y="464" type="line"/>
      <point x="1200" y="464" type="line"/>
      <point x="1200" y="579" type="line"/>
      <point x="262" y="579" type="line"/>
      <point x="699" y="989" type="line"/>
      <point x="626" y="1069" type="line"/>
      <point x="72" y="526" type="line"/>
      <point x="72" y="518" type="line"/>
    </contour>
  </outline>
</glyph>
<glyph name="arrowup" format="2">
  <advance width="1269"/>
  <unicode hex="2191"/>
  <outline>
    <contour>
      <point x="576" y="-50" type="line"/>
      <point x="691" y="-50" type="line"/>
      <point x="691" y="888" type="line"/>
      <point x="1101" y="451" type="line"/>
      <point x="1181" y="524" type="line"/>
      <point x="638" y="1078" type="line"/>
      <point x="630" y="1078" type="line"/>
      <point x="87" y="524" type="line"/>
      <point x="166" y="451" type="line"/>
      <point x="576" y="888" type="line"/>
    </contour>
  </outline>
</glyph>
<glyph name="arrowright" format="2">
  <advance width="1269"/>
  <unicode hex="2192"/>
  <outline>
    <contour>
      <point x="646" y="-25" type="line"/>
      <point x="1200" y="518" type="line"/>
      <point x="1200" y="526" type="line"/>
      <point x="646" y="1069" type="line"/>
      <point x="573" y="989" type="line"/>
      <point x="1010" y="579" type="line"/>
      <point x="72" y="579" type="line"/>
      <point x="72" y="464" type="line"/>
      <point x="1010" y="464" type="line"/>
      <point x="573" y="54" type="line"/>
    </contour>
  </outline>
</glyph>
<glyph name="increment" format="2">
  <advance width="1185"/>
  <unicode hex="2206"/>
  <outline>
    <contour>
      <point x="59" y="0" type="line"/>
      <point x="1127" y="0" type="line"/>
      <point x="1127" y="83" type="line"/>
      <point x="671" y="1352" type="line"/>
      <point x="514" y="1352" type="line"/>
      <point x="59" y="83" type="line"/>
    </contour>
    <contour>
      <point x="216" y="119" type="line"/>
      <point x="448" y="777" type="line"/>
      <point x="590" y="1202" type="line"/>
      <point x="598" y="1202" type="line"/>
      <point x="737" y="777" type="line"/>
      <point x="970" y="119" type="line"/>
    </contour>
  </outline>
</glyph>
<glyph name="summation" format="2">
  <advance width="1018"/>
  <unicode hex="2211"/>
  <outline>
    <contour>
      <point x="43" y="-246" type="line"/>
      <point x="1014" y="-246" type="line"/>
      <point x="1014" y="-126" type="line"/>
      <point x="218" y="-126" type="line"/>
      <point x="218" y="-118" type="line"/>
      <point x="696" y="533" type="line"/>
      <point x="239" y="1181" type="line"/>
      <point x="239" y="1189" type="line"/>
      <point x="955" y="1189" type="line"/>
      <point x="955" y="1308" type="line"/>
      <point x="66" y="1308" type="line"/>
      <point x="66" y="1216" type="line"/>
      <point x="546" y="531" type="line"/>
      <point x="43" y="-154" type="line"/>
    </contour>
  </outline>
</glyph>
<glyph name="divisionslash" format="2">
  <advance width="171"/>
  <unicode hex="2215"/>
  <outline>
    <contour>
      <point x="-340" y="-25" type="line"/>
      <point x="-240" y="-25" type="line"/>
      <point x="506" y="1370" type="line"/>
      <point x="406" y="1370" type="line"/>
    </contour>
  </outline>
</glyph>
<glyph name="radical" format="2">
  <advance width="1126"/>
  <unicode hex="221A"/>
  <outline>
    <contour>
      <point x="577" y="-203" type="line"/>
      <point x="688" y="-203" type="line"/>
      <point x="1132" y="1679" type="line"/>
      <point x="1028" y="1679" type="line"/>
      <point x="654" y="77" type="line"/>
      <point x="645" y="38"/>
      <point x="638" y="-4"/>
      <point x="630" y="-44" type="curve"/>
      <point x="622" y="-44" type="line"/>
      <point x="612" y="-4"/>
      <point x="602" y="38"/>
      <point x="589" y="77" type="curve" smooth="yes"/>
      <point x="343" y="811" type="line"/>
      <point x="91" y="698" type="line"/>
      <point x="126" y="617" type="line"/>
      <point x="270" y="683" type="line"/>
    </contour>
  </outline>
</glyph>
<glyph name="lessequal" format="2">
  <advance width="1003"/>
  <unicode hex="2264"/>
  <outline>
    <contour>
      <point x="933" y="312" type="line"/>
      <point x="933" y="434" type="line"/>
      <point x="484" y="597" type="line"/>
      <point x="210" y="691" type="line"/>
      <point x="210" y="700" type="line"/>
      <point x="484" y="795" type="line"/>
      <point x="933" y="957" type="line"/>
      <point x="933" y="1079" type="line"/>
      <point x="70" y="760" type="line"/>
      <point x="70" y="632" type="line"/>
    </contour>
    <contour>
      <point x="70" y="0" type="line"/>
      <point x="933" y="0" type="line"/>
      <point x="933" y="106" type="line"/>
      <point x="70" y="106" type="line"/>
    </contour>
  </outline>
</glyph>
<glyph name="whitedownpointingtriangle" format="2">
  <advance width="1159"/>
  <unicode hex="25BD"/>
  <outline>
    <contour>
      <point x="577" y="65" type="line"/>
      <point x="585" y="65" type="line"/>
      <point x="1110" y="1062" type="line"/>
      <point x="1110" y="1066" type="line"/>
      <point x="49" y="1066" type="line"/>
      <point x="49" y="1062" type="line"/>
    </contour>
    <contour>
      <point x="581" y="279" type="line"/>
      <point x="231" y="965" type="line"/>
      <point x="931" y="965" type="line"/>
    </contour>
  </outline>
</glyph>
<glyph name="whiteleftpointingtriangle" format="2">
  <advance width="1159"/>
  <unicode hex="25C1"/>
  <outline>
    <contour>
      <point x="1036" y="46" type="line"/>
      <point x="1040" y="46" type="line"/>
      <point x="1040" y="1107" type="line"/>
      <point x="1036" y="1107" type="line"/>
      <point x="39" y="582" type="line"/>
      <point x="39" y="573" type="line"/>
    </contour>
    <contour>
      <point x="936" y="227" type="line"/>
      <point x="260" y="578" type="line"/>
      <point x="936" y="927" type="line"/>
    </contour>
  </outline>
</glyph>
<glyph name="blackDiamond" format="2">
  <advance width="608"/>
  <unicode hex="25C6"/>
  <outline>
    <contour>
      <point x="304" y="265" type="line"/>
      <point x="579" y="540" type="line"/>
      <point x="304" y="814" type="line"/>
      <point x="27" y="540" type="line"/>
    </contour>
  </outline>
</glyph>
<glyph name="ballotBoxWithCheck" format="2">
  <advance width="1632"/>
  <unicode hex="2611"/>
  <outline>
    <contour>
      <point x="152" y="-20" type="line"/>
      <point x="1378" y="-20" type="line"/>
      <point x="1481" y="97" type="line"/>
      <point x="1481" y="1359" type="line"/>
      <point x="1535" y="1421"/>
      <point x="1591" y="1480"/>
      <point x="1647" y="1532" type="curve"/>
      <point x="1556" y="1619" type="line"/>
      <point x="1481" y="1545"/>
      <point x="1407" y="1463"/>
      <point x="1336" y="1372" type="curve"/>
      <point x="269" y="1372" type="line"/>
      <point x="152" y="1275" type="line"/>
    </contour>
    <contour>
      <point x="231" y="59" type="line"/>
      <point x="231" y="1229" type="line"/>
      <point x="1231" y="1229" type="line"/>
      <point x="1041" y="955"/>
      <point x="882" y="635"/>
      <point x="792" y="329" type="curve"/>
      <point x="783" y="329" type="line"/>
      <point x="728" y="505"/>
      <point x="637" y="688"/>
      <point x="535" y="847" type="curve"/>
      <point x="438" y="781" type="line"/>
      <point x="553" y="609"/>
      <point x="651" y="420"/>
      <point x="725" y="211" type="curve"/>
      <point x="876" y="228" type="line"/>
      <point x="975" y="581"/>
      <point x="1139" y="906"/>
      <point x="1333" y="1173" type="curve"/>
      <point x="1333" y="59" type="line"/>
    </contour>
  </outline>
</glyph>
<glyph name="checkmark" format="2">
  <advance width="1236"/>
  <unicode hex="2713"/>
  <outline>
    <contour>
      <point x="453" y="-23" type="line"/>
      <point x="606" y="520"/>
      <point x="911" y="999"/>
      <point x="1246" y="1311" type="curve"/>
      <point x="1153" y="1399" type="line"/>
      <point x="824" y="1075"/>
      <point x="520" y="563"/>
      <point x="375" y="77" type="curve"/>
      <point x="367" y="77" type="line"/>
      <point x="304" y="263"/>
      <point x="205" y="457"/>
      <point x="93" y="627" type="curve"/>
      <point x="-3" y="561" type="line"/>
      <point x="122" y="379"/>
      <point x="222" y="182"/>
      <point x="302" y="-41" type="curve"/>
    </contour>
  </outline>
</glyph>
<glyph name="upperRightShadowedWhiteSquare" format="2">
  <advance width="751"/>
  <unicode hex="2752"/>
  <outline>
    <contour>
      <point x="111" y="260" type="line"/>
      <point x="544" y="260" type="line"/>
      <point x="640" y="375" type="line"/>
      <point x="640" y="800" type="line"/>
      <point x="227" y="800" type="line"/>
      <point x="111" y="704" type="line"/>
    </contour>
    <contour>
      <point x="182" y="327" type="line"/>
      <point x="182" y="657" type="line"/>
      <point x="498" y="657" type="line"/>
      <point x="498" y="327" type="line"/>
    </contour>
  </outline>
</glyph>
<glyph name="commaaccent" format="2">
  <unicode hex="F6C3"/>
  <anchor x="321" y="0" name="_bottom"/>
  <anchor x="323" y="-436" name="bottom"/>
  <outline>
    <contour>
      <point x="190" y="-436" type="line"/>
      <point x="334" y="-423"/>
      <point x="469" y="-369"/>
      <point x="469" y="-255" type="curve" smooth="yes"/>
      <point x="469" y="-166"/>
      <point x="410" y="-122"/>
      <point x="282" y="-100" type="curve"/>
      <point x="250" y="-171" type="line"/>
      <point x="309" y="-184"/>
      <point x="358" y="-208"/>
      <point x="358" y="-265" type="curve" smooth="yes"/>
      <point x="358" y="-319"/>
      <point x="284" y="-348"/>
      <point x="173" y="-363" type="curve"/>
    </contour>
  </outline>
</glyph>
<glyph name="aiMatra_reph-deva" format="2">
  <advance width="540"/>
  <anchor x="264" y="1168" name="_top"/>
  <anchor x="254" y="1521" name="candra"/>
  <outline>
    <contour>
      <point x="355" y="1223" type="line"/>
      <point x="310" y="1271"/>
      <point x="270" y="1344"/>
      <point x="270" y="1429" type="curve" smooth="yes"/>
      <point x="270" y="1534"/>
      <point x="338" y="1571"/>
      <point x="451" y="1571" type="curve" smooth="yes"/>
      <point x="531" y="1571"/>
      <point x="593" y="1547"/>
      <point x="640" y="1520" type="curve"/>
      <point x="673" y="1618" type="line"/>
      <point x="620" y="1656"/>
      <point x="534" y="1681"/>
      <point x="438" y="1681" type="curve" smooth="yes"/>
      <point x="285" y="1681"/>
      <point x="166" y="1599"/>
      <point x="166" y="1458" type="curve" smooth="yes"/>
      <point x="166" y="1380"/>
      <point x="196" y="1287"/>
      <point x="283" y="1197" type="curve"/>
    </contour>
    <component base="aiMatra-deva"/>
  </outline>
</glyph>
<glyph name="anusvara-deva.001" format="2">
  <anchor x="162" y="1247" name="_candra"/>
  <outline>
    <contour>
      <point x="326" y="1453" type="curve" smooth="yes"/>
      <point x="384" y="1453"/>
      <point x="408" y="1477"/>
      <point x="408" y="1534" type="curve" smooth="yes"/>
      <point x="408" y="1591"/>
      <point x="384" y="1615"/>
      <point x="326" y="1615" type="curve" smooth="yes"/>
      <point x="269" y="1615"/>
      <point x="244" y="1591"/>
      <point x="244" y="1534" type="curve" smooth="yes"/>
      <point x="244" y="1477"/>
      <point x="269" y="1453"/>
    </contour>
  </outline>
</glyph>
<glyph name="b_j_ya-deva" format="2">
  <advance width="2683"/>
  <anchor x="2407" y="28" name="bottom"/>
  <anchor x="2131" y="1168" name="candra"/>
  <anchor x="1850" y="64" name="nukta"/>
  <anchor x="2407" y="1168" name="top"/>
  <outline>
    <contour>
      <point x="1204" y="897" type="line"/>
      <point x="1164" y="811" type="line"/>
      <point x="1291" y="747"/>
      <point x="1373" y="664"/>
      <point x="1373" y="525" type="curve" smooth="yes"/>
      <point x="1373" y="407"/>
      <point x="1304" y="329"/>
      <point x="1168" y="328" type="curve" smooth="yes"/>
      <point x="906" y="327"/>
      <point x="838" y="637"/>
      <point x="813" y="877" type="curve"/>
      <point x="707" y="863" type="line"/>
      <point x="735" y="482"/>
      <point x="862" y="210"/>
      <point x="1171" y="210" type="curve" smooth="yes"/>
      <point x="1376" y="210"/>
      <point x="1499" y="330"/>
      <point x="1499" y="510" type="curve" smooth="yes"/>
      <point x="1499" y="666"/>
      <point x="1421" y="759"/>
      <point x="1284" y="832" type="curve"/>
    </contour>
    <contour>
      <point x="1601" y="1247" type="line"/>
      <point x="-12" y="1247" type="line"/>
      <point x="-12" y="1143" type="line"/>
      <point x="1601" y="1143" type="line"/>
    </contour>
    <contour>
      <point x="1901" y="897" type="line"/>
      <point x="1204" y="897" type="line"/>
      <point x="1258" y="791" type="line"/>
      <point x="1901" y="791" type="line"/>
    </contour>
    <contour>
      <point x="808" y="569" type="line"/>
      <point x="710" y="408"/>
      <point x="600" y="313"/>
      <point x="442" y="313" type="curve" smooth="yes"/>
      <point x="294" y="313"/>
      <point x="223" y="390"/>
      <point x="223" y="563" type="curve" smooth="yes"/>
      <point x="223" y="815"/>
      <point x="371" y="830"/>
      <point x="486" y="830" type="curve" smooth="yes"/>
      <point x="544" y="830"/>
      <point x="580" y="826"/>
      <point x="618" y="812" type="curve"/>
      <point x="647" y="907" type="line"/>
      <point x="594" y="927"/>
      <point x="553" y="934"/>
      <point x="488" y="934" type="curve" smooth="yes"/>
      <point x="348" y="934"/>
      <point x="98" y="909"/>
      <point x="98" y="566" type="curve" smooth="yes"/>
      <point x="98" y="358"/>
      <point x="200" y="210"/>
      <point x="430" y="210" type="curve" smooth="yes"/>
      <point x="557" y="210"/>
      <point x="713" y="257"/>
      <point x="829" y="431" type="curve"/>
    </contour>
    <contour>
      <point x="295" y="867" type="line"/>
      <point x="231" y="798" type="line"/>
      <point x="706" y="316" type="line"/>
      <point x="769" y="384" type="line"/>
    </contour>
    <component base="ya-deva" xOffset="1544"/>
  </outline>
</glyph>
<glyph name="b_la-deva.loclMAR" format="2">
  <advance width="1151"/>
  <anchor x="840" y="-489" name="bottom"/>
  <anchor x="569" y="1168" name="candra"/>
  <anchor x="859" y="1168" name="top"/>
  <outline>
    <contour>
      <point x="829" y="562" type="line"/>
      <point x="736" y="450"/>
      <point x="629" y="385"/>
      <point x="472" y="385" type="curve" smooth="yes"/>
      <point x="328" y="385"/>
      <point x="242" y="434"/>
      <point x="242" y="619" type="curve" smooth="yes"/>
      <point x="242" y="779"/>
      <point x="325" y="847"/>
      <point x="510" y="848" type="curve" smooth="yes"/>
      <point x="611" y="848"/>
      <point x="722" y="829"/>
      <point x="838" y="786" type="curve"/>
      <point x="837" y="872" type="line"/>
      <point x="719" y="933"/>
      <point x="605" y="956"/>
      <point x="491" y="956" type="curve" smooth="yes"/>
      <point x="237" y="956"/>
      <point x="114" y="839"/>
      <point x="114" y="622" type="curve" smooth="yes"/>
      <point x="114" y="405"/>
      <point x="232" y="277"/>
      <point x="464" y="277" type="curve" smooth="yes"/>
      <point x="624" y="277"/>
      <point x="749" y="336"/>
      <point x="842" y="441" type="curve"/>
    </contour>
    <contour>
      <point x="717" y="387" type="line"/>
      <point x="777" y="453" type="line"/>
      <point x="361" y="881" type="line"/>
      <point x="301" y="814" type="line"/>
    </contour>
    <contour>
      <point x="795" y="85" type="line"/>
      <point x="921" y="85" type="line"/>
      <point x="921" y="1198" type="line"/>
      <point x="795" y="1198" type="line"/>
    </contour>
    <contour>
      <point x="-12" y="1143" type="line"/>
      <point x="1164" y="1143" type="line"/>
      <point x="1164" y="1247" type="line"/>
      <point x="-12" y="1247" type="line"/>
    </contour>
    <component base="add" xOffset="38"/>
  </outline>
</glyph>
<glyph name="b_na-deva" format="2">
  <advance width="1103"/>
  <anchor x="826" y="28" name="bottom"/>
  <anchor x="580" y="1168" name="candra"/>
  <anchor x="248" y="44" name="nukta"/>
  <anchor x="826" y="1168" name="top"/>
  <outline>
    <contour>
      <point x="482" y="-121" type="line"/>
      <point x="504" y="-101"/>
      <point x="512" y="-82"/>
      <point x="513" y="-63" type="curve" smooth="yes"/>
      <point x="513" y="-43"/>
      <point x="506" y="-23"/>
      <point x="493" y="-4" type="curve" smooth="yes"/>
      <point x="424" y="94" type="line"/>
      <point x="406" y="40" type="line"/>
      <point x="815" y="357" type="line"/>
      <point x="770" y="441" type="line"/>
      <point x="215" y="47" type="line"/>
      <point x="271" y="-44" type="line"/>
    </contour>
    <component base="ba-deva"/>
  </outline>
</glyph>
<glyph name="b_ra-deva" format="2">
  <advance width="1103"/>
  <anchor x="830" y="28" name="bottom"/>
  <anchor x="562" y="1168" name="candra"/>
  <anchor x="830" y="1168" name="top"/>
  <anchor x="248" y="44" name="nukta"/>
  <outline>
    <contour>
      <point x="268" y="-43" type="line"/>
      <point x="806" y="354" type="line"/>
      <point x="774" y="419" type="line"/>
      <point x="196" y="52" type="line"/>
    </contour>
    <component base="ba-deva"/>
  </outline>
</glyph>
